{"glyphs":{"0":{"ha":1669,"x_min":142,"x_max":1499,"o":"m 532 0 q 381 31 451 0 q 256 115 310 61 q 172 239 203 168 q 142 390 142 310 l 142 554 q 172 706 142 635 q 256 831 203 778 q 381 915 310 883 q 532 946 451 946 l 1107 946 q 1259 915 1188 946 q 1384 831 1331 883 q 1468 706 1438 778 q 1499 554 1499 635 l 1499 390 q 1468 239 1499 310 q 1384 115 1438 168 q 1259 31 1331 61 q 1107 0 1188 0 l 532 0 m 290 390 q 310 297 290 340 q 362 220 329 253 q 438 168 394 188 q 532 149 482 149 l 1107 149 q 1201 168 1157 149 q 1278 220 1246 188 q 1331 297 1311 253 q 1350 390 1350 340 l 1350 554 q 1331 648 1350 604 q 1278 724 1311 692 q 1201 776 1246 757 q 1107 796 1157 796 l 532 796 q 438 776 482 796 q 362 724 394 757 q 310 648 329 692 q 290 554 290 604 l 290 390 z "},"1":{"ha":586,"x_min":79,"x_max":435,"o":"m 288 0 l 288 772 q 267 799 282 788 q 235 814 251 811 l 79 814 l 79 964 l 239 964 q 312 948 276 964 q 374 906 347 932 q 418 846 401 879 q 435 779 435 813 l 435 0 l 288 0 z "},"2":{"ha":1575,"x_min":147,"x_max":1457,"o":"m 147 0 l 147 257 q 165 341 147 303 q 212 409 182 379 q 281 458 242 439 q 363 485 319 478 q 513 509 432 496 q 678 535 593 522 q 847 561 763 549 q 1008 585 931 574 q 1150 606 1085 597 q 1263 622 1215 615 q 1299 639 1282 625 q 1299 642 1299 639 q 1301 656 1300 644 q 1301 692 1301 668 q 1301 760 1301 715 q 1273 797 1299 781 q 1214 813 1247 813 l 381 813 q 352 810 369 813 q 321 797 335 808 q 304 776 310 788 q 299 742 299 764 l 299 603 l 150 603 l 150 757 q 169 840 150 803 q 219 905 188 878 q 290 947 250 932 q 369 963 329 963 l 1214 963 q 1299 950 1257 963 q 1376 913 1342 938 q 1431 854 1410 889 q 1451 774 1451 819 l 1451 633 q 1434 563 1451 592 q 1389 514 1417 533 q 1327 483 1361 494 q 1258 468 1293 472 q 1184 458 1222 464 q 1106 446 1146 453 q 920 419 1017 433 q 728 390 824 404 q 547 363 633 376 q 392 338 460 350 q 326 309 357 331 q 296 260 296 288 l 296 149 l 1457 149 l 1457 0 l 147 0 z "},"3":{"ha":1586,"x_min":138,"x_max":1439,"o":"m 1439 551 q 1429 504 1436 519 q 1408 474 1422 489 q 1433 429 1428 453 q 1439 379 1439 406 l 1439 186 q 1424 128 1436 157 q 1388 71 1413 99 q 1306 16 1351 32 q 1201 0 1260 0 l 378 0 q 345 2 365 0 q 303 10 325 4 q 260 24 282 15 q 221 43 238 32 q 138 218 138 107 l 138 293 l 286 293 l 286 218 l 286 211 q 310 163 286 176 q 364 149 333 149 l 1201 149 q 1261 160 1242 149 q 1280 174 1271 165 q 1289 194 1289 183 l 1289 378 q 1278 392 1289 389 q 1256 396 1267 396 l 311 396 l 311 547 l 1257 547 q 1278 551 1267 547 q 1289 564 1289 556 l 1289 758 q 1260 798 1282 783 q 1211 813 1238 813 l 364 813 q 333 809 350 813 q 307 797 317 806 q 290 776 294 789 q 286 743 286 763 l 286 669 l 138 669 l 138 749 q 158 844 138 799 q 215 917 178 889 q 293 951 249 940 q 378 963 338 963 l 1203 963 q 1290 947 1249 961 q 1363 907 1331 932 q 1415 849 1394 882 q 1439 776 1435 815 l 1439 551 l 1439 551 z "},"4":{"ha":1536,"x_min":138,"x_max":1378,"o":"m 1378 963 l 1378 1 l 1229 1 l 1229 332 l 213 332 q 170 344 189 332 q 143 375 151 356 q 138 390 139 383 q 138 404 138 396 q 160 458 138 436 l 651 963 l 861 963 l 392 481 l 1229 481 l 1229 963 l 1378 963 z "},"5":{"ha":1597,"x_min":138,"x_max":1439,"o":"m 1439 192 q 1408 96 1435 138 q 1380 60 1397 78 q 1338 30 1363 43 q 1278 8 1313 17 q 1201 0 1244 0 l 378 0 q 360 1 378 0 q 315 9 342 3 q 257 29 288 15 q 199 68 226 43 q 155 131 172 93 q 138 224 138 169 l 138 344 l 286 344 l 286 224 q 300 183 286 199 q 332 161 314 168 q 378 149 351 151 l 1201 149 q 1231 151 1215 149 q 1259 160 1246 154 q 1281 174 1272 165 q 1289 196 1289 183 l 1289 417 q 1288 428 1289 421 q 1285 442 1288 435 q 1276 455 1282 450 q 1258 460 1269 460 l 328 460 q 232 494 274 467 q 167 565 196 518 q 138 697 138 613 l 138 963 l 1438 963 l 1438 813 l 286 813 l 286 697 q 292 649 286 667 q 307 623 299 632 q 323 612 315 614 q 333 610 331 610 l 1260 610 q 1349 586 1310 607 q 1410 528 1382 568 q 1439 417 1439 489 l 1439 192 z "},"6":{"ha":1589,"x_min":139,"x_max":1440,"o":"m 139 774 q 153 831 142 801 q 190 889 165 861 q 272 945 226 929 q 375 961 317 961 l 1217 961 q 1286 951 1250 961 q 1356 918 1322 940 q 1440 742 1440 854 l 1440 668 l 1290 668 l 1290 742 q 1287 770 1290 757 q 1271 794 1283 783 q 1242 808 1258 806 q 1210 811 1226 811 l 375 811 q 317 800 335 811 q 298 784 306 793 q 288 767 290 775 l 288 575 q 305 578 297 576 q 317 579 313 579 l 1263 579 q 1294 574 1267 579 q 1355 551 1322 569 q 1414 495 1388 532 q 1440 396 1440 458 l 1440 214 q 1419 119 1440 164 q 1360 44 1399 74 q 1288 10 1326 19 q 1208 0 1249 0 l 375 0 q 255 24 301 0 q 183 79 208 47 q 148 144 157 111 q 139 197 139 178 l 139 774 m 288 201 q 324 164 299 179 q 376 149 349 149 l 1233 149 q 1275 165 1260 149 q 1290 204 1290 182 l 1290 396 q 1278 424 1290 419 q 1263 428 1267 428 l 311 428 q 298 424 308 428 q 288 396 288 419 l 288 201 z "},"7":{"ha":1464,"x_min":75,"x_max":1328,"o":"m 75 0 l 1165 724 q 1175 738 1172 726 q 1178 760 1178 749 q 1165 795 1178 779 q 1133 814 1153 811 l 139 814 l 139 964 l 1144 964 q 1278 895 1228 953 q 1328 758 1328 838 q 1308 672 1328 714 q 1249 599 1288 631 l 365 0 l 75 0 z "},"8":{"ha":1586,"x_min":133,"x_max":1435,"o":"m 1435 560 q 1425 513 1432 528 q 1404 482 1418 497 q 1429 438 1424 461 q 1435 388 1435 414 l 1435 185 q 1420 126 1432 156 q 1383 69 1408 97 q 1301 15 1347 31 q 1197 -1 1256 -1 l 369 -1 q 266 15 311 -1 q 185 69 221 31 q 148 126 160 97 q 133 185 136 156 l 133 388 q 138 438 133 414 q 163 482 143 461 q 143 511 150 496 q 133 560 136 526 l 133 775 q 158 848 138 814 q 209 907 178 882 q 281 947 240 932 q 368 961 322 961 l 1199 961 q 1285 945 1244 960 q 1358 906 1326 931 q 1410 847 1390 881 q 1435 775 1431 814 l 1435 560 m 1257 158 q 1275 173 1267 164 q 1285 194 1283 182 l 1285 386 q 1274 401 1285 397 q 1251 404 1263 404 l 315 404 q 293 401 304 404 q 282 386 282 397 l 282 193 q 291 173 282 182 q 311 158 300 164 q 335 151 321 154 q 369 147 350 147 l 1197 147 q 1257 158 1238 147 m 1285 757 q 1256 797 1278 782 q 1207 811 1233 811 l 361 811 q 312 797 335 811 q 282 757 289 782 l 282 572 q 292 560 282 564 q 314 556 303 556 l 1256 556 q 1274 559 1264 556 q 1285 572 1283 563 l 1285 757 z "},"9":{"ha":1615,"x_min":146,"x_max":1447,"o":"m 1447 186 q 1433 128 1444 157 q 1396 71 1421 99 q 1314 16 1360 32 q 1210 0 1268 0 l 369 0 q 298 10 335 0 q 229 42 261 19 q 146 218 146 103 l 146 293 l 294 293 l 294 218 q 299 190 294 203 q 314 165 303 176 q 342 152 325 156 q 376 149 360 149 l 1210 149 q 1246 152 1232 149 q 1268 161 1260 156 q 1288 177 1279 168 q 1297 194 1296 186 l 1297 385 q 1285 383 1292 383 q 1268 382 1279 382 l 324 382 q 291 387 319 382 q 231 410 263 392 q 172 465 199 429 q 146 564 146 501 l 146 749 q 166 844 146 799 q 225 917 186 889 q 298 952 260 942 q 376 963 336 963 l 1210 963 q 1331 939 1285 963 q 1403 883 1376 915 q 1438 818 1429 851 q 1447 765 1447 785 l 1447 186 m 1297 760 q 1262 798 1286 783 q 1210 813 1238 813 l 354 813 q 312 797 329 813 q 294 757 294 781 l 294 564 q 307 536 294 540 q 324 532 319 532 l 1275 532 q 1288 536 1278 532 q 1297 564 1297 540 l 1297 760 z "}," ":{"ha":521,"x_min":0,"x_max":0,"o":""},"#":{"ha":1049,"x_min":131,"x_max":874,"o":"m 874 385 l 703 385 l 703 207 l 597 207 l 597 385 l 407 385 l 407 207 l 301 207 l 301 385 l 131 385 l 131 490 l 301 490 l 301 679 l 131 679 l 131 785 l 301 785 l 301 963 l 407 963 l 407 785 l 597 785 l 597 963 l 703 963 l 703 785 l 874 785 l 874 679 l 703 679 l 703 490 l 874 490 l 874 385 m 597 490 l 597 679 l 407 679 l 407 490 l 597 490 z "},"$":{"ha":1407,"x_min":143,"x_max":1253,"o":"m 981 547 q 1086 526 1036 547 q 1173 467 1136 504 q 1231 381 1210 431 q 1253 274 1253 331 q 1231 167 1253 217 q 1173 80 1210 117 q 1087 22 1136 43 q 981 0 1038 0 l 926 0 l 926 -110 l 776 -110 l 776 0 l 668 0 l 668 -110 l 518 -110 l 518 0 l 143 0 l 143 149 l 518 149 l 518 397 l 418 397 q 313 419 363 397 q 226 477 264 440 q 167 563 189 514 q 146 669 146 613 q 167 778 146 728 q 226 865 189 828 q 312 922 263 901 q 418 943 361 943 l 518 943 l 518 1050 l 668 1050 l 668 943 l 776 943 l 776 1050 l 926 1050 l 926 943 l 1243 943 l 1243 793 l 926 793 l 926 547 l 981 547 m 668 793 l 668 547 l 776 547 l 776 793 l 668 793 m 518 547 l 518 793 l 418 793 q 332 758 365 793 q 294 674 299 724 q 333 583 299 619 q 418 547 368 547 l 518 547 m 776 149 l 776 397 l 668 397 l 668 149 l 776 149 m 981 149 q 1068 185 1032 149 q 1104 272 1104 221 q 1069 361 1104 325 q 981 397 1033 397 l 926 397 l 926 149 l 981 149 z "},"%":{"ha":1619,"x_min":122,"x_max":1504,"o":"m 415 -14 l 1036 963 l 1207 963 l 586 -14 l 415 -14 m 1065 0 q 981 17 1021 0 q 913 63 942 33 q 865 133 882 93 q 847 217 847 172 l 847 236 q 865 322 847 282 q 912 391 882 361 q 981 438 942 421 q 1065 456 1021 456 l 1288 456 q 1372 438 1332 456 q 1440 391 1411 421 q 1487 322 1469 361 q 1504 236 1504 282 l 1504 217 q 1488 133 1504 172 q 1442 64 1471 93 q 1373 17 1413 35 q 1288 0 1333 0 l 1065 0 m 1011 292 q 994 267 1000 281 q 988 236 988 253 l 988 217 q 1010 163 988 185 q 1065 140 1033 140 l 1288 140 q 1342 163 1319 140 q 1364 217 1364 185 l 1364 236 q 1342 292 1364 269 q 1288 315 1319 315 l 1065 315 q 1010 292 1033 315 l 1011 292 m 339 494 q 186 557 249 494 q 140 627 157 588 q 122 711 122 667 l 122 731 q 140 816 122 776 q 186 885 157 856 q 255 931 215 914 q 339 949 294 949 l 563 949 q 647 931 607 949 q 715 885 686 914 q 762 816 744 856 q 779 731 779 776 l 779 711 q 763 627 779 667 q 717 558 746 588 q 648 512 688 529 q 563 494 608 494 l 339 494 m 286 786 q 263 731 263 765 l 263 711 q 285 656 263 679 q 339 633 307 633 l 563 633 q 617 656 594 633 q 639 711 639 679 l 639 731 q 617 785 639 763 q 563 808 594 808 l 339 808 q 285 786 307 808 l 286 786 z "},"&":{"ha":1575,"x_min":121,"x_max":1467,"o":"m 1467 564 l 1467 414 l 1338 414 l 1338 0 l 417 0 q 296 22 350 0 q 203 83 242 44 q 142 172 164 121 q 121 282 121 224 q 145 393 121 340 q 213 485 169 446 q 144 571 168 519 q 121 679 121 622 q 151 808 121 757 q 228 889 182 858 q 326 931 274 919 q 421 943 378 943 l 1331 943 l 1331 793 l 421 793 q 367 785 393 793 q 318 763 340 778 q 283 727 296 749 q 269 678 269 706 q 283 631 269 651 q 317 595 296 610 q 364 572 338 581 q 415 564 390 564 l 1467 564 m 1188 413 l 414 413 q 358 402 385 413 q 313 374 332 392 q 281 331 293 356 q 269 281 269 307 q 276 249 269 271 q 299 204 282 226 q 343 165 315 182 q 414 149 371 149 l 1188 149 l 1188 413 z "},"’":{"ha":454,"x_min":133,"x_max":388,"o":"m 133 614 l 225 951 l 388 951 l 294 614 l 133 614 z "},"(":{"ha":660,"x_min":119,"x_max":485,"o":"m 321 -79 q 218 -47 263 -79 q 149 33 174 -14 q 127 92 135 61 q 119 160 119 124 l 119 785 q 133 873 119 832 q 171 946 147 914 q 236 1003 197 982 q 321 1024 275 1024 l 485 1024 l 485 875 l 321 875 q 283 842 297 871 q 269 785 269 818 l 269 160 q 290 89 269 114 q 322 69 306 71 l 485 69 l 485 -79 l 321 -79 l 321 -79 z "},")":{"ha":665,"x_min":119,"x_max":485,"o":"m 119 -79 l 119 69 l 285 69 q 314 89 299 71 q 330 119 324 100 q 336 160 336 138 l 336 785 q 333 815 336 801 q 322 842 329 829 q 285 875 307 871 l 119 875 l 119 1024 l 285 1024 q 368 1003 329 1024 q 433 946 407 982 q 471 873 457 914 q 485 785 485 832 l 485 160 q 456 33 485 89 q 388 -47 432 -14 q 285 -79 343 -79 l 119 -79 z "},"*":{"ha":665,"x_min":81,"x_max":583,"o":"m 583 724 l 428 724 l 536 614 l 481 557 l 371 668 l 371 514 l 290 514 l 290 669 l 181 561 l 124 617 l 233 726 l 81 726 l 81 807 l 236 807 l 126 917 l 183 974 l 294 864 l 294 1017 l 374 1017 l 374 861 l 483 971 l 540 914 l 429 803 l 583 803 l 583 724 z "},"+":{"ha":992,"x_min":138,"x_max":831,"o":"m 831 407 l 551 407 l 551 128 l 418 128 l 418 407 l 138 407 l 138 540 l 418 540 l 418 821 l 551 821 l 551 540 l 831 540 l 831 407 z "},",":{"ha":432,"x_min":122,"x_max":332,"o":"m 122 -151 l 168 125 l 332 125 l 285 -151 l 122 -151 z "},"-":{"ha":938,"x_min":94,"x_max":808,"o":"m 94 547 l 808 547 l 808 419 l 94 419 l 94 547 z "},".":{"ha":435,"x_min":138,"x_max":300,"o":"m 138 0 l 138 167 l 300 167 l 300 0 l 138 0 z "},"/":{"ha":825,"x_min":74,"x_max":788,"o":"m 74 -71 l 639 1039 l 788 1039 l 222 -71 l 74 -71 z "},":":{"ha":419,"x_min":139,"x_max":293,"o":"m 293 211 l 293 0 l 139 0 l 139 211 l 293 211 m 293 583 l 293 374 l 139 374 l 139 583 l 293 583 z "},";":{"ha":447,"x_min":90,"x_max":324,"o":"m 154 374 l 154 540 l 324 540 l 324 374 l 154 374 m 90 -147 l 175 165 l 313 165 l 226 -147 l 90 -147 z "},"<":{"ha":868,"x_min":0,"x_max":0,"o":""},"=":{"ha":938,"x_min":122,"x_max":822,"o":"m 122 407 l 822 407 l 822 265 l 122 265 l 122 407 m 122 664 l 822 664 l 822 522 l 122 522 l 122 664 z "},">":{"ha":857,"x_min":0,"x_max":0,"o":""},"?":{"ha":1438,"x_min":139,"x_max":1299,"o":"m 1150 726 q 1148 742 1150 731 q 1138 764 1146 753 q 1111 784 1129 775 q 1063 793 1093 793 l 375 793 q 326 784 343 793 q 300 763 308 775 q 290 740 292 751 q 288 724 288 729 l 288 583 l 139 583 l 139 724 q 167 844 139 800 q 235 910 196 889 q 311 938 274 932 q 368 943 349 943 l 1063 943 q 1113 938 1075 943 q 1193 912 1151 933 q 1267 847 1235 890 q 1299 724 1299 803 l 1299 622 q 1271 526 1299 560 q 1210 475 1243 492 q 1122 451 1171 456 l 750 451 q 705 441 721 451 q 681 417 689 431 q 672 392 674 404 q 671 374 671 379 l 671 222 l 522 222 l 522 374 q 553 501 522 456 q 623 569 583 547 q 700 595 663 590 q 751 600 738 600 l 1115 600 q 1132 606 1125 601 q 1144 615 1139 608 q 1150 632 1150 621 l 1150 726 m 522 -1 l 522 146 l 671 146 l 671 -1 l 522 -1 z "},"@":{"ha":1531,"x_min":139,"x_max":1336,"o":"m 357 75 q 273 92 313 75 q 204 139 233 110 q 156 209 174 169 q 139 293 139 249 l 139 713 q 156 798 139 758 q 204 868 174 838 q 273 915 233 897 q 357 932 313 932 l 1119 932 q 1202 915 1163 932 q 1272 867 1242 897 q 1319 798 1303 838 q 1336 713 1336 758 l 1336 471 q 1311 358 1336 408 q 1252 285 1289 317 q 1163 254 1215 254 q 1085 273 1121 254 q 1026 326 1050 292 q 985 471 985 388 l 985 528 q 961 583 985 560 q 935 599 950 593 q 906 606 921 606 l 539 606 q 508 599 522 606 q 483 583 494 593 q 461 528 461 561 l 461 478 q 483 422 461 444 q 508 406 494 413 q 539 400 522 400 l 985 400 l 985 258 l 539 258 q 454 276 494 258 q 383 324 414 293 q 337 393 353 353 q 321 478 321 433 l 321 528 q 383 682 321 619 q 454 729 414 713 q 539 746 494 746 l 906 746 q 990 729 950 746 q 1060 682 1031 713 q 1106 612 1089 651 q 1124 528 1124 572 l 1124 471 q 1132 425 1124 446 q 1160 393 1140 404 q 1161 394 1158 394 q 1165 396 1164 394 q 1196 472 1193 421 l 1196 713 q 1174 767 1196 744 q 1119 790 1150 790 l 357 790 q 303 767 326 790 q 285 742 292 756 q 279 713 279 728 l 279 293 q 303 239 279 263 q 328 222 314 228 q 357 215 342 215 l 1326 215 l 1326 75 l 357 75 z "},"[":{"ha":571,"x_min":115,"x_max":431,"o":"m 115 -96 l 115 1039 l 418 1039 l 418 890 l 264 890 l 264 53 l 431 53 l 431 -96 l 115 -96 z "},"\\":{"ha":803,"x_min":69,"x_max":733,"o":"m 733 -69 l 642 -69 l 69 1042 l 161 1042 l 733 -69 z "},"]":{"ha":614,"x_min":114,"x_max":431,"o":"m 115 -96 l 115 53 l 282 53 l 282 890 l 114 890 l 114 1039 l 431 1039 l 431 -96 l 115 -96 z "},"^":{"ha":906,"x_min":56,"x_max":850,"o":"m 506 972 l 850 332 l 756 332 l 453 903 l 150 332 l 56 332 l 400 972 l 506 972 z "},"_":{"ha":1389,"x_min":0,"x_max":1389,"o":"m 0 -97 l 1389 -97 l 1389 -181 l 0 -181 l 0 -97 z "},"‘":{"ha":447,"x_min":119,"x_max":374,"o":"m 211 614 l 119 951 l 281 951 l 374 614 l 211 614 z "},"a":{"ha":1504,"x_min":136,"x_max":1332,"o":"m 447 0 q 358 14 401 0 q 278 51 315 28 q 211 108 240 75 q 164 181 182 142 q 144 238 151 208 q 136 297 136 267 q 161 414 136 360 q 228 509 186 468 q 326 573 271 550 q 443 596 382 596 l 1183 596 l 1183 631 q 1169 694 1183 664 q 1133 746 1156 724 q 1081 781 1111 768 q 1018 793 1051 793 l 346 793 l 346 943 l 1018 943 q 1140 919 1083 943 q 1240 852 1197 894 q 1308 753 1283 810 q 1332 631 1332 696 l 1332 -1 l 447 0 m 357 419 q 305 367 324 399 q 286 297 286 336 q 299 238 286 265 q 333 192 313 211 q 383 160 354 172 q 443 149 411 149 l 1183 149 l 1183 446 l 447 446 q 357 419 396 446 z "},"b":{"ha":1535,"x_min":136,"x_max":1382,"o":"m 1288 496 q 1357 402 1332 456 q 1382 288 1382 349 q 1358 175 1382 228 q 1292 83 1333 122 q 1195 22 1250 44 q 1081 0 1140 0 l 136 0 l 136 963 l 1076 963 q 1162 952 1119 963 q 1241 922 1204 942 q 1308 872 1278 901 q 1356 803 1338 842 q 1382 693 1382 750 q 1358 585 1382 638 q 1288 496 1333 532 m 288 575 l 1082 575 q 1135 583 1108 575 q 1183 607 1161 592 q 1217 644 1204 622 q 1231 693 1231 665 q 1217 742 1231 721 q 1181 779 1203 764 q 1132 803 1160 794 q 1076 811 1104 811 l 288 811 l 288 575 m 1219 236 q 1231 286 1231 258 q 1219 338 1231 313 q 1186 381 1207 363 q 1139 411 1165 400 q 1083 422 1113 422 l 288 422 l 288 153 l 1083 153 q 1165 176 1126 153 q 1219 236 1203 199 z "},"c":{"ha":1436,"x_min":139,"x_max":1333,"o":"m 257 117 q 170 244 201 172 q 139 400 139 317 l 139 564 q 171 719 139 646 q 257 846 203 792 q 384 931 311 900 q 540 963 457 963 l 1333 963 l 1333 811 l 540 811 q 444 792 489 811 q 365 738 399 772 q 312 659 332 704 q 292 564 292 614 l 292 400 q 311 305 292 350 q 364 226 331 260 q 442 172 397 192 q 538 153 486 153 l 1333 153 l 1333 0 l 540 0 q 384 31 457 0 q 257 117 311 63 z "},"d":{"ha":1454,"x_min":140,"x_max":1379,"o":"m 140 963 l 979 963 q 1135 931 1063 963 q 1263 844 1208 899 q 1348 718 1317 790 q 1379 564 1379 646 l 1379 400 q 1347 244 1379 317 q 1261 117 1315 171 q 1134 31 1207 63 q 979 0 1061 0 l 140 0 l 140 963 m 1226 567 q 1207 661 1226 617 q 1153 739 1188 706 q 1074 792 1119 772 q 979 811 1029 811 l 292 811 l 292 153 l 982 153 q 1076 172 1032 153 q 1154 225 1121 192 q 1207 303 1188 258 q 1226 400 1226 349 l 1226 567 z "},"e":{"ha":1511,"x_min":139,"x_max":1360,"o":"m 139 671 q 165 784 139 731 q 233 876 190 838 q 332 938 275 915 q 451 961 389 961 l 1053 961 q 1169 938 1114 961 q 1267 873 1225 914 q 1335 778 1310 832 q 1360 663 1360 724 q 1335 546 1360 600 q 1267 451 1310 492 q 1167 387 1224 410 q 1047 364 1110 364 l 288 364 l 288 251 q 348 176 300 204 q 451 149 396 149 l 1333 149 l 1333 0 l 444 0 q 337 17 390 0 q 240 65 283 33 q 168 143 196 97 q 139 247 140 189 l 139 671 m 451 811 q 398 800 426 811 q 344 770 369 789 q 303 724 319 751 q 288 667 288 697 l 288 514 l 1053 514 q 1113 526 1083 514 q 1163 557 1142 538 q 1198 603 1185 576 q 1211 663 1211 631 q 1198 722 1211 694 q 1162 769 1185 749 q 1109 800 1139 789 q 1047 811 1079 811 l 451 811 z "},"f":{"ha":1435,"x_min":140,"x_max":1333,"o":"m 365 738 q 313 659 332 704 q 293 563 293 614 l 293 553 l 1275 553 l 1275 401 l 293 401 l 293 0 l 140 0 l 140 563 q 172 718 140 646 q 257 844 203 790 q 385 931 313 900 q 540 963 457 963 l 1333 963 l 1333 811 l 540 811 q 443 791 488 811 q 365 738 399 771 z "},"h":{"ha":1413,"x_min":138,"x_max":1283,"o":"m 1168 832 q 1253 708 1222 779 q 1283 556 1283 636 l 1283 0 l 1135 0 l 1135 556 q 1115 653 1135 608 q 1063 730 1096 697 q 986 781 1031 763 q 892 799 942 799 l 528 799 q 432 780 476 799 q 356 728 388 761 q 305 650 324 694 q 286 556 286 606 l 286 0 l 138 0 l 138 1156 l 286 1156 l 286 864 q 397 926 336 904 q 528 949 458 949 l 892 949 q 1044 917 972 949 q 1168 832 1115 886 z "},"i":{"ha":368,"x_min":122,"x_max":275,"o":"m 122 0 l 122 963 l 275 963 l 275 0 l 122 0 z "},"j":{"ha":1418,"x_min":139,"x_max":1285,"o":"m 297 961 l 1285 961 l 1285 390 q 1254 240 1285 311 q 1169 114 1224 168 q 1046 31 1117 61 q 894 0 975 0 l 531 0 q 378 31 449 0 q 254 114 307 61 q 169 240 200 168 q 139 390 139 311 l 139 493 l 288 493 l 288 390 q 306 298 288 342 q 358 221 325 254 q 434 168 390 188 q 528 149 478 149 l 894 149 q 987 167 943 149 q 1064 219 1031 186 q 1117 295 1097 251 q 1136 389 1136 339 l 1136 811 l 297 811 l 297 961 z "},"k":{"ha":1510,"x_min":138,"x_max":1392,"o":"m 1033 536 q 1149 483 1096 519 q 1240 397 1201 447 q 1299 286 1278 347 q 1321 158 1321 225 l 1321 0 l 1172 0 l 1172 161 q 1153 253 1172 210 q 1100 330 1133 297 q 1023 381 1067 363 q 929 400 979 400 l 286 400 l 286 0 l 138 0 l 138 961 l 286 961 l 286 550 l 847 550 q 1019 756 932 650 q 1189 961 1106 861 l 1392 961 l 1033 536 z "},"l":{"ha":1346,"x_min":139,"x_max":1307,"o":"m 288 961 l 288 392 q 306 297 288 342 q 358 220 325 253 q 435 168 390 188 q 529 149 479 149 l 1307 149 l 1307 0 l 529 0 q 378 31 449 0 q 253 115 307 61 q 169 240 200 168 q 139 392 139 311 l 139 961 l 288 961 z "},"m":{"ha":2094,"x_min":149,"x_max":1926,"o":"m 1536 961 q 1688 930 1617 961 q 1811 846 1758 899 q 1895 721 1864 793 q 1926 568 1926 649 l 1926 0 l 1778 0 l 1778 568 q 1759 662 1778 618 q 1708 739 1740 706 q 1631 792 1675 772 q 1539 811 1588 811 l 1071 811 l 1071 0 l 921 0 l 921 811 l 297 811 l 297 0 l 149 0 l 149 961 l 1536 961 l 1536 961 z "},"n":{"ha":1413,"x_min":135,"x_max":1281,"o":"m 890 961 q 1042 930 971 961 q 1166 846 1113 899 q 1250 721 1219 793 q 1281 568 1281 649 l 1281 0 l 1132 0 l 1132 568 q 1113 662 1132 618 q 1062 739 1094 706 q 985 792 1029 772 q 893 811 942 811 l 283 811 l 283 0 l 135 0 l 135 961 l 890 961 z "},"p":{"ha":1543,"x_min":143,"x_max":1411,"o":"m 294 0 l 143 0 l 143 961 l 1106 961 q 1222 938 1167 961 q 1319 873 1278 914 q 1386 778 1361 832 q 1411 663 1411 724 q 1385 546 1411 600 q 1317 451 1360 492 q 1217 387 1274 410 q 1099 364 1160 364 l 294 364 l 294 0 m 1101 513 q 1162 524 1133 513 q 1212 556 1190 536 q 1247 603 1233 576 q 1263 663 1261 631 q 1247 720 1261 693 q 1211 767 1233 747 q 1160 799 1189 788 q 1099 811 1131 811 l 294 811 l 294 513 l 1101 513 z "},"q":{"ha":1733,"x_min":136,"x_max":1581,"o":"m 779 -193 l 779 0 l 526 0 q 375 31 446 0 q 251 115 304 61 q 167 239 197 168 q 136 390 136 310 l 136 568 q 167 720 136 649 q 251 844 197 792 q 375 928 304 897 q 526 960 446 960 l 1188 960 q 1340 928 1268 960 q 1465 844 1413 897 q 1549 720 1518 792 q 1581 568 1581 649 l 1581 390 q 1549 239 1581 310 q 1465 115 1518 168 q 1340 31 1413 61 q 1188 0 1268 0 l 928 0 l 928 -193 l 779 -193 m 285 390 q 304 297 285 340 q 356 220 324 253 q 433 168 389 188 q 526 149 476 149 l 779 149 l 779 325 l 928 325 l 928 149 l 1188 149 q 1282 168 1238 149 q 1360 220 1326 188 q 1412 297 1393 253 q 1431 390 1431 340 l 1431 568 q 1412 662 1431 618 q 1360 738 1393 706 q 1282 790 1326 771 q 1188 810 1238 810 l 526 810 q 433 790 476 810 q 356 738 389 771 q 304 662 324 706 q 285 568 285 618 l 285 390 z "},"r":{"ha":1236,"x_min":138,"x_max":1214,"o":"m 138 0 l 138 568 q 168 720 138 649 q 251 844 199 792 q 375 928 304 897 q 528 960 446 960 l 1214 960 l 1214 810 l 528 810 q 434 791 478 810 q 358 739 390 772 q 306 662 325 706 q 286 568 286 618 l 286 0 l 138 0 z "},"s":{"ha":1414,"x_min":74,"x_max":1297,"o":"m 124 0 l 124 153 l 1019 153 q 1069 163 1046 153 q 1108 190 1092 172 q 1135 230 1125 207 q 1144 279 1144 253 q 1108 369 1144 332 q 1019 406 1072 406 l 353 406 q 245 427 296 406 q 156 487 194 449 q 96 576 118 525 q 74 685 74 626 q 95 794 74 743 q 155 883 117 844 q 244 943 193 921 q 353 965 294 965 l 1247 965 l 1247 814 l 353 814 q 265 777 299 814 q 226 689 231 740 q 266 596 231 633 q 353 558 301 558 l 1019 558 q 1127 536 1076 558 q 1215 476 1178 514 q 1275 388 1253 439 q 1297 281 1297 338 q 1276 171 1297 222 q 1217 82 1254 119 q 1128 22 1179 44 q 1019 0 1078 0 l 124 0 z "},"t":{"ha":1449,"x_min":139,"x_max":1307,"o":"m 1139 663 l 288 663 l 288 392 q 306 297 288 342 q 358 220 325 253 q 434 168 390 188 q 529 149 478 149 l 1307 149 l 1307 0 l 529 0 q 378 31 449 0 q 253 115 307 61 q 169 240 200 168 q 139 392 139 311 l 139 961 l 288 961 l 288 813 l 1139 813 l 1139 663 z "},"u":{"ha":1432,"x_min":140,"x_max":1286,"o":"m 531 0 q 379 31 450 0 q 255 115 308 63 q 171 240 201 168 q 140 392 140 311 l 140 961 l 289 961 l 289 392 q 308 299 289 343 q 359 221 326 254 q 435 168 392 188 q 528 149 479 149 l 1138 149 l 1138 961 l 1286 961 l 1286 0 l 531 0 z "},"v":{"ha":1628,"x_min":24,"x_max":1536,"o":"m 736 0 l 24 961 l 210 961 l 775 193 q 1062 577 918 379 q 1347 961 1206 775 l 1536 961 l 815 0 l 736 0 z "},"w":{"ha":2094,"x_min":143,"x_max":1921,"o":"m 533 0 q 382 31 453 0 q 258 115 311 63 q 174 240 204 168 q 143 392 143 311 l 143 961 l 292 961 l 292 392 q 310 299 292 343 q 362 221 329 254 q 438 168 394 188 q 531 149 482 149 l 999 149 l 999 961 l 1149 961 l 1149 149 l 1772 149 l 1772 961 l 1921 961 l 1921 0 l 533 0 l 533 0 z "},"x":{"ha":1413,"x_min":139,"x_max":1311,"o":"m 1193 444 q 1280 317 1249 389 q 1311 161 1311 244 l 1311 0 l 1158 0 l 1158 161 q 1139 256 1158 211 q 1086 335 1119 301 q 1008 389 1053 369 q 913 408 964 408 l 538 408 q 443 389 488 408 q 365 336 399 369 q 311 258 331 303 q 292 164 292 214 l 292 0 l 139 0 l 139 161 q 170 317 139 244 q 257 444 201 389 q 280 466 268 456 q 303 485 292 476 q 256 525 275 506 l 257 525 q 170 653 201 581 q 139 808 139 725 l 139 963 l 292 963 l 292 808 q 311 713 292 758 q 364 634 331 668 q 442 581 397 600 q 538 561 486 561 l 922 561 q 1014 581 971 561 q 1089 635 1057 601 q 1140 713 1121 668 q 1158 806 1158 757 l 1158 963 l 1311 963 l 1311 808 q 1280 653 1311 725 q 1193 525 1249 581 q 1169 503 1181 514 q 1146 483 1158 493 q 1172 465 1161 474 q 1193 446 1182 456 l 1193 444 z "},"y":{"ha":1413,"x_min":138,"x_max":1283,"o":"m 1283 961 l 1283 390 q 1253 239 1283 310 q 1169 115 1222 168 q 1045 31 1117 61 q 893 0 974 0 l 207 0 l 207 149 l 893 149 q 985 167 942 149 q 1062 218 1029 186 q 1114 294 1094 250 q 1135 386 1133 338 l 528 386 q 376 417 447 386 q 252 501 306 449 q 168 626 199 554 q 138 778 138 697 l 138 961 l 286 961 l 286 778 q 305 685 286 729 q 356 607 324 640 q 433 554 389 574 q 525 535 476 535 l 1135 535 l 1135 961 l 1283 961 z "},"z":{"ha":1571,"x_min":139,"x_max":1435,"o":"m 139 0 l 139 139 l 1133 813 l 142 813 l 142 963 l 1435 963 l 1435 831 l 426 149 l 1417 149 l 1417 0 l 139 0 z "},"{":{"ha":869,"x_min":0,"x_max":0,"o":""},"|":{"ha":590,"x_min":217,"x_max":351,"o":"m 217 1015 l 351 1015 l 351 -64 l 217 -64 l 217 1015 z "},"}":{"ha":869,"x_min":0,"x_max":0,"o":""},"~":{"ha":979,"x_min":138,"x_max":936,"o":"m 781 615 q 717 625 751 615 q 650 651 682 635 q 500 727 578 688 q 349 804 422 767 q 299 819 318 819 q 292 815 296 819 q 288 789 288 810 l 288 638 l 138 638 l 138 781 q 182 914 138 867 q 293 958 224 958 q 357 949 324 958 q 424 924 390 939 l 725 771 q 775 753 756 753 q 783 758 779 753 q 786 783 786 764 l 786 936 l 936 936 l 936 792 q 892 660 936 707 q 781 615 851 615 z "},"¡":{"ha":540,"x_min":222,"x_max":318,"o":"m 222 0 l 222 681 l 318 681 l 318 0 l 222 0 m 222 800 l 222 972 l 318 972 l 318 800 l 222 800 z "},"£":{"ha":1564,"x_min":163,"x_max":1371,"o":"m 1371 149 l 1371 0 l 163 0 l 163 149 q 237 153 208 149 q 281 170 265 157 q 303 208 297 183 q 310 274 308 233 l 185 274 l 185 424 l 310 424 l 310 442 l 185 442 l 185 589 l 310 589 q 346 733 314 665 q 431 851 378 801 q 553 931 483 901 q 701 960 622 960 l 1339 960 l 1339 811 l 701 811 q 612 794 654 811 q 537 747 569 776 q 483 676 504 717 q 458 589 463 635 l 1150 589 l 1150 442 l 458 442 l 458 424 l 1150 424 l 1150 274 l 458 274 q 442 149 458 199 l 1371 149 z "},"⁄":{"ha":1086,"x_min":42,"x_max":1044,"o":"m 940 972 l 1044 972 l 146 0 l 42 0 l 940 972 z "},"'":{"ha":358,"x_min":126,"x_max":261,"o":"m 126 614 l 126 951 l 261 951 l 261 614 l 126 614 z "},"“":{"ha":693,"x_min":124,"x_max":610,"o":"m 447 711 l 356 1049 l 517 1049 l 610 711 l 447 711 m 217 711 l 124 1049 l 286 1049 l 378 711 l 217 711 z "},"ﬁ":{"ha":1638,"x_min":140,"x_max":1547,"o":"m 365 738 q 313 659 332 704 q 293 563 293 614 l 293 553 l 1275 553 l 1275 401 l 293 401 l 293 0 l 140 0 l 140 563 q 172 718 140 646 q 257 844 203 790 q 385 931 313 900 q 540 963 457 963 l 1333 963 l 1333 811 l 540 811 q 443 791 488 811 q 365 738 399 771 m 1394 0 l 1394 963 l 1547 963 l 1547 0 l 1394 0 z "},"–":{"ha":1333,"x_min":142,"x_max":1211,"o":"m 142 547 l 1211 547 l 1211 419 l 142 419 l 142 547 z "},"†":{"ha":715,"x_min":0,"x_max":0,"o":""},"‡":{"ha":715,"x_min":0,"x_max":0,"o":""},"·":{"ha":406,"x_min":139,"x_max":267,"o":"m 139 404 l 139 528 l 267 528 l 267 404 l 139 404 z "},"•":{"ha":653,"x_min":142,"x_max":592,"o":"m 142 476 q 159 563 142 522 q 207 635 176 604 q 278 683 238 665 q 367 701 319 701 q 455 683 414 701 q 526 635 496 665 q 574 563 557 604 q 592 476 592 522 q 574 388 592 429 q 526 317 557 347 q 455 269 496 286 q 367 251 414 251 q 278 269 319 251 q 207 317 238 286 q 159 388 176 347 q 142 476 142 429 m 367 590 q 286 557 319 590 q 253 476 253 524 q 286 394 253 428 q 367 361 319 361 q 449 394 415 361 q 482 476 482 428 q 449 557 482 524 q 367 590 415 590 z "},"‚":{"ha":389,"x_min":90,"x_max":311,"o":"m 90 -147 l 175 165 l 311 165 l 226 -147 l 90 -147 z "},"„":{"ha":708,"x_min":138,"x_max":600,"o":"m 138 -147 l 224 165 l 360 165 l 275 -147 l 138 -147 m 378 -147 l 464 165 l 600 165 l 515 -147 l 378 -147 z "},"”":{"ha":682,"x_min":124,"x_max":610,"o":"m 124 700 l 217 1038 l 378 1038 l 286 700 l 124 700 m 356 700 l 447 1038 l 610 1038 l 517 700 l 356 700 z "},"…":{"ha":1078,"x_min":138,"x_max":956,"o":"m 138 0 l 138 165 l 307 165 l 307 0 l 138 0 m 463 0 l 463 165 l 632 165 l 632 0 l 463 0 m 786 0 l 786 165 l 956 165 l 956 0 l 786 0 z "},"‰":{"ha":2307,"x_min":99,"x_max":2183,"o":"m 393 -15 l 1028 983 l 1146 983 l 511 -15 l 393 -15 m 1254 0 l 1014 0 q 933 16 971 0 q 868 60 896 32 q 824 126 840 88 q 807 207 807 164 l 807 228 q 823 308 807 271 q 867 374 839 346 q 933 419 896 403 q 1014 436 971 436 l 1254 436 q 1335 419 1297 436 q 1400 375 1372 403 q 1444 309 1428 347 q 1461 228 1461 271 l 1461 207 q 1445 127 1461 165 q 1401 61 1429 89 q 1335 17 1372 33 q 1254 0 1297 0 m 935 307 q 911 272 919 292 q 903 228 903 251 l 903 207 q 935 128 903 161 q 1014 96 968 96 l 1254 96 q 1333 128 1300 96 q 1365 207 1365 161 l 1365 228 q 1333 308 1365 275 q 1254 340 1300 340 l 1014 340 q 935 307 968 340 m 546 533 l 306 533 q 225 549 263 533 q 160 593 188 565 q 115 659 132 621 q 99 740 99 697 l 99 761 q 115 842 99 804 q 159 908 131 879 q 225 953 188 936 q 306 969 263 969 l 546 969 q 626 953 589 969 q 692 908 664 936 q 736 842 719 881 q 753 761 753 804 l 753 740 q 737 660 753 699 q 692 594 721 622 q 626 550 664 567 q 546 533 589 533 m 226 840 q 203 805 211 825 q 194 761 194 785 l 194 740 q 227 662 194 694 q 306 629 260 629 l 546 629 q 624 662 592 629 q 657 740 657 694 l 657 761 q 624 841 657 808 q 546 874 592 874 l 306 874 q 226 840 260 874 m 1976 0 l 1736 0 q 1656 16 1693 0 q 1590 60 1618 32 q 1546 126 1563 88 q 1529 207 1529 164 l 1529 228 q 1545 308 1529 271 q 1590 374 1561 346 q 1656 419 1618 403 q 1736 436 1693 436 l 1976 436 q 2057 419 2019 436 q 2122 375 2094 403 q 2167 309 2150 347 q 2183 228 2183 271 l 2183 207 q 2167 127 2183 165 q 2123 61 2151 89 q 2057 17 2094 33 q 1976 0 2019 0 m 1657 307 q 1633 272 1642 292 q 1625 228 1625 251 l 1625 207 q 1658 128 1625 161 q 1736 96 1690 96 l 1976 96 q 2055 128 2022 96 q 2088 207 2088 161 l 2088 228 q 2055 308 2088 275 q 1976 340 2022 340 l 1736 340 q 1657 307 1690 340 z "},"¿":{"ha":1438,"x_min":147,"x_max":1307,"o":"m 296 357 q 301 374 296 368 q 313 383 306 381 q 331 389 319 388 l 694 389 q 746 394 708 389 q 823 420 783 399 q 893 488 863 442 q 924 615 924 533 l 924 767 l 775 767 l 775 615 q 774 597 775 610 q 765 572 772 585 q 741 548 757 558 q 696 538 725 538 l 324 538 q 235 514 274 533 q 174 463 201 497 q 147 367 147 429 l 147 265 q 179 142 147 186 q 253 77 211 99 q 333 51 294 56 q 383 46 371 46 l 1078 46 q 1112 48 1090 46 q 1159 57 1133 50 q 1211 78 1185 64 q 1259 117 1238 93 q 1294 178 1281 142 q 1307 265 1307 214 l 1307 406 l 1158 406 l 1158 265 q 1156 249 1158 260 q 1146 226 1154 238 q 1119 205 1138 214 q 1071 196 1101 196 l 383 196 q 334 205 351 196 q 308 225 317 214 q 298 247 300 236 q 296 263 296 258 l 296 357 m 924 990 l 924 843 l 775 843 l 775 990 l 924 990 z "},"`":{"ha":724,"x_min":185,"x_max":569,"o":"m 290 1376 l 569 1099 l 465 993 l 185 1272 l 290 1376 z "},"´":{"ha":724,"x_min":193,"x_max":579,"o":"m 579 1203 l 299 924 l 193 1029 l 474 1307 l 579 1203 z "},"ˆ":{"ha":1089,"x_min":121,"x_max":1001,"o":"m 561 1222 l 167 1035 l 121 1131 l 561 1339 l 1001 1131 l 956 1035 l 561 1222 z "},"˜":{"ha":921,"x_min":158,"x_max":885,"o":"m 742 963 q 682 970 713 963 q 621 994 651 978 l 622 994 q 486 1064 554 1029 q 350 1132 418 1099 q 326 1142 336 1139 q 307 1144 315 1144 q 301 1142 304 1144 q 299 1122 299 1139 l 299 982 l 158 982 l 158 1124 q 169 1194 158 1164 q 199 1246 179 1225 q 301 1285 240 1285 q 419 1253 360 1285 q 556 1185 486 1221 q 692 1115 625 1149 q 735 1101 719 1101 q 740 1106 738 1101 q 743 1125 743 1110 l 743 1265 l 885 1265 l 885 1124 q 842 1003 885 1046 l 843 1003 q 742 963 804 963 z "},"¯":{"ha":914,"x_min":139,"x_max":782,"o":"m 139 1163 l 782 1163 l 782 1057 l 139 1057 l 139 1163 z "},"˘":{"ha":953,"x_min":214,"x_max":810,"o":"m 342 1178 q 359 1133 342 1151 q 403 1115 376 1115 l 619 1115 q 663 1133 644 1115 q 682 1178 682 1151 l 682 1219 l 810 1219 l 810 1178 q 795 1105 810 1139 q 754 1045 781 1071 q 693 1004 728 1019 q 619 989 658 989 l 403 989 q 269 1043 326 989 q 228 1104 243 1069 q 214 1178 214 1139 l 214 1219 l 342 1219 l 342 1178 z "},"˙":{"ha":461,"x_min":139,"x_max":322,"o":"m 139 1253 l 322 1253 l 322 1101 l 139 1101 l 139 1253 z "},"¨":{"ha":824,"x_min":136,"x_max":671,"o":"m 136 1015 l 136 1183 l 297 1183 l 297 1015 l 136 1015 m 508 1015 l 508 1183 l 671 1183 l 671 1015 l 508 1015 z "},"˚":{"ha":757,"x_min":129,"x_max":699,"o":"m 318 994 q 185 1050 240 994 q 144 1110 158 1076 q 129 1183 129 1144 l 129 1201 q 144 1275 129 1240 q 184 1335 158 1310 q 244 1376 210 1361 q 318 1392 279 1392 l 508 1392 q 582 1376 547 1392 q 642 1335 617 1361 q 683 1275 668 1310 q 699 1201 699 1240 l 699 1183 q 684 1110 699 1144 q 643 1051 669 1076 q 582 1010 617 1025 q 508 994 547 994 l 318 994 m 275 1246 q 257 1201 257 1228 l 257 1183 q 274 1140 257 1157 q 318 1122 292 1122 l 508 1122 q 553 1140 535 1122 q 572 1183 572 1157 l 572 1201 q 553 1246 572 1228 q 508 1264 535 1264 l 318 1264 q 293 1258 304 1264 q 275 1246 282 1253 z "},"¸":{"ha":663,"x_min":136,"x_max":488,"o":"m 136 -358 l 136 -215 l 292 -215 q 330 -198 315 -215 q 344 -158 344 -181 l 344 1 l 488 1 l 488 -158 q 472 -233 488 -197 q 428 -297 456 -269 q 365 -342 401 -325 q 288 -358 329 -358 l 136 -358 z "},"˝":{"ha":1072,"x_min":288,"x_max":932,"o":"m 626 1256 l 363 993 l 288 1068 l 551 1331 l 626 1256 m 932 1256 l 668 993 l 593 1068 l 857 1331 l 932 1256 z "},"˛":{"ha":663,"x_min":139,"x_max":565,"o":"m 294 -278 q 238 -267 265 -278 q 188 -239 210 -257 q 152 -195 165 -221 q 139 -139 139 -169 l 139 -136 q 161 -48 139 -89 q 219 21 183 -7 l 250 49 l 403 49 l 288 -61 q 259 -94 272 -76 q 246 -129 246 -111 q 250 -146 246 -137 q 269 -165 258 -161 q 299 -171 281 -168 l 565 -171 l 565 -278 l 294 -278 z "},"ˇ":{"ha":1089,"x_min":121,"x_max":1001,"o":"m 956 1339 l 1001 1243 l 561 1035 l 121 1243 l 167 1339 l 561 1151 l 956 1339 z "},"—":{"ha":1707,"x_min":150,"x_max":1575,"o":"m 150 547 l 1575 547 l 1575 419 l 150 419 l 150 547 z "},"Ł":{"ha":1435,"x_min":-53,"x_max":1463,"o":"m 1463 106 l 1463 0 l 651 0 q 498 31 569 0 q 372 117 426 63 q 295 225 325 164 q 258 357 265 286 l 0 208 l -53 300 l 257 476 l 257 963 l 363 963 l 363 538 l 721 743 l 774 651 l 363 417 l 363 396 q 385 283 363 335 q 447 192 407 231 q 540 128 488 151 q 651 106 592 106 l 1463 106 z "},"Ø":{"ha":1756,"x_min":142,"x_max":1617,"o":"m 1217 967 q 1373 935 1300 967 q 1500 850 1446 904 q 1585 723 1554 796 q 1617 568 1617 650 l 1617 401 q 1585 245 1617 318 q 1500 118 1554 172 q 1373 33 1446 64 q 1217 1 1300 1 l 542 1 q 385 33 458 1 q 258 118 313 64 q 173 245 204 172 q 142 401 142 318 l 142 568 q 173 723 142 650 q 258 850 204 796 q 385 935 313 904 q 542 967 458 967 l 1217 967 m 294 401 q 304 331 294 365 q 332 269 314 297 l 1296 803 q 1258 813 1276 810 q 1217 815 1240 815 l 542 815 q 445 796 490 815 q 367 742 400 776 q 314 663 333 708 q 294 568 294 618 l 294 401 m 1465 568 q 1452 642 1465 604 q 1419 710 1439 681 l 447 172 q 542 154 489 154 l 1217 154 q 1313 174 1268 154 q 1392 226 1358 193 q 1445 305 1425 260 q 1465 401 1465 350 l 1465 568 z "},"Œ":{"ha":2649,"x_min":142,"x_max":2436,"o":"m 1486 554 l 2436 554 l 2436 401 l 1486 401 l 1486 392 q 1506 298 1486 342 q 1560 221 1526 254 q 1639 169 1594 188 q 1733 150 1683 150 l 2436 150 l 2436 -3 l 1733 -3 q 1549 42 1633 -3 q 1410 163 1464 86 q 1271 42 1356 86 q 1086 -3 1186 -3 l 542 -3 q 385 29 458 -3 q 258 115 313 61 q 173 242 204 169 q 142 397 142 315 l 142 564 q 173 719 142 647 q 258 846 204 792 q 385 931 313 900 q 542 963 458 963 l 1086 963 q 1271 917 1186 963 q 1410 796 1356 871 q 1474 860 1438 829 q 1553 913 1511 890 q 1642 948 1596 935 q 1733 961 1688 961 l 2436 961 l 2436 808 l 1733 808 q 1637 789 1682 808 q 1558 736 1592 769 q 1506 659 1525 703 q 1486 567 1488 615 l 1486 554 m 1333 564 q 1314 659 1333 614 q 1261 738 1294 704 q 1183 792 1228 772 q 1086 811 1138 811 l 542 811 q 447 792 492 811 q 367 738 401 772 q 314 659 333 704 q 294 564 294 614 l 294 397 q 314 301 294 346 q 367 222 333 256 q 447 169 401 189 q 542 150 492 150 l 1086 150 q 1183 169 1138 150 q 1261 222 1228 189 q 1314 301 1294 256 q 1333 397 1333 346 l 1333 564 z "},"æ":{"ha":2583,"x_min":146,"x_max":2414,"o":"m 1342 251 q 1398 172 1350 197 q 1506 147 1446 147 l 2346 147 l 2346 -1 l 1499 -1 q 1418 7 1458 -1 q 1342 35 1378 15 l 1342 0 l 457 0 q 368 14 411 0 q 288 51 325 28 q 220 108 250 75 q 172 181 190 142 q 146 297 146 238 q 171 414 146 360 q 238 509 196 468 q 335 573 279 550 q 451 596 390 596 l 1193 596 l 1193 631 q 1179 694 1193 664 q 1143 746 1165 724 q 1091 781 1121 768 q 1028 793 1061 793 l 356 793 l 356 943 l 1028 943 q 1161 913 1100 943 q 1265 833 1222 882 q 1372 912 1310 883 q 1506 940 1435 940 l 2107 940 q 2225 917 2169 940 q 2322 853 2281 893 q 2389 758 2364 813 q 2414 642 2414 704 q 2389 525 2414 579 q 2321 430 2364 471 q 2221 366 2278 389 q 2101 343 2164 343 l 1342 343 l 1342 251 m 1342 493 l 2107 493 q 2167 505 2138 493 q 2217 536 2196 517 q 2252 583 2239 556 q 2265 642 2265 610 q 2252 701 2265 674 q 2216 748 2239 728 q 2163 779 2193 768 q 2101 790 2133 790 l 1506 790 q 1452 779 1481 790 q 1399 749 1424 768 q 1358 703 1375 731 q 1342 646 1342 676 l 1342 493 m 1193 446 l 457 446 q 365 419 407 446 q 314 367 333 399 q 294 297 294 336 q 308 238 294 265 q 342 192 321 211 q 392 160 364 172 q 451 149 419 149 l 1193 149 l 1193 446 z "},"ı":{"ha":335,"x_min":122,"x_max":275,"o":"m 122 0 l 122 963 l 275 963 l 275 0 l 122 0 z "},"ł":{"ha":1485,"x_min":-53,"x_max":1463,"o":"m 1463 106 l 1463 0 l 651 0 q 498 31 569 0 q 372 117 426 63 q 295 225 325 164 q 258 357 265 286 l 0 208 l -53 300 l 257 476 l 257 963 l 363 963 l 363 538 l 721 743 l 774 651 l 363 417 l 363 396 q 385 283 363 335 q 447 192 407 231 q 540 128 488 151 q 651 106 592 106 l 1463 106 z "},"ø":{"ha":1756,"x_min":142,"x_max":1617,"o":"m 1217 967 q 1373 935 1300 967 q 1500 850 1446 904 q 1585 723 1554 796 q 1617 568 1617 650 l 1617 401 q 1585 245 1617 318 q 1500 118 1554 172 q 1373 33 1446 64 q 1217 1 1300 1 l 542 1 q 385 33 458 1 q 258 118 313 64 q 173 245 204 172 q 142 401 142 318 l 142 568 q 173 723 142 650 q 258 850 204 796 q 385 935 313 904 q 542 967 458 967 l 1217 967 m 294 401 q 304 331 294 365 q 332 269 314 297 l 1296 803 q 1258 813 1276 810 q 1217 815 1240 815 l 542 815 q 445 796 490 815 q 367 742 400 776 q 314 663 333 708 q 294 568 294 618 l 294 401 m 1465 568 q 1452 642 1465 604 q 1419 710 1439 681 l 447 172 q 542 154 489 154 l 1217 154 q 1313 174 1268 154 q 1392 226 1358 193 q 1445 305 1425 260 q 1465 401 1465 350 l 1465 568 z "},"œ":{"ha":2801,"x_min":154,"x_max":2517,"o":"m 1444 251 q 1463 206 1449 225 q 1500 174 1478 186 q 1550 155 1522 161 q 1607 149 1578 149 l 2449 149 l 2449 0 l 1601 0 q 1454 32 1526 0 q 1338 124 1382 64 q 1210 33 1283 67 q 1051 0 1136 0 l 546 0 q 393 31 464 0 q 269 115 322 61 q 185 239 215 168 q 154 390 154 310 l 154 571 q 185 723 154 651 q 269 848 215 794 q 393 932 322 901 q 546 963 464 963 l 1051 963 q 1217 926 1140 963 q 1346 826 1293 889 q 1459 922 1390 886 q 1607 958 1528 958 l 2210 958 q 2326 935 2271 958 q 2424 871 2382 911 q 2492 776 2467 831 q 2517 660 2517 722 q 2491 543 2517 597 q 2423 449 2465 489 q 2324 387 2381 410 q 2204 364 2267 364 l 1444 364 l 1444 251 m 1444 514 l 2210 514 q 2269 525 2240 514 q 2320 556 2299 536 q 2355 601 2342 575 q 2368 660 2368 628 q 2355 719 2368 692 q 2319 767 2342 747 q 2266 799 2296 788 q 2204 810 2236 810 l 1607 810 q 1553 799 1582 810 q 1501 768 1525 788 q 1460 722 1476 749 q 1444 664 1444 694 l 1444 514 m 1294 571 q 1276 665 1294 621 q 1224 742 1257 708 q 1146 794 1190 775 q 1051 813 1101 813 l 546 813 q 451 794 496 813 q 374 742 407 775 q 322 665 342 708 q 303 571 303 621 l 303 390 q 322 297 303 340 q 374 220 342 253 q 451 168 407 188 q 546 149 496 149 l 1051 149 q 1146 168 1101 149 q 1224 220 1190 188 q 1276 297 1257 253 q 1294 390 1294 340 l 1294 571 z "},"ß":{"ha":3039,"x_min":0,"x_max":0,"o":""},"Ð":{"ha":1713,"x_min":76,"x_max":1569,"o":"m 1171 963 q 1326 931 1254 963 q 1453 844 1399 899 q 1538 718 1507 790 q 1569 564 1569 646 l 1569 400 q 1538 244 1569 317 q 1451 117 1506 171 q 1325 31 1397 63 q 1171 0 1253 0 l 331 0 l 331 406 l 76 406 l 76 558 l 331 558 l 331 963 l 1171 963 m 1417 567 q 1397 661 1417 617 q 1344 739 1378 706 q 1265 792 1310 772 q 1171 811 1221 811 l 483 811 l 483 558 l 806 558 l 806 406 l 483 406 l 483 153 l 1172 153 q 1267 172 1222 153 q 1344 225 1311 192 q 1397 303 1378 258 q 1417 400 1417 349 l 1417 567 z "},"½":{"ha":1556,"x_min":0,"x_max":0,"o":""},"Þ":{"ha":1576,"x_min":0,"x_max":0,"o":""},"¼":{"ha":1539,"x_min":0,"x_max":0,"o":""},"¾":{"ha":1761,"x_min":0,"x_max":0,"o":""},"²":{"ha":821,"x_min":0,"x_max":0,"o":""},"ð":{"ha":1713,"x_min":58,"x_max":1519,"o":"m 1128 963 q 1280 931 1208 963 q 1405 847 1351 900 q 1489 722 1458 793 q 1519 571 1519 651 l 1519 390 q 1488 239 1519 310 q 1403 115 1457 168 q 1279 31 1350 61 q 1128 0 1208 0 l 307 0 l 307 411 l 58 411 l 58 561 l 307 561 l 307 963 l 1128 963 m 1369 574 q 1350 667 1369 624 q 1298 742 1331 710 q 1222 794 1265 775 q 1128 813 1178 813 l 456 813 l 456 561 l 771 561 l 771 411 l 456 411 l 456 149 l 1131 149 q 1223 168 1179 149 q 1299 220 1267 188 q 1351 297 1332 253 q 1369 390 1369 340 l 1369 574 z "},"³":{"ha":821,"x_min":0,"x_max":0,"o":""},"©":{"ha":1694,"x_min":0,"x_max":0,"o":""},"Á":{"ha":1489,"x_min":139,"x_max":1382,"o":"m 949 1301 l 668 1022 l 563 1128 l 843 1406 l 949 1301 m 1264 846 q 1350 718 1318 790 q 1382 564 1382 646 l 1382 0 l 1229 0 l 1229 418 l 290 418 l 290 0 l 139 0 l 139 564 q 171 719 139 647 q 257 846 203 792 q 383 931 311 900 q 538 963 456 963 l 982 963 q 1136 931 1064 963 q 1264 846 1208 900 m 535 811 q 442 792 486 811 q 365 740 399 772 q 312 663 332 707 q 290 571 292 619 l 1229 571 q 1208 663 1228 619 q 1154 740 1188 707 q 1076 792 1121 772 q 982 811 1032 811 l 535 811 z "},"Â":{"ha":1489,"x_min":139,"x_max":1382,"o":"m 761 1185 l 367 997 l 321 1093 l 761 1301 l 1201 1093 l 1156 997 l 761 1185 m 1264 846 q 1350 718 1318 790 q 1382 564 1382 646 l 1382 0 l 1229 0 l 1229 418 l 290 418 l 290 0 l 139 0 l 139 564 q 171 719 139 647 q 257 846 203 792 q 383 931 311 900 q 538 963 456 963 l 982 963 q 1136 931 1064 963 q 1264 846 1208 900 m 535 811 q 442 792 486 811 q 365 740 399 772 q 312 663 332 707 q 290 571 292 619 l 1229 571 q 1208 663 1228 619 q 1154 740 1188 707 q 1076 792 1121 772 q 982 811 1032 811 l 535 811 z "},"Ä":{"ha":1494,"x_min":139,"x_max":1382,"o":"m 1264 846 q 1350 718 1318 790 q 1382 564 1382 646 l 1382 0 l 1229 0 l 1229 418 l 290 418 l 290 0 l 139 0 l 139 564 q 171 719 139 647 q 257 846 203 792 q 383 931 311 900 q 538 963 456 963 l 982 963 q 1136 931 1064 963 q 1264 846 1208 900 m 535 811 q 442 792 486 811 q 365 740 399 772 q 312 663 332 707 q 290 571 292 619 l 1229 571 q 1208 663 1228 619 q 1154 740 1188 707 q 1076 792 1121 772 q 982 811 1032 811 l 535 811 m 510 1015 l 510 1183 l 671 1183 l 671 1015 l 510 1015 m 882 1015 l 882 1183 l 1044 1183 l 1044 1015 l 882 1015 z "},"À":{"ha":1489,"x_min":139,"x_max":1382,"o":"m 632 1379 l 911 1101 l 807 996 l 526 1275 l 632 1379 m 1264 846 q 1350 718 1318 790 q 1382 564 1382 646 l 1382 0 l 1229 0 l 1229 418 l 290 418 l 290 0 l 139 0 l 139 564 q 171 719 139 647 q 257 846 203 792 q 383 931 311 900 q 538 963 456 963 l 982 963 q 1136 931 1064 963 q 1264 846 1208 900 m 535 811 q 442 792 486 811 q 365 740 399 772 q 312 663 332 707 q 290 571 292 619 l 1229 571 q 1208 663 1228 619 q 1154 740 1188 707 q 1076 792 1121 772 q 982 811 1032 811 l 535 811 z "},"Å":{"ha":1488,"x_min":139,"x_max":1382,"o":"m 1264 846 q 1350 718 1318 790 q 1382 564 1382 646 l 1382 0 l 1229 0 l 1229 418 l 290 418 l 290 0 l 139 0 l 139 564 q 171 719 139 647 q 257 846 203 792 q 383 931 311 900 q 538 963 456 963 l 982 963 q 1136 931 1064 963 q 1264 846 1208 900 m 535 811 q 442 792 486 811 q 365 740 399 772 q 312 663 332 707 q 290 571 292 619 l 1229 571 q 1208 663 1228 619 q 1154 740 1188 707 q 1076 792 1121 772 q 982 811 1032 811 l 535 811 m 668 1028 q 551 1078 600 1028 q 514 1131 527 1101 q 502 1196 502 1161 l 502 1212 q 514 1277 502 1246 q 550 1330 527 1307 q 603 1366 573 1353 q 668 1380 634 1380 l 837 1380 q 902 1366 871 1380 q 955 1330 932 1353 q 991 1277 978 1307 q 1005 1212 1005 1246 l 1005 1196 q 992 1131 1005 1161 q 956 1078 979 1101 q 902 1042 932 1055 q 837 1028 871 1028 l 668 1028 m 630 1251 q 614 1212 614 1235 l 614 1196 q 630 1157 614 1172 q 668 1142 645 1142 l 837 1142 q 876 1157 860 1142 q 893 1196 893 1172 l 893 1212 q 876 1251 893 1235 q 837 1267 860 1267 l 668 1267 q 646 1262 656 1267 q 630 1251 637 1257 z "},"Ã":{"ha":1489,"x_min":139,"x_max":1382,"o":"m 975 990 q 915 998 946 990 q 854 1022 885 1006 l 856 1022 q 719 1092 788 1057 q 583 1160 651 1126 q 559 1169 569 1167 q 540 1172 549 1172 q 535 1169 538 1172 q 532 1150 532 1167 l 532 1010 l 392 1010 l 392 1151 q 402 1222 392 1192 q 432 1274 413 1253 q 535 1313 474 1313 q 653 1281 593 1313 q 789 1213 719 1249 q 925 1143 858 1176 q 968 1129 953 1129 q 974 1133 971 1129 q 976 1153 976 1138 l 976 1293 l 1118 1293 l 1118 1151 q 1075 1031 1118 1074 l 1076 1031 q 975 990 1038 990 m 1264 846 q 1350 718 1318 790 q 1382 564 1382 646 l 1382 0 l 1229 0 l 1229 418 l 290 418 l 290 0 l 139 0 l 139 564 q 171 719 139 647 q 257 846 203 792 q 383 931 311 900 q 538 963 456 963 l 982 963 q 1136 931 1064 963 q 1264 846 1208 900 m 535 811 q 442 792 486 811 q 365 740 399 772 q 312 663 332 707 q 290 571 292 619 l 1229 571 q 1208 663 1228 619 q 1154 740 1188 707 q 1076 792 1121 772 q 982 811 1032 811 l 535 811 z "},"Ç":{"ha":1588,"x_min":139,"x_max":1333,"o":"m 560 -356 l 560 -212 l 715 -212 q 753 -195 739 -212 q 768 -156 768 -178 l 768 4 l 911 4 l 911 -156 q 895 -231 911 -194 q 852 -294 879 -267 q 789 -339 825 -322 q 711 -356 753 -356 l 560 -356 m 257 117 q 170 244 201 172 q 139 400 139 317 l 139 564 q 171 719 139 646 q 257 846 203 792 q 384 931 311 900 q 540 963 457 963 l 1333 963 l 1333 811 l 540 811 q 444 792 489 811 q 365 738 399 772 q 312 659 332 704 q 292 564 292 614 l 292 400 q 311 305 292 350 q 364 226 331 260 q 442 172 397 192 q 538 153 486 153 l 1333 153 l 1333 0 l 540 0 q 384 31 457 0 q 257 117 311 63 z "},"É":{"ha":1468,"x_min":140,"x_max":1335,"o":"m 1021 1206 l 740 926 l 635 1032 l 915 1310 l 1021 1206 m 365 739 q 313 660 332 704 q 293 564 293 615 l 293 557 l 1335 557 l 1335 404 l 293 404 l 293 397 q 313 303 293 347 q 366 225 332 258 q 445 172 400 192 q 540 153 490 153 l 1335 153 l 1335 0 l 540 0 q 384 32 457 0 q 257 118 311 64 q 172 245 203 172 q 140 400 140 318 l 140 564 q 172 719 140 647 q 258 846 204 792 q 385 931 313 900 q 540 963 458 963 l 1335 963 l 1335 811 l 540 811 q 443 792 488 811 q 365 739 399 772 z "},"Ê":{"ha":1468,"x_min":140,"x_max":1335,"o":"m 818 1225 l 424 1038 l 378 1133 l 818 1342 l 1258 1133 l 1213 1038 l 818 1225 m 365 739 q 313 660 332 704 q 293 564 293 615 l 293 557 l 1335 557 l 1335 404 l 293 404 l 293 397 q 313 303 293 347 q 366 225 332 258 q 445 172 400 192 q 540 153 490 153 l 1335 153 l 1335 0 l 540 0 q 384 32 457 0 q 257 118 311 64 q 172 245 203 172 q 140 400 140 318 l 140 564 q 172 719 140 647 q 258 846 204 792 q 385 931 313 900 q 540 963 458 963 l 1335 963 l 1335 811 l 540 811 q 443 792 488 811 q 365 739 399 772 z "},"Ë":{"ha":1468,"x_min":140,"x_max":1335,"o":"m 575 1042 l 575 1210 l 736 1210 l 736 1042 l 575 1042 m 947 1042 l 947 1210 l 1110 1210 l 1110 1042 l 947 1042 m 365 739 q 313 660 332 704 q 293 564 293 615 l 293 557 l 1335 557 l 1335 404 l 293 404 l 293 397 q 313 303 293 347 q 366 225 332 258 q 445 172 400 192 q 540 153 490 153 l 1335 153 l 1335 0 l 540 0 q 384 32 457 0 q 257 118 311 64 q 172 245 203 172 q 140 400 140 318 l 140 564 q 172 719 140 647 q 258 846 204 792 q 385 931 313 900 q 540 963 458 963 l 1335 963 l 1335 811 l 540 811 q 443 792 488 811 q 365 739 399 772 z "},"È":{"ha":1468,"x_min":140,"x_max":1335,"o":"m 657 1379 l 936 1101 l 832 996 l 551 1275 l 657 1379 m 365 739 q 313 660 332 704 q 293 564 293 615 l 293 557 l 1335 557 l 1335 404 l 293 404 l 293 397 q 313 303 293 347 q 366 225 332 258 q 445 172 400 192 q 540 153 490 153 l 1335 153 l 1335 0 l 540 0 q 384 32 457 0 q 257 118 311 64 q 172 245 203 172 q 140 400 140 318 l 140 564 q 172 719 140 647 q 258 846 204 792 q 385 931 313 900 q 540 963 458 963 l 1335 963 l 1335 811 l 540 811 q 443 792 488 811 q 365 739 399 772 z "},"Í":{"ha":335,"x_min":-42,"x_max":344,"o":"m 122 0 l 122 963 l 275 963 l 275 0 l 122 0 m 344 1203 l 64 924 l -42 1029 l 239 1307 l 344 1203 z "},"Î":{"ha":335,"x_min":-242,"x_max":639,"o":"m 122 0 l 122 963 l 275 963 l 275 0 l 122 0 m 199 1194 l -196 1007 l -242 1103 l 199 1311 l 639 1103 l 593 1007 l 199 1194 z "},"Ï":{"ha":361,"x_min":-57,"x_max":478,"o":"m 122 0 l 122 963 l 275 963 l 275 0 l 122 0 m -57 1032 l -57 1200 l 104 1200 l 104 1032 l -57 1032 m 315 1032 l 315 1200 l 478 1200 l 478 1032 l 315 1032 z "},"Ì":{"ha":335,"x_min":-36,"x_max":349,"o":"m 122 0 l 122 963 l 275 963 l 275 0 l 122 0 m 69 1376 l 349 1099 l 244 993 l -36 1272 l 69 1376 z "},"Ñ":{"ha":1615,"x_min":140,"x_max":1388,"o":"m 1024 990 q 964 998 994 990 q 903 1022 933 1006 l 904 1022 q 768 1092 836 1057 q 632 1160 700 1126 q 608 1169 618 1167 q 589 1172 597 1172 q 583 1169 586 1172 q 581 1150 581 1167 l 581 1010 l 440 1010 l 440 1151 q 451 1222 440 1192 q 481 1274 461 1253 q 583 1313 522 1313 q 701 1281 642 1313 q 838 1213 768 1249 q 974 1143 907 1176 q 1017 1129 1001 1129 q 1022 1133 1019 1129 q 1025 1153 1025 1138 l 1025 1293 l 1167 1293 l 1167 1151 q 1124 1031 1167 1074 l 1125 1031 q 1024 990 1086 990 m 1090 11 q 1054 32 1071 19 q 1019 65 1038 44 q 866 244 946 150 q 705 435 786 339 q 544 624 624 531 q 392 804 464 718 q 350 821 375 821 q 310 810 328 821 q 292 775 293 799 l 292 0 l 140 0 l 140 786 l 142 790 q 163 868 144 833 q 212 926 182 903 q 278 963 242 950 q 353 975 315 975 q 438 958 397 975 q 510 900 479 940 q 822 532 667 715 q 1136 163 978 349 q 1155 150 1143 156 q 1178 144 1167 144 q 1214 157 1197 144 q 1235 190 1231 169 l 1235 965 l 1388 965 l 1388 179 q 1364 101 1383 136 q 1316 42 1344 67 q 1251 3 1288 17 q 1176 -10 1215 -10 q 1133 -5 1156 -10 q 1090 11 1110 0 z "},"Ó":{"ha":1700,"x_min":143,"x_max":1618,"o":"m 1138 1206 l 857 926 l 751 1032 l 1032 1310 l 1138 1206 m 543 0 q 387 31 460 0 q 260 117 314 63 q 174 244 206 171 q 143 400 143 317 l 143 564 q 174 719 143 646 q 260 846 206 792 q 387 931 314 900 q 543 963 460 963 l 1218 963 q 1374 931 1301 963 q 1501 846 1447 900 q 1587 719 1556 792 q 1618 564 1618 646 l 1618 400 q 1587 244 1618 317 q 1501 117 1556 171 q 1374 31 1447 63 q 1218 0 1301 0 l 543 0 m 296 400 q 315 303 296 349 q 368 225 335 258 q 447 172 401 192 q 543 153 492 153 l 1218 153 q 1315 172 1269 153 q 1394 225 1360 192 q 1447 303 1428 258 q 1467 400 1467 349 l 1467 564 q 1447 659 1467 614 q 1394 738 1428 704 q 1315 792 1360 772 q 1218 811 1269 811 l 543 811 q 447 792 492 811 q 368 738 401 772 q 315 659 335 704 q 296 564 296 614 l 296 400 z "},"Ô":{"ha":1700,"x_min":143,"x_max":1618,"o":"m 867 1225 l 472 1038 l 426 1133 l 867 1342 l 1307 1133 l 1261 1038 l 867 1225 m 543 0 q 387 31 460 0 q 260 117 314 63 q 174 244 206 171 q 143 400 143 317 l 143 564 q 174 719 143 646 q 260 846 206 792 q 387 931 314 900 q 543 963 460 963 l 1218 963 q 1374 931 1301 963 q 1501 846 1447 900 q 1587 719 1556 792 q 1618 564 1618 646 l 1618 400 q 1587 244 1618 317 q 1501 117 1556 171 q 1374 31 1447 63 q 1218 0 1301 0 l 543 0 m 296 400 q 315 303 296 349 q 368 225 335 258 q 447 172 401 192 q 543 153 492 153 l 1218 153 q 1315 172 1269 153 q 1394 225 1360 192 q 1447 303 1428 258 q 1467 400 1467 349 l 1467 564 q 1447 659 1467 614 q 1394 738 1428 704 q 1315 792 1360 772 q 1218 811 1269 811 l 543 811 q 447 792 492 811 q 368 738 401 772 q 315 659 335 704 q 296 564 296 614 l 296 400 z "},"Ö":{"ha":1700,"x_min":143,"x_max":1618,"o":"m 617 1042 l 617 1210 l 778 1210 l 778 1042 l 617 1042 m 989 1042 l 989 1210 l 1151 1210 l 1151 1042 l 989 1042 m 543 0 q 387 31 460 0 q 260 117 314 63 q 174 244 206 171 q 143 400 143 317 l 143 564 q 174 719 143 646 q 260 846 206 792 q 387 931 314 900 q 543 963 460 963 l 1218 963 q 1374 931 1301 963 q 1501 846 1447 900 q 1587 719 1556 792 q 1618 564 1618 646 l 1618 400 q 1587 244 1618 317 q 1501 117 1556 171 q 1374 31 1447 63 q 1218 0 1301 0 l 543 0 m 296 400 q 315 303 296 349 q 368 225 335 258 q 447 172 401 192 q 543 153 492 153 l 1218 153 q 1315 172 1269 153 q 1394 225 1360 192 q 1447 303 1428 258 q 1467 400 1467 349 l 1467 564 q 1447 659 1467 614 q 1394 738 1428 704 q 1315 792 1360 772 q 1218 811 1269 811 l 543 811 q 447 792 492 811 q 368 738 401 772 q 315 659 335 704 q 296 564 296 614 l 296 400 z "},"Ò":{"ha":1700,"x_min":143,"x_max":1618,"o":"m 710 1379 l 989 1101 l 885 996 l 604 1275 l 710 1379 m 543 0 q 387 31 460 0 q 260 117 314 63 q 174 244 206 171 q 143 400 143 317 l 143 564 q 174 719 143 646 q 260 846 206 792 q 387 931 314 900 q 543 963 460 963 l 1218 963 q 1374 931 1301 963 q 1501 846 1447 900 q 1587 719 1556 792 q 1618 564 1618 646 l 1618 400 q 1587 244 1618 317 q 1501 117 1556 171 q 1374 31 1447 63 q 1218 0 1301 0 l 543 0 m 296 400 q 315 303 296 349 q 368 225 335 258 q 447 172 401 192 q 543 153 492 153 l 1218 153 q 1315 172 1269 153 q 1394 225 1360 192 q 1447 303 1428 258 q 1467 400 1467 349 l 1467 564 q 1447 659 1467 614 q 1394 738 1428 704 q 1315 792 1360 772 q 1218 811 1269 811 l 543 811 q 447 792 492 811 q 368 738 401 772 q 315 659 335 704 q 296 564 296 614 l 296 400 z "},"Õ":{"ha":1700,"x_min":143,"x_max":1618,"o":"m 1081 990 q 1021 998 1051 990 q 960 1022 990 1006 l 961 1022 q 825 1092 893 1057 q 689 1160 757 1126 q 665 1169 675 1167 q 646 1172 654 1172 q 640 1169 643 1172 q 638 1150 638 1167 l 638 1010 l 497 1010 l 497 1151 q 508 1222 497 1192 q 538 1274 518 1253 q 640 1313 579 1313 q 758 1281 699 1313 q 894 1213 825 1249 q 1031 1143 964 1176 q 1074 1129 1058 1129 q 1079 1133 1076 1129 q 1082 1153 1082 1138 l 1082 1293 l 1224 1293 l 1224 1151 q 1181 1031 1224 1074 l 1182 1031 q 1081 990 1143 990 m 543 0 q 387 31 460 0 q 260 117 314 63 q 174 244 206 171 q 143 400 143 317 l 143 564 q 174 719 143 646 q 260 846 206 792 q 387 931 314 900 q 543 963 460 963 l 1218 963 q 1374 931 1301 963 q 1501 846 1447 900 q 1587 719 1556 792 q 1618 564 1618 646 l 1618 400 q 1587 244 1618 317 q 1501 117 1556 171 q 1374 31 1447 63 q 1218 0 1301 0 l 543 0 m 296 400 q 315 303 296 349 q 368 225 335 258 q 447 172 401 192 q 543 153 492 153 l 1218 153 q 1315 172 1269 153 q 1394 225 1360 192 q 1447 303 1428 258 q 1467 400 1467 349 l 1467 564 q 1447 659 1467 614 q 1394 738 1428 704 q 1315 792 1360 772 q 1218 811 1269 811 l 543 811 q 447 792 492 811 q 368 738 401 772 q 315 659 335 704 q 296 564 296 614 l 296 400 z "},"Š":{"ha":1486,"x_min":74,"x_max":1297,"o":"m 1096 1342 l 1142 1246 l 701 1038 l 261 1246 l 307 1342 l 701 1154 l 1096 1342 m 124 0 l 124 153 l 1019 153 q 1069 163 1046 153 q 1108 190 1092 172 q 1135 230 1125 207 q 1144 279 1144 253 q 1108 369 1144 332 q 1019 406 1072 406 l 353 406 q 245 427 296 406 q 156 487 194 449 q 96 576 118 525 q 74 685 74 626 q 95 794 74 743 q 155 883 117 844 q 244 943 193 921 q 353 965 294 965 l 1247 965 l 1247 814 l 353 814 q 265 777 299 814 q 226 689 231 740 q 266 596 231 633 q 353 558 301 558 l 1019 558 q 1127 536 1076 558 q 1215 476 1178 514 q 1275 388 1253 439 q 1297 281 1297 338 q 1276 171 1297 222 q 1217 82 1254 119 q 1128 22 1179 44 q 1019 0 1078 0 l 124 0 z "},"Ú":{"ha":1475,"x_min":139,"x_max":1367,"o":"m 918 1172 l 638 893 l 532 999 l 813 1276 l 918 1172 m 257 117 q 170 244 201 172 q 139 400 139 317 l 139 963 l 292 963 l 292 400 q 311 305 292 350 q 364 226 331 260 q 442 172 397 192 q 538 153 486 153 l 967 153 q 1062 172 1017 153 q 1141 225 1107 192 q 1194 303 1175 258 q 1214 397 1214 347 l 1214 963 l 1367 963 l 1367 400 q 1335 244 1367 317 q 1249 117 1304 172 q 1122 31 1194 63 q 967 0 1050 0 l 539 0 q 383 31 456 0 q 257 117 311 63 z "},"Û":{"ha":1506,"x_min":139,"x_max":1367,"o":"m 739 1225 l 344 1038 l 299 1133 l 739 1342 l 1179 1133 l 1133 1038 l 739 1225 m 257 117 q 170 244 201 172 q 139 400 139 317 l 139 963 l 292 963 l 292 400 q 311 305 292 350 q 364 226 331 260 q 442 172 397 192 q 538 153 486 153 l 967 153 q 1062 172 1017 153 q 1141 225 1107 192 q 1194 303 1175 258 q 1214 397 1214 347 l 1214 963 l 1367 963 l 1367 400 q 1335 244 1367 317 q 1249 117 1304 172 q 1122 31 1194 63 q 967 0 1050 0 l 539 0 q 383 31 456 0 q 257 117 311 63 z "},"Ü":{"ha":1529,"x_min":139,"x_max":1367,"o":"m 465 767 l 465 935 l 626 935 l 626 767 l 465 767 m 838 767 l 838 935 l 1000 935 l 1000 767 l 838 767 m 257 117 q 170 244 201 172 q 139 400 139 317 l 139 963 l 292 963 l 292 400 q 311 305 292 350 q 364 226 331 260 q 442 172 397 192 q 538 153 486 153 l 967 153 q 1062 172 1017 153 q 1141 225 1107 192 q 1194 303 1175 258 q 1214 397 1214 347 l 1214 963 l 1367 963 l 1367 400 q 1335 244 1367 317 q 1249 117 1304 172 q 1122 31 1194 63 q 967 0 1050 0 l 539 0 q 383 31 456 0 q 257 117 311 63 z "},"Ù":{"ha":1429,"x_min":139,"x_max":1367,"o":"m 589 1379 l 868 1101 l 764 996 l 483 1275 l 589 1379 m 257 117 q 170 244 201 172 q 139 400 139 317 l 139 963 l 292 963 l 292 400 q 311 305 292 350 q 364 226 331 260 q 442 172 397 192 q 538 153 486 153 l 967 153 q 1062 172 1017 153 q 1141 225 1107 192 q 1194 303 1175 258 q 1214 397 1214 347 l 1214 963 l 1367 963 l 1367 400 q 1335 244 1367 317 q 1249 117 1304 172 q 1122 31 1194 63 q 967 0 1050 0 l 539 0 q 383 31 456 0 q 257 117 311 63 z "},"Ý":{"ha":1508,"x_min":125,"x_max":1297,"o":"m 915 1171 l 635 892 l 529 997 l 810 1275 l 915 1171 m 639 0 l 639 289 l 525 289 q 369 320 442 289 q 243 406 297 351 q 156 533 188 461 q 125 689 125 606 l 125 963 l 278 963 l 278 689 q 297 594 278 639 q 350 515 317 549 q 428 461 383 481 q 524 442 472 442 l 897 442 q 992 461 947 442 q 1072 514 1038 481 q 1125 592 1106 547 q 1144 686 1144 636 l 1144 963 l 1297 963 l 1297 689 q 1266 533 1297 606 q 1179 406 1235 461 q 1053 320 1125 351 q 897 289 981 289 l 792 289 l 792 0 l 639 0 z "},"Ÿ":{"ha":1508,"x_min":125,"x_max":1297,"o":"m 472 767 l 472 935 l 633 935 l 633 767 l 472 767 m 844 767 l 844 935 l 1007 935 l 1007 767 l 844 767 m 639 0 l 639 289 l 525 289 q 369 320 442 289 q 243 406 297 351 q 156 533 188 461 q 125 689 125 606 l 125 963 l 278 963 l 278 689 q 297 594 278 639 q 350 515 317 549 q 428 461 383 481 q 524 442 472 442 l 897 442 q 992 461 947 442 q 1072 514 1038 481 q 1125 592 1106 547 q 1144 686 1144 636 l 1144 963 l 1297 963 l 1297 689 q 1266 533 1297 606 q 1179 406 1235 461 q 1053 320 1125 351 q 897 289 981 289 l 792 289 l 792 0 l 639 0 z "},"Ž":{"ha":1514,"x_min":111,"x_max":1333,"o":"m 1119 1342 l 1165 1246 l 725 1038 l 285 1246 l 331 1342 l 725 1154 l 1119 1342 m 307 0 q 222 19 258 0 q 160 69 185 39 q 124 138 136 100 q 111 214 111 176 q 131 301 111 267 q 174 357 150 336 q 236 394 200 382 q 456 470 342 431 q 685 551 569 510 q 915 631 800 592 q 1135 707 1029 671 q 1146 713 1139 711 l 1144 711 q 1168 725 1154 715 q 1182 757 1182 735 q 1181 769 1182 761 q 1175 788 1179 778 q 1162 804 1171 797 q 1136 811 1153 811 l 119 811 l 119 963 l 1144 963 q 1246 933 1208 963 q 1303 867 1283 904 q 1328 798 1322 831 q 1333 757 1333 765 q 1317 672 1333 706 q 1282 618 1301 638 q 1232 581 1260 593 q 760 416 1000 501 q 289 251 521 331 l 290 253 q 267 233 274 244 q 261 208 261 221 q 274 172 261 189 q 310 153 288 154 l 1325 153 l 1325 0 l 307 0 z "},"á":{"ha":1611,"x_min":136,"x_max":1332,"o":"m 447 0 q 358 14 401 0 q 278 51 315 28 q 211 108 240 75 q 164 181 182 142 q 144 238 151 208 q 136 297 136 267 q 161 414 136 360 q 228 509 186 468 q 326 573 271 550 q 443 596 382 596 l 1183 596 l 1183 631 q 1169 694 1183 664 q 1133 746 1156 724 q 1081 781 1111 768 q 1018 793 1051 793 l 346 793 l 346 943 l 1018 943 q 1140 919 1083 943 q 1240 852 1197 894 q 1308 753 1283 810 q 1332 631 1332 696 l 1332 -1 l 447 0 m 357 419 q 305 367 324 399 q 286 297 286 336 q 299 238 286 265 q 333 192 313 211 q 383 160 354 172 q 443 149 411 149 l 1183 149 l 1183 446 l 447 446 q 357 419 396 446 m 1024 1261 l 743 982 l 638 1088 l 918 1365 l 1024 1261 z "},"â":{"ha":1611,"x_min":136,"x_max":1332,"o":"m 447 0 q 358 14 401 0 q 278 51 315 28 q 211 108 240 75 q 164 181 182 142 q 144 238 151 208 q 136 297 136 267 q 161 414 136 360 q 228 509 186 468 q 326 573 271 550 q 443 596 382 596 l 1183 596 l 1183 631 q 1169 694 1183 664 q 1133 746 1156 724 q 1081 781 1111 768 q 1018 793 1051 793 l 346 793 l 346 943 l 1018 943 q 1140 919 1083 943 q 1240 852 1197 894 q 1308 753 1283 810 q 1332 631 1332 696 l 1332 -1 l 447 0 m 357 419 q 305 367 324 399 q 286 297 286 336 q 299 238 286 265 q 333 192 313 211 q 383 160 354 172 q 443 149 411 149 l 1183 149 l 1183 446 l 447 446 q 357 419 396 446 m 808 1225 l 414 1038 l 368 1133 l 808 1342 l 1249 1133 l 1203 1038 l 808 1225 z "},"ä":{"ha":1611,"x_min":136,"x_max":1332,"o":"m 447 0 q 358 14 401 0 q 278 51 315 28 q 211 108 240 75 q 164 181 182 142 q 144 238 151 208 q 136 297 136 267 q 161 414 136 360 q 228 509 186 468 q 326 573 271 550 q 443 596 382 596 l 1183 596 l 1183 631 q 1169 694 1183 664 q 1133 746 1156 724 q 1081 781 1111 768 q 1018 793 1051 793 l 346 793 l 346 943 l 1018 943 q 1140 919 1083 943 q 1240 852 1197 894 q 1308 753 1283 810 q 1332 631 1332 696 l 1332 -1 l 447 0 m 357 419 q 305 367 324 399 q 286 297 286 336 q 299 238 286 265 q 333 192 313 211 q 383 160 354 172 q 443 149 411 149 l 1183 149 l 1183 446 l 447 446 q 357 419 396 446 m 500 1024 l 500 1192 l 661 1192 l 661 1024 l 500 1024 m 872 1024 l 872 1192 l 1035 1192 l 1035 1024 l 872 1024 z "},"à":{"ha":1611,"x_min":136,"x_max":1332,"o":"m 447 0 q 358 14 401 0 q 278 51 315 28 q 211 108 240 75 q 164 181 182 142 q 144 238 151 208 q 136 297 136 267 q 161 414 136 360 q 228 509 186 468 q 326 573 271 550 q 443 596 382 596 l 1183 596 l 1183 631 q 1169 694 1183 664 q 1133 746 1156 724 q 1081 781 1111 768 q 1018 793 1051 793 l 346 793 l 346 943 l 1018 943 q 1140 919 1083 943 q 1240 852 1197 894 q 1308 753 1283 810 q 1332 631 1332 696 l 1332 -1 l 447 0 m 357 419 q 305 367 324 399 q 286 297 286 336 q 299 238 286 265 q 333 192 313 211 q 383 160 354 172 q 443 149 411 149 l 1183 149 l 1183 446 l 447 446 q 357 419 396 446 m 651 1379 l 931 1101 l 826 996 l 546 1275 l 651 1379 z "},"å":{"ha":1611,"x_min":136,"x_max":1332,"o":"m 447 0 q 358 14 401 0 q 278 51 315 28 q 211 108 240 75 q 164 181 182 142 q 144 238 151 208 q 136 297 136 267 q 161 414 136 360 q 228 509 186 468 q 326 573 271 550 q 443 596 382 596 l 1183 596 l 1183 631 q 1169 694 1183 664 q 1133 746 1156 724 q 1081 781 1111 768 q 1018 793 1051 793 l 346 793 l 346 943 l 1018 943 q 1140 919 1083 943 q 1240 852 1197 894 q 1308 753 1283 810 q 1332 631 1332 696 l 1332 -1 l 447 0 m 357 419 q 305 367 324 399 q 286 297 286 336 q 299 238 286 265 q 333 192 313 211 q 383 160 354 172 q 443 149 411 149 l 1183 149 l 1183 446 l 447 446 q 357 419 396 446 m 656 1033 q 522 1089 578 1033 q 481 1149 496 1115 q 467 1222 467 1183 l 467 1240 q 481 1314 467 1279 q 522 1374 496 1349 q 582 1415 547 1400 q 656 1431 617 1431 l 846 1431 q 919 1415 885 1431 q 980 1374 954 1400 q 1021 1314 1006 1349 q 1036 1240 1036 1279 l 1036 1222 q 1022 1149 1036 1183 q 981 1090 1007 1115 q 919 1049 954 1064 q 846 1033 885 1033 l 656 1033 m 613 1285 q 594 1240 594 1267 l 594 1222 q 612 1178 594 1196 q 656 1161 629 1161 l 846 1161 q 891 1178 872 1161 q 910 1222 910 1196 l 910 1240 q 891 1285 910 1267 q 846 1303 872 1303 l 656 1303 q 631 1297 642 1303 q 613 1285 619 1292 z "},"ã":{"ha":1611,"x_min":136,"x_max":1332,"o":"m 447 0 q 358 14 401 0 q 278 51 315 28 q 211 108 240 75 q 164 181 182 142 q 144 238 151 208 q 136 297 136 267 q 161 414 136 360 q 228 509 186 468 q 326 573 271 550 q 443 596 382 596 l 1183 596 l 1183 631 q 1169 694 1183 664 q 1133 746 1156 724 q 1081 781 1111 768 q 1018 793 1051 793 l 346 793 l 346 943 l 1018 943 q 1140 919 1083 943 q 1240 852 1197 894 q 1308 753 1283 810 q 1332 631 1332 696 l 1332 -1 l 447 0 m 357 419 q 305 367 324 399 q 286 297 286 336 q 299 238 286 265 q 333 192 313 211 q 383 160 354 172 q 443 149 411 149 l 1183 149 l 1183 446 l 447 446 q 357 419 396 446 m 1022 990 q 963 998 993 990 q 901 1022 932 1006 l 903 1022 q 767 1092 835 1057 q 631 1160 699 1126 q 606 1169 617 1167 q 588 1172 596 1172 q 582 1169 585 1172 q 579 1150 579 1167 l 579 1010 l 439 1010 l 439 1151 q 449 1222 439 1192 q 479 1274 460 1253 q 582 1313 521 1313 q 700 1281 640 1313 q 836 1213 767 1249 q 972 1143 906 1176 q 1015 1129 1000 1129 q 1021 1133 1018 1129 q 1024 1153 1024 1138 l 1024 1293 l 1165 1293 l 1165 1151 q 1122 1031 1165 1074 l 1124 1031 q 1022 990 1085 990 z "},"ç":{"ha":1588,"x_min":139,"x_max":1333,"o":"m 560 -358 l 560 -215 l 715 -215 q 753 -198 739 -215 q 768 -158 768 -181 l 768 1 l 911 1 l 911 -158 q 895 -233 911 -197 q 852 -297 879 -269 q 789 -342 825 -325 q 711 -358 753 -358 l 560 -358 m 257 117 q 170 244 201 172 q 139 400 139 317 l 139 564 q 171 719 139 646 q 257 846 203 792 q 384 931 311 900 q 540 963 457 963 l 1333 963 l 1333 811 l 540 811 q 444 792 489 811 q 365 738 399 772 q 312 659 332 704 q 292 564 292 614 l 292 400 q 311 305 292 350 q 364 226 331 260 q 442 172 397 192 q 538 153 486 153 l 1333 153 l 1333 0 l 540 0 q 384 31 457 0 q 257 117 311 63 z "},"é":{"ha":1478,"x_min":139,"x_max":1360,"o":"m 139 671 q 165 784 139 731 q 233 876 190 838 q 332 938 275 915 q 451 961 389 961 l 1053 961 q 1169 938 1114 961 q 1267 873 1225 914 q 1335 778 1310 832 q 1360 663 1360 724 q 1335 546 1360 600 q 1267 451 1310 492 q 1167 387 1224 410 q 1047 364 1110 364 l 288 364 l 288 251 q 348 176 300 204 q 451 149 396 149 l 1333 149 l 1333 0 l 444 0 q 337 17 390 0 q 240 65 283 33 q 168 143 196 97 q 139 247 140 189 l 139 671 m 451 811 q 398 800 426 811 q 344 770 369 789 q 303 724 319 751 q 288 667 288 697 l 288 514 l 1053 514 q 1113 526 1083 514 q 1163 557 1142 538 q 1198 603 1185 576 q 1211 663 1211 631 q 1198 722 1211 694 q 1162 769 1185 749 q 1109 800 1139 789 q 1047 811 1079 811 l 451 811 m 926 1300 l 646 1021 l 540 1126 l 821 1404 l 926 1300 z "},"ê":{"ha":1474,"x_min":140,"x_max":1361,"o":"m 140 671 q 166 784 140 731 q 234 876 192 838 q 333 938 276 915 q 453 961 390 961 l 1054 961 q 1171 938 1115 961 q 1269 873 1226 914 q 1336 778 1311 832 q 1361 663 1361 724 q 1336 546 1361 600 q 1268 451 1311 492 q 1168 387 1225 410 q 1049 364 1111 364 l 289 364 l 289 251 q 349 176 301 204 q 453 149 397 149 l 1335 149 l 1335 0 l 446 0 q 338 17 392 0 q 241 65 285 33 q 169 143 197 97 q 140 247 142 189 l 140 671 m 453 811 q 399 800 428 811 q 346 770 371 789 q 305 724 321 751 q 289 667 289 697 l 289 514 l 1054 514 q 1114 526 1085 514 q 1165 557 1143 538 q 1199 603 1186 576 q 1213 663 1213 631 q 1199 722 1213 694 q 1163 769 1186 749 q 1110 800 1140 789 q 1049 811 1081 811 l 453 811 m 768 1225 l 374 1038 l 328 1133 l 768 1342 l 1208 1133 l 1163 1038 l 768 1225 z "},"ë":{"ha":1474,"x_min":140,"x_max":1361,"o":"m 140 671 q 166 784 140 731 q 234 876 192 838 q 333 938 276 915 q 453 961 390 961 l 1054 961 q 1171 938 1115 961 q 1269 873 1226 914 q 1336 778 1311 832 q 1361 663 1361 724 q 1336 546 1361 600 q 1268 451 1311 492 q 1168 387 1225 410 q 1049 364 1111 364 l 289 364 l 289 251 q 349 176 301 204 q 453 149 397 149 l 1335 149 l 1335 0 l 446 0 q 338 17 392 0 q 241 65 285 33 q 169 143 197 97 q 140 247 142 189 l 140 671 m 453 811 q 399 800 428 811 q 346 770 371 789 q 305 724 321 751 q 289 667 289 697 l 289 514 l 1054 514 q 1114 526 1085 514 q 1165 557 1143 538 q 1199 603 1186 576 q 1213 663 1213 631 q 1199 722 1213 694 q 1163 769 1186 749 q 1110 800 1140 789 q 1049 811 1081 811 l 453 811 m 479 1039 l 479 1207 l 640 1207 l 640 1039 l 479 1039 m 851 1039 l 851 1207 l 1014 1207 l 1014 1039 l 851 1039 z "},"è":{"ha":1600,"x_min":139,"x_max":1360,"o":"m 594 1393 l 874 1115 l 769 1010 l 489 1289 l 594 1393 m 139 671 q 165 784 139 731 q 233 876 190 838 q 332 938 275 915 q 451 961 389 961 l 1053 961 q 1169 938 1114 961 q 1267 873 1225 914 q 1335 778 1310 832 q 1360 663 1360 724 q 1335 546 1360 600 q 1267 451 1310 492 q 1167 387 1224 410 q 1047 364 1110 364 l 288 364 l 288 251 q 348 176 300 204 q 451 149 396 149 l 1333 149 l 1333 0 l 444 0 q 337 17 390 0 q 240 65 283 33 q 168 143 196 97 q 139 247 140 189 l 139 671 m 451 811 q 398 800 426 811 q 344 770 369 789 q 303 724 319 751 q 288 667 288 697 l 288 514 l 1053 514 q 1113 526 1083 514 q 1163 557 1142 538 q 1198 603 1185 576 q 1211 663 1211 631 q 1198 722 1211 694 q 1162 769 1185 749 q 1109 800 1139 789 q 1047 811 1079 811 l 451 811 z "},"í":{"ha":368,"x_min":-14,"x_max":372,"o":"m 122 0 l 122 963 l 275 963 l 275 0 l 122 0 m 372 1272 l 92 993 l -14 1099 l 267 1376 l 372 1272 z "},"î":{"ha":368,"x_min":-250,"x_max":631,"o":"m 122 0 l 122 963 l 275 963 l 275 0 l 122 0 m 190 1222 l -204 1035 l -250 1131 l 190 1339 l 631 1131 l 585 1035 l 190 1222 z "},"ï":{"ha":368,"x_min":-71,"x_max":464,"o":"m 122 0 l 122 963 l 275 963 l 275 0 l 122 0 m -71 1043 l -71 1211 l 90 1211 l 90 1043 l -71 1043 m 301 1043 l 301 1211 l 464 1211 l 464 1043 l 301 1043 z "},"ì":{"ha":368,"x_min":-11,"x_max":374,"o":"m 122 0 l 122 963 l 275 963 l 275 0 l 122 0 m 94 1376 l 374 1099 l 269 993 l -11 1272 l 94 1376 z "},"ñ":{"ha":1615,"x_min":135,"x_max":1281,"o":"m 890 961 q 1042 930 971 961 q 1166 846 1113 899 q 1250 721 1219 793 q 1281 568 1281 649 l 1281 0 l 1132 0 l 1132 568 q 1113 662 1132 618 q 1062 739 1094 706 q 985 792 1029 772 q 893 811 942 811 l 283 811 l 283 0 l 135 0 l 135 961 l 890 961 m 875 1032 q 815 1040 846 1032 q 754 1064 785 1047 l 756 1064 q 619 1133 688 1099 q 483 1201 551 1168 q 459 1211 469 1208 q 440 1214 449 1214 q 435 1211 438 1214 q 432 1192 432 1208 l 432 1051 l 292 1051 l 292 1193 q 302 1264 292 1233 q 332 1315 313 1294 q 435 1354 374 1354 q 553 1322 493 1354 q 689 1254 619 1290 q 825 1185 758 1218 q 868 1171 853 1171 q 874 1175 871 1171 q 876 1194 876 1179 l 876 1335 l 1018 1335 l 1018 1193 q 975 1072 1018 1115 l 976 1072 q 875 1032 938 1032 z "},"ó":{"ha":1700,"x_min":143,"x_max":1618,"o":"m 1082 1289 l 801 1010 l 696 1115 l 976 1393 l 1082 1289 m 543 0 q 387 31 460 0 q 260 117 314 63 q 174 244 206 171 q 143 400 143 317 l 143 564 q 174 719 143 646 q 260 846 206 792 q 387 931 314 900 q 543 963 460 963 l 1218 963 q 1374 931 1301 963 q 1501 846 1447 900 q 1587 719 1556 792 q 1618 564 1618 646 l 1618 400 q 1587 244 1618 317 q 1501 117 1556 171 q 1374 31 1447 63 q 1218 0 1301 0 l 543 0 m 296 400 q 315 303 296 349 q 368 225 335 258 q 447 172 401 192 q 543 153 492 153 l 1218 153 q 1315 172 1269 153 q 1394 225 1360 192 q 1447 303 1428 258 q 1467 400 1467 349 l 1467 564 q 1447 659 1467 614 q 1394 738 1428 704 q 1315 792 1360 772 q 1218 811 1269 811 l 543 811 q 447 792 492 811 q 368 738 401 772 q 315 659 335 704 q 296 564 296 614 l 296 400 z "},"ô":{"ha":1700,"x_min":143,"x_max":1618,"o":"m 867 1225 l 472 1038 l 426 1133 l 867 1342 l 1307 1133 l 1261 1038 l 867 1225 m 543 0 q 387 31 460 0 q 260 117 314 63 q 174 244 206 171 q 143 400 143 317 l 143 564 q 174 719 143 646 q 260 846 206 792 q 387 931 314 900 q 543 963 460 963 l 1218 963 q 1374 931 1301 963 q 1501 846 1447 900 q 1587 719 1556 792 q 1618 564 1618 646 l 1618 400 q 1587 244 1618 317 q 1501 117 1556 171 q 1374 31 1447 63 q 1218 0 1301 0 l 543 0 m 296 400 q 315 303 296 349 q 368 225 335 258 q 447 172 401 192 q 543 153 492 153 l 1218 153 q 1315 172 1269 153 q 1394 225 1360 192 q 1447 303 1428 258 q 1467 400 1467 349 l 1467 564 q 1447 659 1467 614 q 1394 738 1428 704 q 1315 792 1360 772 q 1218 811 1269 811 l 543 811 q 447 792 492 811 q 368 738 401 772 q 315 659 335 704 q 296 564 296 614 l 296 400 z "},"ö":{"ha":1788,"x_min":143,"x_max":1618,"o":"m 543 0 q 387 31 460 0 q 260 117 314 63 q 174 244 206 171 q 143 400 143 317 l 143 564 q 174 719 143 646 q 260 846 206 792 q 387 931 314 900 q 543 963 460 963 l 1218 963 q 1374 931 1301 963 q 1501 846 1447 900 q 1587 719 1556 792 q 1618 564 1618 646 l 1618 400 q 1587 244 1618 317 q 1501 117 1556 171 q 1374 31 1447 63 q 1218 0 1301 0 l 543 0 m 296 400 q 315 303 296 349 q 368 225 335 258 q 447 172 401 192 q 543 153 492 153 l 1218 153 q 1315 172 1269 153 q 1394 225 1360 192 q 1447 303 1428 258 q 1467 400 1467 349 l 1467 564 q 1447 659 1467 614 q 1394 738 1428 704 q 1315 792 1360 772 q 1218 811 1269 811 l 543 811 q 447 792 492 811 q 368 738 401 772 q 315 659 335 704 q 296 564 296 614 l 296 400 m 624 1067 l 624 1235 l 785 1235 l 785 1067 l 624 1067 m 996 1067 l 996 1235 l 1158 1235 l 1158 1067 l 996 1067 z "},"ò":{"ha":1700,"x_min":143,"x_max":1618,"o":"m 710 1379 l 989 1101 l 885 996 l 604 1275 l 710 1379 m 543 0 q 387 31 460 0 q 260 117 314 63 q 174 244 206 171 q 143 400 143 317 l 143 564 q 174 719 143 646 q 260 846 206 792 q 387 931 314 900 q 543 963 460 963 l 1218 963 q 1374 931 1301 963 q 1501 846 1447 900 q 1587 719 1556 792 q 1618 564 1618 646 l 1618 400 q 1587 244 1618 317 q 1501 117 1556 171 q 1374 31 1447 63 q 1218 0 1301 0 l 543 0 m 296 400 q 315 303 296 349 q 368 225 335 258 q 447 172 401 192 q 543 153 492 153 l 1218 153 q 1315 172 1269 153 q 1394 225 1360 192 q 1447 303 1428 258 q 1467 400 1467 349 l 1467 564 q 1447 659 1467 614 q 1394 738 1428 704 q 1315 792 1360 772 q 1218 811 1269 811 l 543 811 q 447 792 492 811 q 368 738 401 772 q 315 659 335 704 q 296 564 296 614 l 296 400 z "},"õ":{"ha":1700,"x_min":143,"x_max":1618,"o":"m 1081 1004 q 1021 1012 1051 1004 q 960 1036 990 1019 l 961 1036 q 825 1106 893 1071 q 689 1174 757 1140 q 665 1183 675 1181 q 646 1186 654 1186 q 640 1183 643 1186 q 638 1164 638 1181 l 638 1024 l 497 1024 l 497 1165 q 508 1236 497 1206 q 538 1288 518 1267 q 640 1326 579 1326 q 758 1294 699 1326 q 894 1226 825 1263 q 1031 1157 964 1190 q 1074 1143 1058 1143 q 1079 1147 1076 1143 q 1082 1167 1082 1151 l 1082 1307 l 1224 1307 l 1224 1165 q 1181 1044 1224 1088 l 1182 1044 q 1081 1004 1143 1004 m 543 0 q 387 31 460 0 q 260 117 314 63 q 174 244 206 171 q 143 400 143 317 l 143 564 q 174 719 143 646 q 260 846 206 792 q 387 931 314 900 q 543 963 460 963 l 1218 963 q 1374 931 1301 963 q 1501 846 1447 900 q 1587 719 1556 792 q 1618 564 1618 646 l 1618 400 q 1587 244 1618 317 q 1501 117 1556 171 q 1374 31 1447 63 q 1218 0 1301 0 l 543 0 m 296 400 q 315 303 296 349 q 368 225 335 258 q 447 172 401 192 q 543 153 492 153 l 1218 153 q 1315 172 1269 153 q 1394 225 1360 192 q 1447 303 1428 258 q 1467 400 1467 349 l 1467 564 q 1447 659 1467 614 q 1394 738 1428 704 q 1315 792 1360 772 q 1218 811 1269 811 l 543 811 q 447 792 492 811 q 368 738 401 772 q 315 659 335 704 q 296 564 296 614 l 296 400 z "},"š":{"ha":1486,"x_min":74,"x_max":1297,"o":"m 1106 1342 l 1151 1246 l 711 1038 l 271 1246 l 317 1342 l 711 1154 l 1106 1342 m 124 0 l 124 153 l 1019 153 q 1069 163 1046 153 q 1108 190 1092 172 q 1135 230 1125 207 q 1144 279 1144 253 q 1108 369 1144 332 q 1019 406 1072 406 l 353 406 q 245 427 296 406 q 156 487 194 449 q 96 576 118 525 q 74 685 74 626 q 95 794 74 743 q 155 883 117 844 q 244 943 193 921 q 353 965 294 965 l 1247 965 l 1247 814 l 353 814 q 265 777 299 814 q 226 689 231 740 q 266 596 231 633 q 353 558 301 558 l 1019 558 q 1127 536 1076 558 q 1215 476 1178 514 q 1275 388 1253 439 q 1297 281 1297 338 q 1276 171 1297 222 q 1217 82 1254 119 q 1128 22 1179 44 q 1019 0 1078 0 l 124 0 z "},"ú":{"ha":1475,"x_min":140,"x_max":1286,"o":"m 531 0 q 379 31 450 0 q 255 115 308 63 q 171 240 201 168 q 140 392 140 311 l 140 961 l 289 961 l 289 392 q 308 299 289 343 q 359 221 326 254 q 435 168 392 188 q 528 149 479 149 l 1138 149 l 1138 961 l 1286 961 l 1286 0 l 531 0 m 956 1179 l 675 900 l 569 1006 l 850 1283 l 956 1179 z "},"û":{"ha":1493,"x_min":140,"x_max":1286,"o":"m 531 0 q 379 31 450 0 q 255 115 308 63 q 171 240 201 168 q 140 392 140 311 l 140 961 l 289 961 l 289 392 q 308 299 289 343 q 359 221 326 254 q 435 168 392 188 q 528 149 479 149 l 1138 149 l 1138 961 l 1286 961 l 1286 0 l 531 0 m 699 1213 l 304 1025 l 258 1121 l 699 1329 l 1139 1121 l 1093 1025 l 699 1213 z "},"ü":{"ha":1475,"x_min":140,"x_max":1286,"o":"m 531 0 q 379 31 450 0 q 255 115 308 63 q 171 240 201 168 q 140 392 140 311 l 140 961 l 289 961 l 289 392 q 308 299 289 343 q 359 221 326 254 q 435 168 392 188 q 528 149 479 149 l 1138 149 l 1138 961 l 1286 961 l 1286 0 l 531 0 m 488 767 l 488 935 l 649 935 l 649 767 l 488 767 m 860 767 l 860 935 l 1022 935 l 1022 767 l 860 767 z "},"ù":{"ha":1493,"x_min":140,"x_max":1286,"o":"m 583 1353 l 863 1075 l 758 969 l 478 1249 l 583 1353 m 531 0 q 379 31 450 0 q 255 115 308 63 q 171 240 201 168 q 140 392 140 311 l 140 961 l 289 961 l 289 392 q 308 299 289 343 q 359 221 326 254 q 435 168 392 188 q 528 149 479 149 l 1138 149 l 1138 961 l 1286 961 l 1286 0 l 531 0 z "},"ý":{"ha":1493,"x_min":138,"x_max":1283,"o":"m 1283 961 l 1283 390 q 1253 239 1283 310 q 1169 115 1222 168 q 1045 31 1117 61 q 893 0 974 0 l 207 0 l 207 149 l 893 149 q 985 167 942 149 q 1062 218 1029 186 q 1114 294 1094 250 q 1135 386 1133 338 l 528 386 q 376 417 447 386 q 252 501 306 449 q 168 626 199 554 q 138 778 138 697 l 138 961 l 286 961 l 286 778 q 305 685 286 729 q 356 607 324 640 q 433 554 389 574 q 525 535 476 535 l 1135 535 l 1135 961 l 1283 961 m 1094 1206 l 814 926 l 708 1032 l 989 1310 l 1094 1206 z "},"ÿ":{"ha":1467,"x_min":138,"x_max":1283,"o":"m 1283 961 l 1283 390 q 1253 239 1283 310 q 1169 115 1222 168 q 1045 31 1117 61 q 893 0 974 0 l 207 0 l 207 149 l 893 149 q 985 167 942 149 q 1062 218 1029 186 q 1114 294 1094 250 q 1135 386 1133 338 l 528 386 q 376 417 447 386 q 252 501 306 449 q 168 626 199 554 q 138 778 138 697 l 138 961 l 286 961 l 286 778 q 305 685 286 729 q 356 607 324 640 q 433 554 389 574 q 525 535 476 535 l 1135 535 l 1135 961 l 1283 961 m 436 947 l 436 1115 l 597 1115 l 597 947 l 436 947 m 808 947 l 808 1115 l 971 1115 l 971 947 l 808 947 z "},"ž":{"ha":1514,"x_min":139,"x_max":1435,"o":"m 139 0 l 139 139 l 1133 813 l 142 813 l 142 963 l 1435 963 l 1435 831 l 426 149 l 1417 149 l 1417 0 l 139 0 m 1175 1342 l 1221 1246 l 781 1038 l 340 1246 l 386 1342 l 781 1154 l 1175 1342 z "}," ":{"ha":521,"x_min":0,"x_max":0,"o":""},"€":{"ha":1560,"x_min":103,"x_max":1376,"o":"m 600 810 q 464 767 525 810 q 375 658 403 725 l 1344 658 l 1344 510 l 357 510 l 357 450 l 1344 450 l 1344 301 l 374 301 q 462 192 401 235 q 597 149 522 149 l 1376 149 l 1376 0 l 600 0 q 448 31 519 0 q 324 114 376 61 q 260 201 288 151 q 219 301 233 250 l 103 301 l 103 450 l 207 450 l 207 510 l 103 510 l 103 658 l 218 658 q 267 778 232 724 q 353 874 303 833 q 467 937 404 914 q 600 960 529 960 l 1376 960 l 1376 810 l 600 810 l 600 810 z "},"Ă":{"ha":1489,"x_min":139,"x_max":1382,"o":"m 610 1219 q 627 1175 610 1193 q 671 1157 644 1157 l 888 1157 q 931 1175 913 1157 q 950 1219 950 1193 l 950 1261 l 1078 1261 l 1078 1219 q 1063 1147 1078 1181 q 1022 1087 1049 1113 q 961 1046 996 1061 q 888 1031 926 1031 l 671 1031 q 538 1085 594 1031 q 497 1146 511 1111 q 482 1219 482 1181 l 482 1261 l 610 1261 l 610 1219 m 1264 846 q 1350 718 1318 790 q 1382 564 1382 646 l 1382 0 l 1229 0 l 1229 418 l 290 418 l 290 0 l 139 0 l 139 564 q 171 719 139 647 q 257 846 203 792 q 383 931 311 900 q 538 963 456 963 l 982 963 q 1136 931 1064 963 q 1264 846 1208 900 m 535 811 q 442 792 486 811 q 365 740 399 772 q 312 663 332 707 q 290 571 292 619 l 1229 571 q 1208 663 1228 619 q 1154 740 1188 707 q 1076 792 1121 772 q 982 811 1032 811 l 535 811 z "},"Ā":{"ha":1489,"x_min":139,"x_max":1382,"o":"m 439 1144 l 1082 1144 l 1082 1039 l 439 1039 l 439 1144 m 1264 846 q 1350 718 1318 790 q 1382 564 1382 646 l 1382 0 l 1229 0 l 1229 418 l 290 418 l 290 0 l 139 0 l 139 564 q 171 719 139 647 q 257 846 203 792 q 383 931 311 900 q 538 963 456 963 l 982 963 q 1136 931 1064 963 q 1264 846 1208 900 m 535 811 q 442 792 486 811 q 365 740 399 772 q 312 663 332 707 q 290 571 292 619 l 1229 571 q 1208 663 1228 619 q 1154 740 1188 707 q 1076 792 1121 772 q 982 811 1032 811 l 535 811 z "},"Ą":{"ha":1488,"x_min":139,"x_max":1528,"o":"m 1264 846 q 1350 718 1318 790 q 1382 564 1382 646 l 1382 0 l 1229 0 l 1229 418 l 290 418 l 290 0 l 139 0 l 139 564 q 171 719 139 647 q 257 846 203 792 q 383 931 311 900 q 538 963 456 963 l 982 963 q 1136 931 1064 963 q 1264 846 1208 900 m 535 811 q 442 792 486 811 q 365 740 399 772 q 312 663 332 707 q 290 571 292 619 l 1229 571 q 1208 663 1228 619 q 1154 740 1188 707 q 1076 792 1121 772 q 982 811 1032 811 l 535 811 m 1316 -254 q 1271 -245 1293 -254 q 1232 -223 1249 -237 q 1204 -189 1214 -209 q 1194 -145 1194 -169 l 1194 -143 q 1211 -74 1194 -106 q 1257 -20 1229 -42 l 1281 2 l 1401 2 l 1310 -84 q 1288 -110 1298 -96 q 1278 -137 1278 -123 q 1281 -150 1278 -144 q 1296 -165 1288 -162 q 1319 -170 1305 -168 l 1528 -170 l 1528 -254 l 1316 -254 z "},"Ć":{"ha":1493,"x_min":139,"x_max":1333,"o":"m 1015 1303 l 735 1024 l 629 1129 l 910 1407 l 1015 1303 m 257 117 q 170 244 201 172 q 139 400 139 317 l 139 564 q 171 719 139 646 q 257 846 203 792 q 384 931 311 900 q 540 963 457 963 l 1333 963 l 1333 811 l 540 811 q 444 792 489 811 q 365 738 399 772 q 312 659 332 704 q 292 564 292 614 l 292 400 q 311 305 292 350 q 364 226 331 260 q 442 172 397 192 q 538 153 486 153 l 1333 153 l 1333 0 l 540 0 q 384 31 457 0 q 257 117 311 63 z "},"Č":{"ha":1588,"x_min":139,"x_max":1333,"o":"m 1208 1342 l 1254 1246 l 814 1038 l 374 1246 l 419 1342 l 814 1154 l 1208 1342 m 257 117 q 170 244 201 172 q 139 400 139 317 l 139 564 q 171 719 139 646 q 257 846 203 792 q 384 931 311 900 q 540 963 457 963 l 1333 963 l 1333 811 l 540 811 q 444 792 489 811 q 365 738 399 772 q 312 659 332 704 q 292 564 292 614 l 292 400 q 311 305 292 350 q 364 226 331 260 q 442 172 397 192 q 538 153 486 153 l 1333 153 l 1333 0 l 540 0 q 384 31 457 0 q 257 117 311 63 z "},"Ĉ":{"ha":1493,"x_min":139,"x_max":1333,"o":"m 814 1225 l 419 1038 l 374 1133 l 814 1342 l 1254 1133 l 1208 1038 l 814 1225 m 257 117 q 170 244 201 172 q 139 400 139 317 l 139 564 q 171 719 139 646 q 257 846 203 792 q 384 931 311 900 q 540 963 457 963 l 1333 963 l 1333 811 l 540 811 q 444 792 489 811 q 365 738 399 772 q 312 659 332 704 q 292 564 292 614 l 292 400 q 311 305 292 350 q 364 226 331 260 q 442 172 397 192 q 538 153 486 153 l 1333 153 l 1333 0 l 540 0 q 384 31 457 0 q 257 117 311 63 z "},"Ď":{"ha":1565,"x_min":140,"x_max":1379,"o":"m 1090 1342 l 1136 1246 l 696 1038 l 256 1246 l 301 1342 l 696 1154 l 1090 1342 m 140 963 l 979 963 q 1135 931 1063 963 q 1263 844 1208 899 q 1348 718 1317 790 q 1379 564 1379 646 l 1379 400 q 1347 244 1379 317 q 1261 117 1315 171 q 1134 31 1207 63 q 979 0 1061 0 l 140 0 l 140 963 m 1226 567 q 1207 661 1226 617 q 1153 739 1188 706 q 1074 792 1119 772 q 979 811 1029 811 l 292 811 l 292 153 l 982 153 q 1076 172 1032 153 q 1154 225 1121 192 q 1207 303 1188 258 q 1226 400 1226 349 l 1226 567 z "},"Đ":{"ha":1511,"x_min":140,"x_max":1379,"o":"m 140 963 l 979 963 q 1135 931 1063 963 q 1263 844 1208 899 q 1348 718 1317 790 q 1379 564 1379 646 l 1379 400 q 1347 244 1379 317 q 1261 117 1315 171 q 1134 31 1207 63 q 979 0 1061 0 l 140 0 l 140 963 m 1226 567 q 1207 661 1226 617 q 1153 739 1188 706 q 1074 792 1119 772 q 979 811 1029 811 l 292 811 l 292 153 l 982 153 q 1076 172 1032 153 q 1154 225 1121 192 q 1207 303 1188 258 q 1226 400 1226 349 l 1226 567 z "},"Ě":{"ha":1468,"x_min":140,"x_max":1335,"o":"m 1186 1342 l 1232 1246 l 792 1038 l 351 1246 l 397 1342 l 792 1154 l 1186 1342 m 365 739 q 313 660 332 704 q 293 564 293 615 l 293 557 l 1335 557 l 1335 404 l 293 404 l 293 397 q 313 303 293 347 q 366 225 332 258 q 445 172 400 192 q 540 153 490 153 l 1335 153 l 1335 0 l 540 0 q 384 32 457 0 q 257 118 311 64 q 172 245 203 172 q 140 400 140 318 l 140 564 q 172 719 140 647 q 258 846 204 792 q 385 931 313 900 q 540 963 458 963 l 1335 963 l 1335 811 l 540 811 q 443 792 488 811 q 365 739 399 772 z "},"Ė":{"ha":1468,"x_min":140,"x_max":1335,"o":"m 739 1194 l 922 1194 l 922 1043 l 739 1043 l 739 1194 m 365 739 q 313 660 332 704 q 293 564 293 615 l 293 557 l 1335 557 l 1335 404 l 293 404 l 293 397 q 313 303 293 347 q 366 225 332 258 q 445 172 400 192 q 540 153 490 153 l 1335 153 l 1335 0 l 540 0 q 384 32 457 0 q 257 118 311 64 q 172 245 203 172 q 140 400 140 318 l 140 564 q 172 719 140 647 q 258 846 204 792 q 385 931 313 900 q 540 963 458 963 l 1335 963 l 1335 811 l 540 811 q 443 792 488 811 q 365 739 399 772 z "},"Ē":{"ha":1468,"x_min":140,"x_max":1335,"o":"m 499 1144 l 1142 1144 l 1142 1039 l 499 1039 l 499 1144 m 365 739 q 313 660 332 704 q 293 564 293 615 l 293 557 l 1335 557 l 1335 404 l 293 404 l 293 397 q 313 303 293 347 q 366 225 332 258 q 445 172 400 192 q 540 153 490 153 l 1335 153 l 1335 0 l 540 0 q 384 32 457 0 q 257 118 311 64 q 172 245 203 172 q 140 400 140 318 l 140 564 q 172 719 140 647 q 258 846 204 792 q 385 931 313 900 q 540 963 458 963 l 1335 963 l 1335 811 l 540 811 q 443 792 488 811 q 365 739 399 772 z "},"Ę":{"ha":1493,"x_min":128,"x_max":1446,"o":"m 1446 -186 l 1446 -293 l 1175 -293 q 1118 -283 1146 -293 q 1068 -253 1090 -272 q 1033 -209 1046 -235 q 1019 -151 1019 -183 q 1040 -67 1019 -107 q 1093 0 1061 -28 l 522 0 q 369 31 440 0 q 244 117 297 63 q 159 242 190 171 q 128 394 128 314 l 128 568 q 159 722 128 650 q 244 847 190 793 q 370 931 299 900 q 522 963 442 963 l 1335 963 l 1335 857 l 522 857 q 410 835 463 857 q 318 772 358 813 q 256 680 278 732 q 233 568 233 628 l 233 533 l 1335 533 l 1335 428 l 233 428 l 233 392 q 256 281 233 333 q 319 190 279 229 q 411 128 358 151 q 522 106 464 106 l 1335 106 l 1335 0 l 1249 0 l 1168 -76 q 1140 -109 1153 -92 q 1126 -144 1126 -126 q 1131 -161 1126 -153 q 1150 -180 1139 -176 q 1179 -186 1161 -183 l 1446 -186 z "},"Ğ":{"ha":1553,"x_min":140,"x_max":1383,"o":"m 571 1219 q 588 1175 571 1193 q 632 1157 606 1157 l 849 1157 q 892 1175 874 1157 q 911 1219 911 1193 l 911 1261 l 1039 1261 l 1039 1219 q 1024 1147 1039 1181 q 983 1087 1010 1113 q 922 1046 957 1061 q 849 1031 888 1031 l 632 1031 q 499 1085 556 1031 q 458 1146 472 1111 q 443 1219 443 1181 l 443 1261 l 571 1261 l 571 1219 m 539 0 q 385 31 457 0 q 258 117 313 63 q 172 244 204 171 q 140 400 140 317 l 140 564 q 172 718 140 646 q 257 844 203 790 q 383 931 311 899 q 539 963 456 963 l 1117 963 l 1117 811 l 539 811 q 444 792 489 811 q 365 739 399 772 q 312 661 332 706 q 292 567 292 617 l 292 400 q 311 305 292 350 q 364 226 331 260 q 442 172 397 192 q 536 153 486 153 l 983 153 q 1078 172 1033 153 q 1157 225 1124 192 q 1210 303 1190 258 q 1231 397 1231 347 l 1231 408 l 815 408 l 815 561 l 1383 561 l 1383 400 q 1352 245 1383 318 q 1267 118 1321 172 q 1140 32 1213 64 q 983 0 1067 0 l 539 0 z "},"Ĝ":{"ha":1476,"x_min":138,"x_max":1307,"o":"m 785 1225 l 390 1038 l 344 1133 l 785 1342 l 1225 1133 l 1179 1038 l 785 1225 m 253 114 q 168 240 199 168 q 138 390 138 311 l 138 569 q 169 722 138 650 q 253 846 200 793 q 377 930 306 899 q 529 961 449 961 l 1307 961 l 1307 811 l 529 811 q 435 792 479 811 q 358 741 390 774 q 306 665 325 708 q 286 571 286 621 l 286 390 q 305 298 286 342 q 356 221 324 254 q 433 168 389 188 q 526 149 476 149 l 1157 149 l 1157 400 l 582 400 l 582 549 l 1307 549 l 1307 0 l 529 0 q 377 31 449 0 q 253 114 306 61 z "},"Ģ":{"ha":1488,"x_min":140,"x_max":1383,"o":"m 539 0 q 385 31 457 0 q 258 117 313 63 q 172 244 204 171 q 140 400 140 317 l 140 564 q 172 718 140 646 q 257 844 203 790 q 383 931 311 899 q 539 963 456 963 l 1117 963 l 1117 811 l 539 811 q 444 792 489 811 q 365 739 399 772 q 312 661 332 706 q 292 567 292 617 l 292 400 q 311 305 292 350 q 364 226 331 260 q 442 172 397 192 q 536 153 486 153 l 983 153 q 1078 172 1033 153 q 1157 225 1124 192 q 1210 303 1190 258 q 1231 397 1231 347 l 1231 408 l 815 408 l 815 561 l 1383 561 l 1383 400 q 1352 245 1383 318 q 1267 118 1321 172 q 1140 32 1213 64 q 983 0 1067 0 l 539 0 m 618 -293 l 739 -35 l 835 -79 l 714 -337 l 618 -293 z "},"Ĥ":{"ha":1563,"x_min":139,"x_max":1308,"o":"m 729 1225 l 335 1038 l 289 1133 l 729 1342 l 1169 1133 l 1124 1038 l 729 1225 m 1308 963 l 1308 0 l 1154 0 l 1154 440 l 292 440 l 292 0 l 139 0 l 139 963 l 292 963 l 292 593 l 1154 593 l 1154 963 l 1308 963 z "},"İ":{"ha":376,"x_min":107,"x_max":290,"o":"m 107 1236 l 290 1236 l 290 1085 l 107 1085 l 107 1236 m 122 0 l 122 963 l 275 963 l 275 0 l 122 0 z "},"Ī":{"ha":626,"x_min":-121,"x_max":522,"o":"m -121 1144 l 522 1144 l 522 1039 l -121 1039 l -121 1144 m 122 0 l 122 963 l 275 963 l 275 0 l 122 0 z "},"Į":{"ha":335,"x_min":47,"x_max":386,"o":"m 122 0 l 122 963 l 275 963 l 275 0 l 122 0 m 172 -259 q 126 -250 148 -259 q 87 -228 104 -242 q 58 -193 69 -213 q 48 -148 48 -172 l 48 -146 q 66 -76 48 -108 q 112 -21 83 -43 l 136 1 l 258 1 l 166 -86 q 143 -112 154 -98 q 133 -140 133 -126 q 136 -154 133 -147 q 152 -168 143 -166 q 175 -173 160 -171 l 387 -173 l 387 -259 l 172 -259 z "},"Ĵ":{"ha":1413,"x_min":139,"x_max":1708,"o":"m 257 117 q 170 244 201 172 q 139 400 139 317 l 139 503 l 292 503 l 292 400 q 311 305 292 350 q 364 226 331 260 q 442 172 397 192 q 538 153 486 153 l 911 153 q 1006 172 961 153 q 1085 225 1051 192 q 1139 303 1119 258 q 1158 397 1158 347 l 1158 963 l 1311 963 l 1311 400 q 1280 244 1311 317 q 1193 117 1249 172 q 1067 31 1139 63 q 911 0 994 0 l 539 0 q 383 31 456 0 q 257 117 311 63 m 1268 1222 l 874 1035 l 828 1131 l 1268 1339 l 1708 1131 l 1663 1035 l 1268 1222 z "},"Ķ":{"ha":1444,"x_min":139,"x_max":1335,"o":"m 1335 814 q 1289 629 1335 714 q 1168 490 1243 544 q 1289 349 1243 435 q 1335 165 1335 264 l 1335 0 l 1182 0 l 1182 165 q 1162 262 1182 217 q 1108 340 1142 307 q 1030 393 1075 374 q 933 413 985 413 l 292 413 l 292 0 l 139 0 l 139 974 l 292 974 l 292 567 l 933 567 q 1030 586 985 567 q 1109 639 1075 606 q 1163 717 1143 672 q 1182 814 1182 763 l 1182 974 l 1335 974 l 1335 814 l 1335 814 m 599 -210 l 719 49 l 815 4 l 694 -254 l 599 -210 z "},"Ľ":{"ha":1403,"x_min":139,"x_max":1332,"o":"m 667 690 l 743 972 l 833 972 l 757 690 l 667 690 m 292 963 l 292 401 q 311 304 292 349 q 364 226 331 260 q 442 173 397 193 q 539 153 486 153 l 1332 153 l 1332 0 l 539 0 q 383 31 456 0 q 256 118 311 63 q 170 245 201 172 q 139 401 139 318 l 139 963 l 292 963 z "},"Ń":{"ha":1615,"x_min":140,"x_max":1388,"o":"m 1094 1206 l 814 926 l 708 1032 l 989 1310 l 1094 1206 m 1090 11 q 1054 32 1071 19 q 1019 65 1038 44 q 866 244 946 150 q 705 435 786 339 q 544 624 624 531 q 392 804 464 718 q 350 821 375 821 q 310 810 328 821 q 292 775 293 799 l 292 0 l 140 0 l 140 786 l 142 790 q 163 868 144 833 q 212 926 182 903 q 278 963 242 950 q 353 975 315 975 q 438 958 397 975 q 510 900 479 940 q 822 532 667 715 q 1136 163 978 349 q 1155 150 1143 156 q 1178 144 1167 144 q 1214 157 1197 144 q 1235 190 1231 169 l 1235 965 l 1388 965 l 1388 179 q 1364 101 1383 136 q 1316 42 1344 67 q 1251 3 1288 17 q 1176 -10 1215 -10 q 1133 -5 1156 -10 q 1090 11 1110 0 z "},"Ň":{"ha":1615,"x_min":140,"x_max":1388,"o":"m 1176 1315 l 1222 1219 l 782 1011 l 342 1219 l 388 1315 l 782 1128 l 1176 1315 m 1090 11 q 1054 32 1071 19 q 1019 65 1038 44 q 866 244 946 150 q 705 435 786 339 q 544 624 624 531 q 392 804 464 718 q 350 821 375 821 q 310 810 328 821 q 292 775 293 799 l 292 0 l 140 0 l 140 786 l 142 790 q 163 868 144 833 q 212 926 182 903 q 278 963 242 950 q 353 975 315 975 q 438 958 397 975 q 510 900 479 940 q 822 532 667 715 q 1136 163 978 349 q 1155 150 1143 156 q 1178 144 1167 144 q 1214 157 1197 144 q 1235 190 1231 169 l 1235 965 l 1388 965 l 1388 179 q 1364 101 1383 136 q 1316 42 1344 67 q 1251 3 1288 17 q 1176 -10 1215 -10 q 1133 -5 1156 -10 q 1090 11 1110 0 z "},"Ņ":{"ha":1615,"x_min":140,"x_max":1388,"o":"m 1090 11 q 1054 32 1071 19 q 1019 65 1038 44 q 866 244 946 150 q 705 435 786 339 q 544 624 624 531 q 392 804 464 718 q 350 821 375 821 q 310 810 328 821 q 292 775 293 799 l 292 0 l 140 0 l 140 786 l 142 790 q 163 868 144 833 q 212 926 182 903 q 278 963 242 950 q 353 975 315 975 q 438 958 397 975 q 510 900 479 940 q 822 532 667 715 q 1136 163 978 349 q 1155 150 1143 156 q 1178 144 1167 144 q 1214 157 1197 144 q 1235 190 1231 169 l 1235 965 l 1388 965 l 1388 179 q 1364 101 1383 136 q 1316 42 1344 67 q 1251 3 1288 17 q 1176 -10 1215 -10 q 1133 -5 1156 -10 q 1090 11 1110 0 m 636 -210 l 757 49 l 853 4 l 732 -254 l 636 -210 z "},"Ő":{"ha":1700,"x_min":143,"x_max":1618,"o":"m 917 1258 l 653 996 l 578 1071 l 842 1333 l 917 1258 m 1222 1258 l 958 996 l 883 1071 l 1147 1333 l 1222 1258 m 543 0 q 387 31 460 0 q 260 117 314 63 q 174 244 206 171 q 143 400 143 317 l 143 564 q 174 719 143 646 q 260 846 206 792 q 387 931 314 900 q 543 963 460 963 l 1218 963 q 1374 931 1301 963 q 1501 846 1447 900 q 1587 719 1556 792 q 1618 564 1618 646 l 1618 400 q 1587 244 1618 317 q 1501 117 1556 171 q 1374 31 1447 63 q 1218 0 1301 0 l 543 0 m 296 400 q 315 303 296 349 q 368 225 335 258 q 447 172 401 192 q 543 153 492 153 l 1218 153 q 1315 172 1269 153 q 1394 225 1360 192 q 1447 303 1428 258 q 1467 400 1467 349 l 1467 564 q 1447 659 1467 614 q 1394 738 1428 704 q 1315 792 1360 772 q 1218 811 1269 811 l 543 811 q 447 792 492 811 q 368 738 401 772 q 315 659 335 704 q 296 564 296 614 l 296 400 z "},"Ō":{"ha":1700,"x_min":143,"x_max":1618,"o":"m 586 1144 l 1229 1144 l 1229 1039 l 586 1039 l 586 1144 m 543 0 q 387 31 460 0 q 260 117 314 63 q 174 244 206 171 q 143 400 143 317 l 143 564 q 174 719 143 646 q 260 846 206 792 q 387 931 314 900 q 543 963 460 963 l 1218 963 q 1374 931 1301 963 q 1501 846 1447 900 q 1587 719 1556 792 q 1618 564 1618 646 l 1618 400 q 1587 244 1618 317 q 1501 117 1556 171 q 1374 31 1447 63 q 1218 0 1301 0 l 543 0 m 296 400 q 315 303 296 349 q 368 225 335 258 q 447 172 401 192 q 543 153 492 153 l 1218 153 q 1315 172 1269 153 q 1394 225 1360 192 q 1447 303 1428 258 q 1467 400 1467 349 l 1467 564 q 1447 659 1467 614 q 1394 738 1428 704 q 1315 792 1360 772 q 1218 811 1269 811 l 543 811 q 447 792 492 811 q 368 738 401 772 q 315 659 335 704 q 296 564 296 614 l 296 400 z "},"Ŕ":{"ha":1592,"x_min":128,"x_max":1467,"o":"m 939 1303 l 658 1024 l 553 1129 l 833 1407 l 939 1303 m 1325 443 q 1264 397 1299 415 q 1192 367 1229 378 q 1259 276 1224 324 q 1331 181 1294 229 q 1401 87 1367 133 q 1467 0 1436 40 l 1275 0 l 1011 353 l 279 353 l 279 0 l 128 0 l 128 963 l 1103 963 q 1278 913 1200 963 q 1382 805 1343 872 q 1421 658 1421 738 q 1396 540 1421 594 q 1325 442 1371 485 l 1325 443 m 279 506 l 1107 506 q 1169 517 1139 506 q 1221 550 1199 529 q 1256 599 1243 571 q 1269 658 1269 626 q 1256 718 1269 690 q 1219 767 1242 746 q 1166 799 1196 788 q 1103 811 1136 811 l 279 811 l 279 506 z "},"Ř":{"ha":1624,"x_min":128,"x_max":1467,"o":"m 1131 1342 l 1176 1246 l 736 1038 l 296 1246 l 342 1342 l 736 1154 l 1131 1342 m 1325 443 q 1264 397 1299 415 q 1192 367 1229 378 q 1259 276 1224 324 q 1331 181 1294 229 q 1401 87 1367 133 q 1467 0 1436 40 l 1275 0 l 1011 353 l 279 353 l 279 0 l 128 0 l 128 963 l 1103 963 q 1278 913 1200 963 q 1382 805 1343 872 q 1421 658 1421 738 q 1396 540 1421 594 q 1325 442 1371 485 l 1325 443 m 279 506 l 1107 506 q 1169 517 1139 506 q 1221 550 1199 529 q 1256 599 1243 571 q 1269 658 1269 626 q 1256 718 1269 690 q 1219 767 1242 746 q 1166 799 1196 788 q 1103 811 1136 811 l 279 811 l 279 506 z "},"Ŗ":{"ha":1561,"x_min":128,"x_max":1467,"o":"m 1325 443 q 1264 397 1299 415 q 1192 367 1229 378 q 1259 276 1224 324 q 1331 181 1294 229 q 1401 87 1367 133 q 1467 0 1436 40 l 1275 0 l 1011 353 l 279 353 l 279 0 l 128 0 l 128 963 l 1103 963 q 1278 913 1200 963 q 1382 805 1343 872 q 1421 658 1421 738 q 1396 540 1421 594 q 1325 442 1371 485 l 1325 443 m 279 506 l 1107 506 q 1169 517 1139 506 q 1221 550 1199 529 q 1256 599 1243 571 q 1269 658 1269 626 q 1256 718 1269 690 q 1219 767 1242 746 q 1166 799 1196 788 q 1103 811 1136 811 l 279 811 l 279 506 z "},"Ś":{"ha":1519,"x_min":74,"x_max":1297,"o":"m 908 1206 l 628 926 l 522 1032 l 803 1310 l 908 1206 m 124 0 l 124 153 l 1019 153 q 1069 163 1046 153 q 1108 190 1092 172 q 1135 230 1125 207 q 1144 279 1144 253 q 1108 369 1144 332 q 1019 406 1072 406 l 353 406 q 245 427 296 406 q 156 487 194 449 q 96 576 118 525 q 74 685 74 626 q 95 794 74 743 q 155 883 117 844 q 244 943 193 921 q 353 965 294 965 l 1247 965 l 1247 814 l 353 814 q 265 777 299 814 q 226 689 231 740 q 266 596 231 633 q 353 558 301 558 l 1019 558 q 1127 536 1076 558 q 1215 476 1178 514 q 1275 388 1253 439 q 1297 281 1297 338 q 1276 171 1297 222 q 1217 82 1254 119 q 1128 22 1179 44 q 1019 0 1078 0 l 124 0 z "},"Ş":{"ha":1519,"x_min":74,"x_max":1297,"o":"m 449 -356 l 449 -212 l 604 -212 q 642 -195 628 -212 q 657 -156 657 -178 l 657 4 l 800 4 l 800 -156 q 784 -231 800 -194 q 741 -294 768 -267 q 678 -339 714 -322 q 600 -356 642 -356 l 449 -356 m 124 0 l 124 153 l 1019 153 q 1069 163 1046 153 q 1108 190 1092 172 q 1135 230 1125 207 q 1144 279 1144 253 q 1108 369 1144 332 q 1019 406 1072 406 l 353 406 q 245 427 296 406 q 156 487 194 449 q 96 576 118 525 q 74 685 74 626 q 95 794 74 743 q 155 883 117 844 q 244 943 193 921 q 353 965 294 965 l 1247 965 l 1247 814 l 353 814 q 265 777 299 814 q 226 689 231 740 q 266 596 231 633 q 353 558 301 558 l 1019 558 q 1127 536 1076 558 q 1215 476 1178 514 q 1275 388 1253 439 q 1297 281 1297 338 q 1276 171 1297 222 q 1217 82 1254 119 q 1128 22 1179 44 q 1019 0 1078 0 l 124 0 z "},"Ŝ":{"ha":1519,"x_min":74,"x_max":1297,"o":"m 707 1225 l 313 1038 l 267 1133 l 707 1342 l 1147 1133 l 1101 1038 l 707 1225 m 124 0 l 124 153 l 1019 153 q 1069 163 1046 153 q 1108 190 1092 172 q 1135 230 1125 207 q 1144 279 1144 253 q 1108 369 1144 332 q 1019 406 1072 406 l 353 406 q 245 427 296 406 q 156 487 194 449 q 96 576 118 525 q 74 685 74 626 q 95 794 74 743 q 155 883 117 844 q 244 943 193 921 q 353 965 294 965 l 1247 965 l 1247 814 l 353 814 q 265 777 299 814 q 226 689 231 740 q 266 596 231 633 q 353 558 301 558 l 1019 558 q 1127 536 1076 558 q 1215 476 1178 514 q 1275 388 1253 439 q 1297 281 1297 338 q 1276 171 1297 222 q 1217 82 1254 119 q 1128 22 1179 44 q 1019 0 1078 0 l 124 0 z "},"Ș":{"ha":1489,"x_min":74,"x_max":1297,"o":"m 124 0 l 124 153 l 1019 153 q 1069 163 1046 153 q 1108 190 1092 172 q 1135 230 1125 207 q 1144 279 1144 253 q 1108 369 1144 332 q 1019 406 1072 406 l 353 406 q 245 427 296 406 q 156 487 194 449 q 96 576 118 525 q 74 685 74 626 q 95 794 74 743 q 155 883 117 844 q 244 943 193 921 q 353 965 294 965 l 1247 965 l 1247 814 l 353 814 q 265 777 299 814 q 226 689 231 740 q 266 596 231 633 q 353 558 301 558 l 1019 558 q 1127 536 1076 558 q 1215 476 1178 514 q 1275 388 1253 439 q 1297 281 1297 338 q 1276 171 1297 222 q 1217 82 1254 119 q 1128 22 1179 44 q 1019 0 1078 0 l 124 0 m 585 -310 l 706 -51 l 801 -96 l 681 -354 l 585 -310 z "},"Ț":{"ha":1449,"x_min":125,"x_max":1315,"o":"m 1315 811 l 796 811 l 796 0 l 644 0 l 644 811 l 125 811 l 125 963 l 1315 963 l 1315 811 m 613 -274 l 733 -15 l 829 -60 l 708 -318 l 613 -274 z "},"Ŭ":{"ha":1413,"x_min":139,"x_max":1367,"o":"m 554 1192 q 572 1147 554 1165 q 615 1129 589 1129 l 832 1129 q 876 1147 857 1129 q 894 1192 894 1165 l 894 1233 l 1022 1233 l 1022 1192 q 1008 1119 1022 1153 q 967 1059 993 1085 q 906 1018 940 1033 q 832 1003 871 1003 l 615 1003 q 482 1057 539 1003 q 441 1118 456 1083 q 426 1192 426 1153 l 426 1233 l 554 1233 l 554 1192 m 257 117 q 170 244 201 172 q 139 400 139 317 l 139 963 l 292 963 l 292 400 q 311 305 292 350 q 364 226 331 260 q 442 172 397 192 q 538 153 486 153 l 967 153 q 1062 172 1017 153 q 1141 225 1107 192 q 1194 303 1175 258 q 1214 397 1214 347 l 1214 963 l 1367 963 l 1367 400 q 1335 244 1367 317 q 1249 117 1304 172 q 1122 31 1194 63 q 967 0 1050 0 l 539 0 q 383 31 456 0 q 257 117 311 63 z "},"Ű":{"ha":1653,"x_min":139,"x_max":1367,"o":"m 764 1258 l 500 996 l 425 1071 l 689 1333 l 764 1258 m 1069 1258 l 806 996 l 731 1071 l 994 1333 l 1069 1258 m 257 117 q 170 244 201 172 q 139 400 139 317 l 139 963 l 292 963 l 292 400 q 311 305 292 350 q 364 226 331 260 q 442 172 397 192 q 538 153 486 153 l 967 153 q 1062 172 1017 153 q 1141 225 1107 192 q 1194 303 1175 258 q 1214 397 1214 347 l 1214 963 l 1367 963 l 1367 400 q 1335 244 1367 317 q 1249 117 1304 172 q 1122 31 1194 63 q 967 0 1050 0 l 539 0 q 383 31 456 0 q 257 117 311 63 z "},"Ū":{"ha":1413,"x_min":139,"x_max":1367,"o":"m 411 1144 l 1054 1144 l 1054 1039 l 411 1039 l 411 1144 m 257 117 q 170 244 201 172 q 139 400 139 317 l 139 963 l 292 963 l 292 400 q 311 305 292 350 q 364 226 331 260 q 442 172 397 192 q 538 153 486 153 l 967 153 q 1062 172 1017 153 q 1141 225 1107 192 q 1194 303 1175 258 q 1214 397 1214 347 l 1214 963 l 1367 963 l 1367 400 q 1335 244 1367 317 q 1249 117 1304 172 q 1122 31 1194 63 q 967 0 1050 0 l 539 0 q 383 31 456 0 q 257 117 311 63 z "},"Ų":{"ha":1469,"x_min":139,"x_max":1367,"o":"m 699 -325 q 642 -315 669 -325 q 592 -286 614 -304 q 556 -242 569 -268 q 543 -186 543 -217 l 543 -183 q 565 -95 543 -136 q 624 -26 588 -54 l 654 1 l 807 1 l 692 -108 q 663 -141 676 -124 q 650 -176 650 -158 q 654 -193 650 -185 q 674 -212 663 -208 q 703 -218 685 -215 l 969 -218 l 969 -325 l 699 -325 m 257 117 q 170 244 201 172 q 139 400 139 317 l 139 963 l 292 963 l 292 400 q 311 305 292 350 q 364 226 331 260 q 442 172 397 192 q 538 153 486 153 l 967 153 q 1062 172 1017 153 q 1141 225 1107 192 q 1194 303 1175 258 q 1214 397 1214 347 l 1214 963 l 1367 963 l 1367 400 q 1335 244 1367 317 q 1249 117 1304 172 q 1122 31 1194 63 q 967 0 1050 0 l 539 0 q 383 31 456 0 q 257 117 311 63 z "},"Ů":{"ha":1653,"x_min":139,"x_max":1367,"o":"m 638 1011 q 504 1067 560 1011 q 463 1127 478 1093 q 449 1200 449 1161 l 449 1218 q 463 1292 449 1257 q 503 1352 478 1326 q 564 1393 529 1378 q 638 1408 599 1408 l 828 1408 q 901 1393 867 1408 q 962 1352 936 1378 q 1003 1292 988 1326 q 1018 1218 1018 1257 l 1018 1200 q 1003 1127 1018 1161 q 963 1067 989 1093 q 901 1026 936 1042 q 828 1011 867 1011 l 638 1011 m 594 1263 q 576 1218 576 1244 l 576 1200 q 594 1156 576 1174 q 638 1139 611 1139 l 828 1139 q 873 1156 854 1139 q 892 1200 892 1174 l 892 1218 q 873 1263 892 1244 q 828 1281 854 1281 l 638 1281 q 613 1275 624 1281 q 594 1263 601 1269 m 257 117 q 170 244 201 172 q 139 400 139 317 l 139 963 l 292 963 l 292 400 q 311 305 292 350 q 364 226 331 260 q 442 172 397 192 q 538 153 486 153 l 967 153 q 1062 172 1017 153 q 1141 225 1107 192 q 1194 303 1175 258 q 1214 397 1214 347 l 1214 963 l 1367 963 l 1367 400 q 1335 244 1367 317 q 1249 117 1304 172 q 1122 31 1194 63 q 967 0 1050 0 l 539 0 q 383 31 456 0 q 257 117 311 63 z "},"Ź":{"ha":1514,"x_min":111,"x_max":1333,"o":"m 989 1206 l 708 926 l 603 1032 l 883 1310 l 989 1206 m 307 0 q 222 19 258 0 q 160 69 185 39 q 124 138 136 100 q 111 214 111 176 q 131 301 111 267 q 174 357 150 336 q 236 394 200 382 q 456 470 342 431 q 685 551 569 510 q 915 631 800 592 q 1135 707 1029 671 q 1146 713 1139 711 l 1144 711 q 1168 725 1154 715 q 1182 757 1182 735 q 1181 769 1182 761 q 1175 788 1179 778 q 1162 804 1171 797 q 1136 811 1153 811 l 119 811 l 119 963 l 1144 963 q 1246 933 1208 963 q 1303 867 1283 904 q 1328 798 1322 831 q 1333 757 1333 765 q 1317 672 1333 706 q 1282 618 1301 638 q 1232 581 1260 593 q 760 416 1000 501 q 289 251 521 331 l 290 253 q 267 233 274 244 q 261 208 261 221 q 274 172 261 189 q 310 153 288 154 l 1325 153 l 1325 0 l 307 0 z "},"Ż":{"ha":1514,"x_min":111,"x_max":1333,"o":"m 635 1219 l 818 1219 l 818 1068 l 635 1068 l 635 1219 m 307 0 q 222 19 258 0 q 160 69 185 39 q 124 138 136 100 q 111 214 111 176 q 131 301 111 267 q 174 357 150 336 q 236 394 200 382 q 456 470 342 431 q 685 551 569 510 q 915 631 800 592 q 1135 707 1029 671 q 1146 713 1139 711 l 1144 711 q 1168 725 1154 715 q 1182 757 1182 735 q 1181 769 1182 761 q 1175 788 1179 778 q 1162 804 1171 797 q 1136 811 1153 811 l 119 811 l 119 963 l 1144 963 q 1246 933 1208 963 q 1303 867 1283 904 q 1328 798 1322 831 q 1333 757 1333 765 q 1317 672 1333 706 q 1282 618 1301 638 q 1232 581 1260 593 q 760 416 1000 501 q 289 251 521 331 l 290 253 q 267 233 274 244 q 261 208 261 221 q 274 172 261 189 q 310 153 288 154 l 1325 153 l 1325 0 l 307 0 z "},"ă":{"ha":1503,"x_min":136,"x_max":1332,"o":"m 447 0 q 358 14 401 0 q 278 51 315 28 q 211 108 240 75 q 164 181 182 142 q 144 238 151 208 q 136 297 136 267 q 161 414 136 360 q 228 509 186 468 q 326 573 271 550 q 443 596 382 596 l 1183 596 l 1183 631 q 1169 694 1183 664 q 1133 746 1156 724 q 1081 781 1111 768 q 1018 793 1051 793 l 346 793 l 346 943 l 1018 943 q 1140 919 1083 943 q 1240 852 1197 894 q 1308 753 1283 810 q 1332 631 1332 696 l 1332 -1 l 447 0 m 357 419 q 305 367 324 399 q 286 297 286 336 q 299 238 286 265 q 333 192 313 211 q 383 160 354 172 q 443 149 411 149 l 1183 149 l 1183 446 l 447 446 q 357 419 396 446 m 601 1219 q 619 1175 601 1193 q 663 1157 636 1157 l 879 1157 q 923 1175 904 1157 q 942 1219 942 1193 l 942 1261 l 1069 1261 l 1069 1219 q 1055 1147 1069 1181 q 1014 1087 1040 1113 q 953 1046 988 1061 q 879 1031 918 1031 l 663 1031 q 529 1085 586 1031 q 488 1146 503 1111 q 474 1219 474 1181 l 474 1261 l 601 1261 l 601 1219 z "},"ā":{"ha":1503,"x_min":136,"x_max":1332,"o":"m 447 0 q 358 14 401 0 q 278 51 315 28 q 211 108 240 75 q 164 181 182 142 q 144 238 151 208 q 136 297 136 267 q 161 414 136 360 q 228 509 186 468 q 326 573 271 550 q 443 596 382 596 l 1183 596 l 1183 631 q 1169 694 1183 664 q 1133 746 1156 724 q 1081 781 1111 768 q 1018 793 1051 793 l 346 793 l 346 943 l 1018 943 q 1140 919 1083 943 q 1240 852 1197 894 q 1308 753 1283 810 q 1332 631 1332 696 l 1332 -1 l 447 0 m 357 419 q 305 367 324 399 q 286 297 286 336 q 299 238 286 265 q 333 192 313 211 q 383 160 354 172 q 443 149 411 149 l 1183 149 l 1183 446 l 447 446 q 357 419 396 446 m 457 1158 l 1100 1158 l 1100 1053 l 457 1053 l 457 1158 z "},"ą":{"ha":1504,"x_min":136,"x_max":1506,"o":"m 447 0 q 358 14 401 0 q 278 51 315 28 q 211 108 240 75 q 164 181 182 142 q 144 238 151 208 q 136 297 136 267 q 161 414 136 360 q 228 509 186 468 q 326 573 271 550 q 443 596 382 596 l 1183 596 l 1183 631 q 1169 694 1183 664 q 1133 746 1156 724 q 1081 781 1111 768 q 1018 793 1051 793 l 346 793 l 346 943 l 1018 943 q 1140 919 1083 943 q 1240 852 1197 894 q 1308 753 1283 810 q 1332 631 1332 696 l 1332 -1 l 447 0 m 357 419 q 305 367 324 399 q 286 297 286 336 q 299 238 286 265 q 333 192 313 211 q 383 160 354 172 q 443 149 411 149 l 1183 149 l 1183 446 l 447 446 q 357 419 396 446 m 1269 -275 q 1219 -266 1244 -275 q 1175 -241 1195 -257 q 1144 -203 1156 -226 q 1133 -154 1133 -180 l 1133 -151 q 1152 -74 1133 -110 q 1203 -14 1172 -38 l 1230 11 l 1364 11 l 1263 -86 q 1238 -114 1250 -99 q 1227 -145 1227 -129 q 1230 -160 1227 -152 q 1247 -176 1237 -173 q 1273 -182 1257 -179 l 1506 -182 l 1506 -275 l 1269 -275 z "},"ć":{"ha":1493,"x_min":139,"x_max":1333,"o":"m 1001 1317 l 721 1038 l 615 1143 l 896 1421 l 1001 1317 m 257 117 q 170 244 201 172 q 139 400 139 317 l 139 564 q 171 719 139 646 q 257 846 203 792 q 384 931 311 900 q 540 963 457 963 l 1333 963 l 1333 811 l 540 811 q 444 792 489 811 q 365 738 399 772 q 312 659 332 704 q 292 564 292 614 l 292 400 q 311 305 292 350 q 364 226 331 260 q 442 172 397 192 q 538 153 486 153 l 1333 153 l 1333 0 l 540 0 q 384 31 457 0 q 257 117 311 63 z "},"č":{"ha":1588,"x_min":139,"x_max":1333,"o":"m 1208 1342 l 1254 1246 l 814 1038 l 374 1246 l 419 1342 l 814 1154 l 1208 1342 m 257 117 q 170 244 201 172 q 139 400 139 317 l 139 564 q 171 719 139 646 q 257 846 203 792 q 384 931 311 900 q 540 963 457 963 l 1333 963 l 1333 811 l 540 811 q 444 792 489 811 q 365 738 399 772 q 312 659 332 704 q 292 564 292 614 l 292 400 q 311 305 292 350 q 364 226 331 260 q 442 172 397 192 q 538 153 486 153 l 1333 153 l 1333 0 l 540 0 q 384 31 457 0 q 257 117 311 63 z "},"ĉ":{"ha":1467,"x_min":139,"x_max":1333,"o":"m 814 1225 l 419 1038 l 374 1133 l 814 1342 l 1254 1133 l 1208 1038 l 814 1225 m 257 117 q 170 244 201 172 q 139 400 139 317 l 139 564 q 171 719 139 646 q 257 846 203 792 q 384 931 311 900 q 540 963 457 963 l 1333 963 l 1333 811 l 540 811 q 444 792 489 811 q 365 738 399 772 q 312 659 332 704 q 292 564 292 614 l 292 400 q 311 305 292 350 q 364 226 331 260 q 442 172 397 192 q 538 153 486 153 l 1333 153 l 1333 0 l 540 0 q 384 31 457 0 q 257 117 311 63 z "},"":{"ha":375,"x_min":67,"x_max":283,"o":"m 67 -210 l 188 49 l 283 4 l 163 -254 l 67 -210 z "},"ď":{"ha":1542,"x_min":140,"x_max":1379,"o":"m 1108 1342 l 1154 1246 l 714 1038 l 274 1246 l 319 1342 l 714 1154 l 1108 1342 m 140 963 l 979 963 q 1135 931 1063 963 q 1263 844 1208 899 q 1348 718 1317 790 q 1379 564 1379 646 l 1379 400 q 1347 244 1379 317 q 1261 117 1315 171 q 1134 31 1207 63 q 979 0 1061 0 l 140 0 l 140 963 m 1226 567 q 1207 661 1226 617 q 1153 739 1188 706 q 1074 792 1119 772 q 979 811 1029 811 l 292 811 l 292 153 l 982 153 q 1076 172 1032 153 q 1154 225 1121 192 q 1207 303 1188 258 q 1226 400 1226 349 l 1226 567 z "},"đ":{"ha":1510,"x_min":140,"x_max":1379,"o":"m 140 963 l 979 963 q 1135 931 1063 963 q 1263 844 1208 899 q 1348 718 1317 790 q 1379 564 1379 646 l 1379 400 q 1347 244 1379 317 q 1261 117 1315 171 q 1134 31 1207 63 q 979 0 1061 0 l 140 0 l 140 963 m 1226 567 q 1207 661 1226 617 q 1153 739 1188 706 q 1074 792 1119 772 q 979 811 1029 811 l 292 811 l 292 153 l 982 153 q 1076 172 1032 153 q 1154 225 1121 192 q 1207 303 1188 258 q 1226 400 1226 349 l 1226 567 z "},"":{"ha":1433,"x_min":124,"x_max":1296,"o":"m 242 117 q 155 244 186 172 q 124 400 124 317 l 124 503 l 276 503 l 276 400 q 296 305 276 350 q 349 226 315 260 q 426 172 382 192 q 522 153 471 153 l 896 153 q 991 172 946 153 q 1070 225 1036 192 q 1124 303 1104 258 q 1143 397 1143 347 l 1143 963 l 1296 963 l 1296 400 q 1265 244 1296 317 q 1178 117 1233 172 q 1051 31 1124 63 q 896 0 979 0 l 524 0 q 368 31 440 0 q 242 117 296 63 z "},"ě":{"ha":1519,"x_min":139,"x_max":1360,"o":"m 139 671 q 165 784 139 731 q 233 876 190 838 q 332 938 275 915 q 451 961 389 961 l 1053 961 q 1169 938 1114 961 q 1267 873 1225 914 q 1335 778 1310 832 q 1360 663 1360 724 q 1335 546 1360 600 q 1267 451 1310 492 q 1167 387 1224 410 q 1047 364 1110 364 l 288 364 l 288 251 q 348 176 300 204 q 451 149 396 149 l 1333 149 l 1333 0 l 444 0 q 337 17 390 0 q 240 65 283 33 q 168 143 196 97 q 139 247 140 189 l 139 671 m 451 811 q 398 800 426 811 q 344 770 369 789 q 303 724 319 751 q 288 667 288 697 l 288 514 l 1053 514 q 1113 526 1083 514 q 1163 557 1142 538 q 1198 603 1185 576 q 1211 663 1211 631 q 1198 722 1211 694 q 1162 769 1185 749 q 1109 800 1139 789 q 1047 811 1079 811 l 451 811 m 1133 1342 l 1179 1246 l 739 1038 l 299 1246 l 344 1342 l 739 1154 l 1133 1342 z "},"ė":{"ha":1485,"x_min":111,"x_max":1332,"o":"m 111 671 q 137 784 111 731 q 205 876 163 838 q 304 938 247 915 q 424 961 361 961 l 1025 961 q 1142 938 1086 961 q 1240 873 1197 914 q 1307 778 1282 832 q 1332 663 1332 724 q 1307 546 1332 600 q 1239 451 1282 492 q 1139 387 1196 410 q 1019 364 1082 364 l 260 364 l 260 251 q 320 176 272 204 q 424 149 368 149 l 1306 149 l 1306 0 l 417 0 q 309 17 363 0 q 212 65 256 33 q 140 143 168 97 q 111 247 113 189 l 111 671 m 424 811 q 370 800 399 811 q 317 770 342 789 q 276 724 292 751 q 260 667 260 697 l 260 514 l 1025 514 q 1085 526 1056 514 q 1135 557 1114 538 q 1170 603 1157 576 q 1183 663 1183 631 q 1170 722 1183 694 q 1134 769 1157 749 q 1081 800 1111 789 q 1019 811 1051 811 l 424 811 m 646 1194 l 829 1194 l 829 1043 l 646 1043 l 646 1194 z "},"ē":{"ha":1475,"x_min":111,"x_max":1332,"o":"m 111 671 q 137 784 111 731 q 205 876 163 838 q 304 938 247 915 q 424 961 361 961 l 1025 961 q 1142 938 1086 961 q 1240 873 1197 914 q 1307 778 1282 832 q 1332 663 1332 724 q 1307 546 1332 600 q 1239 451 1282 492 q 1139 387 1196 410 q 1019 364 1082 364 l 260 364 l 260 251 q 320 176 272 204 q 424 149 368 149 l 1306 149 l 1306 0 l 417 0 q 309 17 363 0 q 212 65 256 33 q 140 143 168 97 q 111 247 113 189 l 111 671 m 424 811 q 370 800 399 811 q 317 770 342 789 q 276 724 292 751 q 260 667 260 697 l 260 514 l 1025 514 q 1085 526 1056 514 q 1135 557 1114 538 q 1170 603 1157 576 q 1183 663 1183 631 q 1170 722 1183 694 q 1134 769 1157 749 q 1081 800 1111 789 q 1019 811 1051 811 l 424 811 m 419 1144 l 1063 1144 l 1063 1039 l 419 1039 l 419 1144 z "},"ę":{"ha":1558,"x_min":139,"x_max":1360,"o":"m 139 671 q 165 784 139 731 q 233 876 190 838 q 332 938 275 915 q 451 961 389 961 l 1053 961 q 1169 938 1114 961 q 1267 873 1225 914 q 1335 778 1310 832 q 1360 663 1360 724 q 1335 546 1360 600 q 1267 451 1310 492 q 1167 387 1224 410 q 1047 364 1110 364 l 288 364 l 288 251 q 348 176 300 204 q 451 149 396 149 l 1333 149 l 1333 0 l 444 0 q 337 17 390 0 q 240 65 283 33 q 168 143 196 97 q 139 247 140 189 l 139 671 m 451 811 q 398 800 426 811 q 344 770 369 789 q 303 724 319 751 q 288 667 288 697 l 288 514 l 1053 514 q 1113 526 1083 514 q 1163 557 1142 538 q 1198 603 1185 576 q 1211 663 1211 631 q 1198 722 1211 694 q 1162 769 1185 749 q 1109 800 1139 789 q 1047 811 1079 811 l 451 811 m 726 -325 q 669 -315 697 -325 q 619 -286 642 -304 q 584 -242 597 -268 q 571 -186 571 -217 l 571 -183 q 593 -95 571 -136 q 651 -26 615 -54 l 682 1 l 835 1 l 719 -108 q 691 -141 704 -124 q 678 -176 678 -158 q 682 -193 678 -185 q 701 -212 690 -208 q 731 -218 713 -215 l 997 -218 l 997 -325 l 726 -325 z "},"ğ":{"ha":1604,"x_min":532,"x_max":1128,"o":"m 660 1192 q 677 1147 660 1165 q 721 1129 694 1129 l 938 1129 q 981 1147 963 1129 q 1000 1192 1000 1165 l 1000 1233 l 1128 1233 l 1128 1192 q 1113 1119 1128 1153 q 1072 1059 1099 1085 q 1011 1018 1046 1033 q 938 1003 976 1003 l 721 1003 q 588 1057 644 1003 q 547 1118 561 1083 q 532 1192 532 1153 l 532 1233 l 660 1233 l 660 1192 z "},"ĝ":{"ha":1604,"x_min":371,"x_max":1251,"o":"m 811 1225 l 417 1038 l 371 1133 l 811 1342 l 1251 1133 l 1206 1038 l 811 1225 z "},"ģ":{"ha":1475,"x_min":138,"x_max":1307,"o":"m 253 114 q 168 240 199 168 q 138 390 138 311 l 138 569 q 169 722 138 650 q 253 846 200 793 q 377 930 306 899 q 529 961 449 961 l 1307 961 l 1307 811 l 529 811 q 435 792 479 811 q 358 741 390 774 q 306 665 325 708 q 286 571 286 621 l 286 390 q 305 298 286 342 q 356 221 324 254 q 433 168 389 188 q 526 149 476 149 l 1157 149 l 1157 400 l 582 400 l 582 549 l 1307 549 l 1307 0 l 529 0 q 377 31 449 0 q 253 114 306 61 m 689 -301 l 810 -43 l 906 -87 l 785 -346 l 689 -301 z "},"ĥ":{"ha":1615,"x_min":138,"x_max":1283,"o":"m 1168 832 q 1253 708 1222 779 q 1283 556 1283 636 l 1283 0 l 1135 0 l 1135 556 q 1115 653 1135 608 q 1063 730 1096 697 q 986 781 1031 763 q 892 799 942 799 l 528 799 q 432 780 476 799 q 356 728 388 761 q 305 650 324 694 q 286 556 286 606 l 286 0 l 138 0 l 138 1156 l 286 1156 l 286 864 q 397 926 336 904 q 528 949 458 949 l 892 949 q 1044 917 972 949 q 1168 832 1115 886 m 782 1225 l 388 1038 l 342 1133 l 782 1342 l 1222 1133 l 1176 1038 l 782 1225 z "},"ī":{"ha":646,"x_min":-125,"x_max":518,"o":"m -125 1131 l 518 1131 l 518 1025 l -125 1025 l -125 1131 m 122 0 l 122 963 l 275 963 l 275 0 l 122 0 z "},"į":{"ha":335,"x_min":53,"x_max":368,"o":"m 122 0 l 122 963 l 275 963 l 275 0 l 122 0 m 169 -243 q 127 -235 148 -243 q 90 -214 106 -228 q 64 -182 74 -201 q 54 -140 54 -163 l 54 -138 q 71 -73 54 -103 q 114 -22 87 -43 l 136 -2 l 249 -2 l 164 -83 q 143 -107 153 -94 q 133 -133 133 -120 q 136 -145 133 -139 q 151 -159 142 -157 q 172 -164 159 -162 l 369 -164 l 369 -243 l 169 -243 z "},"ĵ":{"ha":1472,"x_min":139,"x_max":1285,"o":"m 297 961 l 1285 961 l 1285 390 q 1254 240 1285 311 q 1169 114 1224 168 q 1046 31 1117 61 q 894 0 975 0 l 531 0 q 378 31 449 0 q 254 114 307 61 q 169 240 200 168 q 139 390 139 311 l 139 493 l 288 493 l 288 390 q 306 298 288 342 q 358 221 325 254 q 434 168 390 188 q 528 149 478 149 l 894 149 q 987 167 943 149 q 1064 219 1031 186 q 1117 295 1097 251 q 1136 389 1136 339 l 1136 811 l 297 811 l 297 961 m 804 1222 l 410 1035 l 364 1131 l 804 1339 l 1244 1131 l 1199 1035 l 804 1222 z "},"ķ":{"ha":1510,"x_min":138,"x_max":1392,"o":"m 1033 536 q 1149 483 1096 519 q 1240 397 1201 447 q 1299 286 1278 347 q 1321 158 1321 225 l 1321 0 l 1172 0 l 1172 161 q 1153 253 1172 210 q 1100 330 1133 297 q 1023 381 1067 363 q 929 400 979 400 l 286 400 l 286 0 l 138 0 l 138 961 l 286 961 l 286 550 l 847 550 q 1019 756 932 650 q 1189 961 1106 861 l 1392 961 l 1033 536 m 572 -210 l 693 49 l 789 4 l 668 -254 l 572 -210 z "},"ľ":{"ha":1379,"x_min":-249,"x_max":1332,"o":"m 292 963 l 292 401 q 311 304 292 349 q 364 226 331 260 q 442 173 397 193 q 539 153 486 153 l 1332 153 l 1332 0 l 539 0 q 383 31 456 0 q 256 118 311 63 q 170 245 201 172 q 139 401 139 318 l 139 963 l 292 963 m 586 1325 l 632 1229 l 192 1021 l -249 1229 l -203 1325 l 192 1138 l 586 1325 z "},"ń":{"ha":1426,"x_min":135,"x_max":1281,"o":"m 890 961 q 1042 930 971 961 q 1166 846 1113 899 q 1250 721 1219 793 q 1281 568 1281 649 l 1281 0 l 1132 0 l 1132 568 q 1113 662 1132 618 q 1062 739 1094 706 q 985 792 1029 772 q 893 811 942 811 l 283 811 l 283 0 l 135 0 l 135 961 l 890 961 m 893 1303 l 613 1024 l 507 1129 l 788 1407 l 893 1303 z "},"ň":{"ha":1432,"x_min":135,"x_max":1281,"o":"m 890 961 q 1042 930 971 961 q 1166 846 1113 899 q 1250 721 1219 793 q 1281 568 1281 649 l 1281 0 l 1132 0 l 1132 568 q 1113 662 1132 618 q 1062 739 1094 706 q 985 792 1029 772 q 893 811 942 811 l 283 811 l 283 0 l 135 0 l 135 961 l 890 961 m 1075 1342 l 1121 1246 l 681 1038 l 240 1246 l 286 1342 l 681 1154 l 1075 1342 z "},"ņ":{"ha":1446,"x_min":135,"x_max":1281,"o":"m 890 961 q 1042 930 971 961 q 1166 846 1113 899 q 1250 721 1219 793 q 1281 568 1281 649 l 1281 0 l 1132 0 l 1132 568 q 1113 662 1132 618 q 1062 739 1094 706 q 985 792 1029 772 q 893 811 942 811 l 283 811 l 283 0 l 135 0 l 135 961 l 890 961 m 590 -210 l 711 49 l 807 4 l 686 -254 l 590 -210 z "},"ő":{"ha":1700,"x_min":143,"x_max":1618,"o":"m 913 1258 l 649 996 l 574 1071 l 838 1333 l 913 1258 m 1218 1258 l 954 996 l 879 1071 l 1143 1333 l 1218 1258 m 543 0 q 387 31 460 0 q 260 117 314 63 q 174 244 206 171 q 143 400 143 317 l 143 564 q 174 719 143 646 q 260 846 206 792 q 387 931 314 900 q 543 963 460 963 l 1218 963 q 1374 931 1301 963 q 1501 846 1447 900 q 1587 719 1556 792 q 1618 564 1618 646 l 1618 400 q 1587 244 1618 317 q 1501 117 1556 171 q 1374 31 1447 63 q 1218 0 1301 0 l 543 0 m 296 400 q 315 303 296 349 q 368 225 335 258 q 447 172 401 192 q 543 153 492 153 l 1218 153 q 1315 172 1269 153 q 1394 225 1360 192 q 1447 303 1428 258 q 1467 400 1467 349 l 1467 564 q 1447 659 1467 614 q 1394 738 1428 704 q 1315 792 1360 772 q 1218 811 1269 811 l 543 811 q 447 792 492 811 q 368 738 401 772 q 315 659 335 704 q 296 564 296 614 l 296 400 z "},"ō":{"ha":1700,"x_min":143,"x_max":1618,"o":"m 571 1144 l 1214 1144 l 1214 1039 l 571 1039 l 571 1144 m 543 0 q 387 31 460 0 q 260 117 314 63 q 174 244 206 171 q 143 400 143 317 l 143 564 q 174 719 143 646 q 260 846 206 792 q 387 931 314 900 q 543 963 460 963 l 1218 963 q 1374 931 1301 963 q 1501 846 1447 900 q 1587 719 1556 792 q 1618 564 1618 646 l 1618 400 q 1587 244 1618 317 q 1501 117 1556 171 q 1374 31 1447 63 q 1218 0 1301 0 l 543 0 m 296 400 q 315 303 296 349 q 368 225 335 258 q 447 172 401 192 q 543 153 492 153 l 1218 153 q 1315 172 1269 153 q 1394 225 1360 192 q 1447 303 1428 258 q 1467 400 1467 349 l 1467 564 q 1447 659 1467 614 q 1394 738 1428 704 q 1315 792 1360 772 q 1218 811 1269 811 l 543 811 q 447 792 492 811 q 368 738 401 772 q 315 659 335 704 q 296 564 296 614 l 296 400 z "},"ŕ":{"ha":1324,"x_min":138,"x_max":1214,"o":"m 138 0 l 138 568 q 168 720 138 649 q 251 844 199 792 q 375 928 304 897 q 528 960 446 960 l 1214 960 l 1214 810 l 528 810 q 434 791 478 810 q 358 739 390 772 q 306 662 325 706 q 286 568 286 618 l 286 0 l 138 0 m 946 1206 l 665 926 l 560 1032 l 840 1310 l 946 1206 z "},"ř":{"ha":1324,"x_min":138,"x_max":1214,"o":"m 138 0 l 138 568 q 168 720 138 649 q 251 844 199 792 q 375 928 304 897 q 528 960 446 960 l 1214 960 l 1214 810 l 528 810 q 434 791 478 810 q 358 739 390 772 q 306 662 325 706 q 286 568 286 618 l 286 0 l 138 0 m 1126 1342 l 1172 1246 l 732 1038 l 292 1246 l 338 1342 l 732 1154 l 1126 1342 z "},"ŗ":{"ha":1236,"x_min":67,"x_max":1214,"o":"m 138 0 l 138 568 q 168 720 138 649 q 251 844 199 792 q 375 928 304 897 q 528 960 446 960 l 1214 960 l 1214 810 l 528 810 q 434 791 478 810 q 358 739 390 772 q 306 662 325 706 q 286 568 286 618 l 286 0 l 138 0 m 67 -286 l 188 -28 l 283 -72 l 163 -331 l 67 -286 z "},"ś":{"ha":1414,"x_min":74,"x_max":1297,"o":"m 908 1206 l 628 926 l 522 1032 l 803 1310 l 908 1206 m 124 0 l 124 153 l 1019 153 q 1069 163 1046 153 q 1108 190 1092 172 q 1135 230 1125 207 q 1144 279 1144 253 q 1108 369 1144 332 q 1019 406 1072 406 l 353 406 q 245 427 296 406 q 156 487 194 449 q 96 576 118 525 q 74 685 74 626 q 95 794 74 743 q 155 883 117 844 q 244 943 193 921 q 353 965 294 965 l 1247 965 l 1247 814 l 353 814 q 265 777 299 814 q 226 689 231 740 q 266 596 231 633 q 353 558 301 558 l 1019 558 q 1127 536 1076 558 q 1215 476 1178 514 q 1275 388 1253 439 q 1297 281 1297 338 q 1276 171 1297 222 q 1217 82 1254 119 q 1128 22 1179 44 q 1019 0 1078 0 l 124 0 z "},"ş":{"ha":1519,"x_min":449,"x_max":800,"o":"m 449 -358 l 449 -215 l 604 -215 q 642 -198 628 -215 q 657 -158 657 -181 l 657 1 l 800 1 l 800 -158 q 784 -233 800 -197 q 741 -297 768 -269 q 678 -342 714 -325 q 600 -358 642 -358 l 449 -358 z "},"ŝ":{"ha":1492,"x_min":74,"x_max":1297,"o":"m 729 1225 l 335 1038 l 289 1133 l 729 1342 l 1169 1133 l 1124 1038 l 729 1225 m 124 0 l 124 153 l 1019 153 q 1069 163 1046 153 q 1108 190 1092 172 q 1135 230 1125 207 q 1144 279 1144 253 q 1108 369 1144 332 q 1019 406 1072 406 l 353 406 q 245 427 296 406 q 156 487 194 449 q 96 576 118 525 q 74 685 74 626 q 95 794 74 743 q 155 883 117 844 q 244 943 193 921 q 353 965 294 965 l 1247 965 l 1247 814 l 353 814 q 265 777 299 814 q 226 689 231 740 q 266 596 231 633 q 353 558 301 558 l 1019 558 q 1127 536 1076 558 q 1215 476 1178 514 q 1275 388 1253 439 q 1297 281 1297 338 q 1276 171 1297 222 q 1217 82 1254 119 q 1128 22 1179 44 q 1019 0 1078 0 l 124 0 z "},"ș":{"ha":1493,"x_min":74,"x_max":1297,"o":"m 124 0 l 124 153 l 1019 153 q 1069 163 1046 153 q 1108 190 1092 172 q 1135 230 1125 207 q 1144 279 1144 253 q 1108 369 1144 332 q 1019 406 1072 406 l 353 406 q 245 427 296 406 q 156 487 194 449 q 96 576 118 525 q 74 685 74 626 q 95 794 74 743 q 155 883 117 844 q 244 943 193 921 q 353 965 294 965 l 1247 965 l 1247 814 l 353 814 q 265 777 299 814 q 226 689 231 740 q 266 596 231 633 q 353 558 301 558 l 1019 558 q 1127 536 1076 558 q 1215 476 1178 514 q 1275 388 1253 439 q 1297 281 1297 338 q 1276 171 1297 222 q 1217 82 1254 119 q 1128 22 1179 44 q 1019 0 1078 0 l 124 0 m 576 -310 l 697 -51 l 793 -96 l 672 -354 l 576 -310 z "},"ț":{"ha":1449,"x_min":519,"x_max":1688,"o":"m 1519 663 l 668 663 l 668 392 q 687 297 668 342 q 738 220 706 253 q 815 168 771 188 q 910 149 858 149 l 1688 149 l 1688 0 l 910 0 q 758 31 829 0 q 633 115 688 61 q 550 240 581 168 q 519 392 519 311 l 519 961 l 668 961 l 668 813 l 1519 813 l 1519 663 m 638 -301 l 758 -43 l 854 -87 l 733 -346 l 638 -301 z "},"ŭ":{"ha":1615,"x_min":140,"x_max":1286,"o":"m 531 0 q 379 31 450 0 q 255 115 308 63 q 171 240 201 168 q 140 392 140 311 l 140 961 l 289 961 l 289 392 q 308 299 289 343 q 359 221 326 254 q 435 168 392 188 q 528 149 479 149 l 1138 149 l 1138 961 l 1286 961 l 1286 0 l 531 0 m 568 1178 q 585 1133 568 1151 q 629 1115 603 1115 l 846 1115 q 890 1133 871 1115 q 908 1178 908 1151 l 908 1219 l 1036 1219 l 1036 1178 q 1022 1105 1036 1139 q 981 1045 1007 1071 q 919 1004 954 1019 q 846 989 885 989 l 629 989 q 496 1043 553 989 q 455 1104 469 1069 q 440 1178 440 1139 l 440 1219 l 568 1219 l 568 1178 z "},"ű":{"ha":1538,"x_min":140,"x_max":1286,"o":"m 531 0 q 379 31 450 0 q 255 115 308 63 q 171 240 201 168 q 140 392 140 311 l 140 961 l 289 961 l 289 392 q 308 299 289 343 q 359 221 326 254 q 435 168 392 188 q 528 149 479 149 l 1138 149 l 1138 961 l 1286 961 l 1286 0 l 531 0 m 804 1232 l 540 969 l 465 1044 l 729 1307 l 804 1232 m 1110 1232 l 846 969 l 771 1044 l 1035 1307 l 1110 1232 z "},"ū":{"ha":1439,"x_min":140,"x_max":1286,"o":"m 531 0 q 379 31 450 0 q 255 115 308 63 q 171 240 201 168 q 140 392 140 311 l 140 961 l 289 961 l 289 392 q 308 299 289 343 q 359 221 326 254 q 435 168 392 188 q 528 149 479 149 l 1138 149 l 1138 961 l 1286 961 l 1286 0 l 531 0 m 419 1131 l 1063 1131 l 1063 1025 l 419 1025 l 419 1131 z "},"ų":{"ha":1615,"x_min":140,"x_max":1286,"o":"m 531 0 q 379 31 450 0 q 255 115 308 63 q 171 240 201 168 q 140 392 140 311 l 140 961 l 289 961 l 289 392 q 308 299 289 343 q 359 221 326 254 q 435 168 392 188 q 528 149 479 149 l 1138 149 l 1138 961 l 1286 961 l 1286 0 l 531 0 m 749 -304 q 692 -294 719 -304 q 642 -265 664 -283 q 606 -222 619 -247 q 593 -165 593 -196 l 593 -162 q 615 -74 593 -115 q 674 -6 638 -33 l 704 22 l 857 22 l 742 -87 q 713 -120 726 -103 q 700 -156 700 -137 q 704 -172 700 -164 q 724 -191 713 -187 q 753 -197 735 -194 l 1019 -197 l 1019 -304 l 749 -304 z "},"ů":{"ha":1615,"x_min":140,"x_max":1286,"o":"m 531 0 q 379 31 450 0 q 255 115 308 63 q 171 240 201 168 q 140 392 140 311 l 140 961 l 289 961 l 289 392 q 308 299 289 343 q 359 221 326 254 q 435 168 392 188 q 528 149 479 149 l 1138 149 l 1138 961 l 1286 961 l 1286 0 l 531 0 m 646 1015 q 513 1071 568 1015 q 472 1131 486 1097 q 457 1204 457 1165 l 457 1222 q 472 1296 457 1261 q 512 1356 486 1331 q 572 1397 538 1382 q 646 1413 607 1413 l 836 1413 q 910 1397 875 1413 q 970 1356 944 1382 q 1011 1296 996 1331 q 1026 1222 1026 1261 l 1026 1204 q 1012 1131 1026 1165 q 971 1072 997 1097 q 910 1031 944 1046 q 836 1015 875 1015 l 646 1015 m 603 1267 q 585 1222 585 1249 l 585 1204 q 602 1160 585 1178 q 646 1143 619 1143 l 836 1143 q 881 1160 863 1143 q 900 1204 900 1178 l 900 1222 q 881 1267 900 1249 q 836 1285 863 1285 l 646 1285 q 621 1279 632 1285 q 603 1267 610 1274 z "},"ź":{"ha":1514,"x_min":139,"x_max":1435,"o":"m 139 0 l 139 139 l 1133 813 l 142 813 l 142 963 l 1435 963 l 1435 831 l 426 149 l 1417 149 l 1417 0 l 139 0 m 976 1203 l 696 924 l 590 1029 l 871 1307 l 976 1203 z "},"ż":{"ha":1514,"x_min":139,"x_max":1435,"o":"m 672 1250 l 856 1250 l 856 1099 l 672 1099 l 672 1250 m 139 0 l 139 139 l 1133 813 l 142 813 l 142 963 l 1435 963 l 1435 831 l 426 149 l 1417 149 l 1417 0 l 139 0 z "},"S":{"ha":1414,"x_min":74,"x_max":1297,"o":"m 124 0 l 124 153 l 1019 153 q 1069 163 1046 153 q 1108 190 1092 172 q 1135 230 1125 207 q 1144 279 1144 253 q 1108 369 1144 332 q 1019 406 1072 406 l 353 406 q 245 427 296 406 q 156 487 194 449 q 96 576 118 525 q 74 685 74 626 q 95 794 74 743 q 155 883 117 844 q 244 943 193 921 q 353 965 294 965 l 1247 965 l 1247 814 l 353 814 q 265 777 299 814 q 226 689 231 740 q 266 596 231 633 q 353 558 301 558 l 1019 558 q 1127 536 1076 558 q 1215 476 1178 514 q 1275 388 1253 439 q 1297 281 1297 338 q 1276 171 1297 222 q 1217 82 1254 119 q 1128 22 1179 44 q 1019 0 1078 0 l 124 0 z "},"R":{"ha":1490,"x_min":128,"x_max":1467,"o":"m 1325 443 q 1264 397 1299 415 q 1192 367 1229 378 q 1259 276 1224 324 q 1331 181 1294 229 q 1401 87 1367 133 q 1467 0 1436 40 l 1275 0 l 1011 353 l 279 353 l 279 0 l 128 0 l 128 963 l 1103 963 q 1278 913 1200 963 q 1382 805 1343 872 q 1421 658 1421 738 q 1396 540 1421 594 q 1325 442 1371 485 l 1325 443 m 279 506 l 1107 506 q 1169 517 1139 506 q 1221 550 1199 529 q 1256 599 1243 571 q 1269 658 1269 626 q 1256 718 1269 690 q 1219 767 1242 746 q 1166 799 1196 788 q 1103 811 1136 811 l 279 811 l 279 506 z "},"H":{"ha":1410,"x_min":139,"x_max":1308,"o":"m 1308 963 l 1308 0 l 1154 0 l 1154 440 l 292 440 l 292 0 l 139 0 l 139 963 l 292 963 l 292 593 l 1154 593 l 1154 963 l 1308 963 z "},"I":{"ha":361,"x_min":122,"x_max":275,"o":"m 122 0 l 122 963 l 275 963 l 275 0 l 122 0 z "},"O":{"ha":1733,"x_min":143,"x_max":1618,"o":"m 543 0 q 387 31 460 0 q 260 117 314 63 q 174 244 206 171 q 143 400 143 317 l 143 564 q 174 719 143 646 q 260 846 206 792 q 387 931 314 900 q 543 963 460 963 l 1218 963 q 1374 931 1301 963 q 1501 846 1447 900 q 1587 719 1556 792 q 1618 564 1618 646 l 1618 400 q 1587 244 1618 317 q 1501 117 1556 171 q 1374 31 1447 63 q 1218 0 1301 0 l 543 0 m 296 400 q 315 303 296 349 q 368 225 335 258 q 447 172 401 192 q 543 153 492 153 l 1218 153 q 1315 172 1269 153 q 1394 225 1360 192 q 1447 303 1428 258 q 1467 400 1467 349 l 1467 564 q 1447 659 1467 614 q 1394 738 1428 704 q 1315 792 1360 772 q 1218 811 1269 811 l 543 811 q 447 792 492 811 q 368 738 401 772 q 315 659 335 704 q 296 564 296 614 l 296 400 z "},"o":{"ha":1733,"x_min":143,"x_max":1618,"o":"m 543 0 q 387 31 460 0 q 260 117 314 63 q 174 244 206 171 q 143 400 143 317 l 143 564 q 174 719 143 646 q 260 846 206 792 q 387 931 314 900 q 543 963 460 963 l 1218 963 q 1374 931 1301 963 q 1501 846 1447 900 q 1587 719 1556 792 q 1618 564 1618 646 l 1618 400 q 1587 244 1618 317 q 1501 117 1556 171 q 1374 31 1447 63 q 1218 0 1301 0 l 543 0 m 296 400 q 315 303 296 349 q 368 225 335 258 q 447 172 401 192 q 543 153 492 153 l 1218 153 q 1315 172 1269 153 q 1394 225 1360 192 q 1447 303 1428 258 q 1467 400 1467 349 l 1467 564 q 1447 659 1467 614 q 1394 738 1428 704 q 1315 792 1360 772 q 1218 811 1269 811 l 543 811 q 447 792 492 811 q 368 738 401 772 q 315 659 335 704 q 296 564 296 614 l 296 400 z "},"T":{"ha":1432,"x_min":125,"x_max":1315,"o":"m 1315 811 l 796 811 l 796 0 l 644 0 l 644 811 l 125 811 l 125 963 l 1315 963 l 1315 811 z "},"N":{"ha":1519,"x_min":140,"x_max":1388,"o":"m 1090 11 q 1054 32 1071 19 q 1019 65 1038 44 q 866 244 946 150 q 705 435 786 339 q 544 624 624 531 q 392 804 464 718 q 350 821 375 821 q 310 810 328 821 q 292 775 293 799 l 292 0 l 140 0 l 140 786 l 142 790 q 163 868 144 833 q 212 926 182 903 q 278 963 242 950 q 353 975 315 975 q 438 958 397 975 q 510 900 479 940 q 822 532 667 715 q 1136 163 978 349 q 1155 150 1143 156 q 1178 144 1167 144 q 1214 157 1197 144 q 1235 190 1231 169 l 1235 965 l 1388 965 l 1388 179 q 1364 101 1383 136 q 1316 42 1344 67 q 1251 3 1288 17 q 1176 -10 1215 -10 q 1133 -5 1156 -10 q 1090 11 1110 0 z "},"D":{"ha":1483,"x_min":140,"x_max":1379,"o":"m 140 963 l 979 963 q 1135 931 1063 963 q 1263 844 1208 899 q 1348 718 1317 790 q 1379 564 1379 646 l 1379 400 q 1347 244 1379 317 q 1261 117 1315 171 q 1134 31 1207 63 q 979 0 1061 0 l 140 0 l 140 963 m 1226 567 q 1207 661 1226 617 q 1153 739 1188 706 q 1074 792 1119 772 q 979 811 1029 811 l 292 811 l 292 153 l 982 153 q 1076 172 1032 153 q 1154 225 1121 192 q 1207 303 1188 258 q 1226 400 1226 349 l 1226 567 z "},"E":{"ha":1475,"x_min":140,"x_max":1335,"o":"m 365 739 q 313 660 332 704 q 293 564 293 615 l 293 557 l 1335 557 l 1335 404 l 293 404 l 293 397 q 313 303 293 347 q 366 225 332 258 q 445 172 400 192 q 540 153 490 153 l 1335 153 l 1335 0 l 540 0 q 384 32 457 0 q 257 118 311 64 q 172 245 203 172 q 140 400 140 318 l 140 564 q 172 719 140 647 q 258 846 204 792 q 385 931 313 900 q 540 963 458 963 l 1335 963 l 1335 811 l 540 811 q 443 792 488 811 q 365 739 399 772 z "},"G":{"ha":1488,"x_min":140,"x_max":1383,"o":"m 539 0 q 385 31 457 0 q 258 117 313 63 q 172 244 204 171 q 140 400 140 317 l 140 564 q 172 718 140 646 q 257 844 203 790 q 383 931 311 899 q 539 963 456 963 l 1117 963 l 1117 811 l 539 811 q 444 792 489 811 q 365 739 399 772 q 312 661 332 706 q 292 567 292 617 l 292 400 q 311 305 292 350 q 364 226 331 260 q 442 172 397 192 q 536 153 486 153 l 983 153 q 1078 172 1033 153 q 1157 225 1124 192 q 1210 303 1190 258 q 1231 397 1231 347 l 1231 408 l 815 408 l 815 561 l 1383 561 l 1383 400 q 1352 245 1383 318 q 1267 118 1321 172 q 1140 32 1213 64 q 983 0 1067 0 l 539 0 z "},"U":{"ha":1481,"x_min":139,"x_max":1367,"o":"m 257 117 q 170 244 201 172 q 139 400 139 317 l 139 963 l 292 963 l 292 400 q 311 305 292 350 q 364 226 331 260 q 442 172 397 192 q 538 153 486 153 l 967 153 q 1062 172 1017 153 q 1141 225 1107 192 q 1194 303 1175 258 q 1214 397 1214 347 l 1214 963 l 1367 963 l 1367 400 q 1335 244 1367 317 q 1249 117 1304 172 q 1122 31 1194 63 q 967 0 1050 0 l 539 0 q 383 31 456 0 q 257 117 311 63 z "},"C":{"ha":1436,"x_min":96,"x_max":1290,"o":"m 214 117 q 127 244 158 172 q 96 400 96 317 l 96 564 q 128 719 96 646 q 214 846 160 792 q 341 931 268 900 q 497 963 414 963 l 1290 963 l 1290 811 l 497 811 q 401 792 446 811 q 322 738 356 772 q 269 659 289 704 q 249 564 249 614 l 249 400 q 268 305 249 350 q 321 226 288 260 q 399 172 354 192 q 494 153 443 153 l 1290 153 l 1290 0 l 497 0 q 341 31 414 0 q 214 117 268 63 z "},"P":{"ha":1543,"x_min":143,"x_max":1411,"o":"m 294 0 l 143 0 l 143 961 l 1106 961 q 1222 938 1167 961 q 1319 873 1278 914 q 1386 778 1361 832 q 1411 663 1411 724 q 1385 546 1411 600 q 1317 451 1360 492 q 1217 387 1274 410 q 1099 364 1160 364 l 294 364 l 294 0 m 1101 513 q 1162 524 1133 513 q 1212 556 1190 536 q 1247 603 1233 576 q 1263 663 1261 631 q 1247 720 1261 693 q 1211 767 1233 747 q 1160 799 1189 788 q 1099 811 1131 811 l 294 811 l 294 513 l 1101 513 z "},"Q":{"ha":1733,"x_min":131,"x_max":1689,"o":"m 529 0 q 374 31 447 0 q 247 117 301 63 q 162 244 193 171 q 131 400 131 317 l 131 567 q 162 722 131 649 q 247 849 193 794 q 374 934 301 903 q 529 965 447 965 l 1206 965 q 1362 934 1289 965 q 1489 849 1435 903 q 1574 722 1543 794 q 1606 567 1606 649 l 1606 400 q 1583 266 1606 328 q 1521 153 1561 204 l 1689 153 l 1689 0 l 529 0 m 1215 153 q 1308 173 1265 153 q 1383 227 1351 193 q 1434 306 1415 261 q 1453 400 1453 350 l 1453 567 q 1433 662 1453 617 q 1381 741 1414 707 q 1302 794 1347 775 q 1206 814 1257 814 l 529 814 q 434 794 479 814 q 356 741 389 775 q 303 662 322 707 q 283 567 283 617 l 283 400 q 303 303 283 349 q 356 225 322 258 q 434 172 389 192 q 529 153 479 153 l 1215 153 z "},"J":{"ha":1413,"x_min":139,"x_max":1311,"o":"m 257 117 q 170 244 201 172 q 139 400 139 317 l 139 503 l 292 503 l 292 400 q 311 305 292 350 q 364 226 331 260 q 442 172 397 192 q 538 153 486 153 l 911 153 q 1006 172 961 153 q 1085 225 1051 192 q 1139 303 1119 258 q 1158 397 1158 347 l 1158 963 l 1311 963 l 1311 400 q 1280 244 1311 317 q 1193 117 1249 172 q 1067 31 1139 63 q 911 0 994 0 l 539 0 q 383 31 456 0 q 257 117 311 63 z "},"L":{"ha":1435,"x_min":139,"x_max":1332,"o":"m 292 963 l 292 401 q 311 304 292 349 q 364 226 331 260 q 442 173 397 193 q 539 153 486 153 l 1332 153 l 1332 0 l 539 0 q 383 31 456 0 q 256 118 311 63 q 170 245 201 172 q 139 401 139 318 l 139 963 l 292 963 z "},"F":{"ha":1435,"x_min":140,"x_max":1333,"o":"m 365 738 q 313 659 332 704 q 293 563 293 614 l 293 553 l 1275 553 l 1275 401 l 293 401 l 293 0 l 140 0 l 140 563 q 172 718 140 646 q 257 844 203 790 q 385 931 313 900 q 540 963 457 963 l 1333 963 l 1333 811 l 540 811 q 443 791 488 811 q 365 738 399 771 z "},"A":{"ha":1488,"x_min":139,"x_max":1382,"o":"m 1264 846 q 1350 718 1318 790 q 1382 564 1382 646 l 1382 0 l 1229 0 l 1229 418 l 290 418 l 290 0 l 139 0 l 139 564 q 171 719 139 647 q 257 846 203 792 q 383 931 311 900 q 538 963 456 963 l 982 963 q 1136 931 1064 963 q 1264 846 1208 900 m 535 811 q 442 792 486 811 q 365 740 399 772 q 312 663 332 707 q 290 571 292 619 l 1229 571 q 1208 663 1228 619 q 1154 740 1188 707 q 1076 792 1121 772 q 982 811 1032 811 l 535 811 z "},"Z":{"ha":1457,"x_min":111,"x_max":1333,"o":"m 307 0 q 222 19 258 0 q 160 69 185 39 q 124 138 136 100 q 111 214 111 176 q 131 301 111 267 q 174 357 150 336 q 236 394 200 382 q 456 470 342 431 q 685 551 569 510 q 915 631 800 592 q 1135 707 1029 671 q 1146 713 1139 711 l 1144 711 q 1168 725 1154 715 q 1182 757 1182 735 q 1181 769 1182 761 q 1175 788 1179 778 q 1162 804 1171 797 q 1136 811 1153 811 l 119 811 l 119 963 l 1144 963 q 1246 933 1208 963 q 1303 867 1283 904 q 1328 798 1322 831 q 1333 757 1333 765 q 1317 672 1333 706 q 1282 618 1301 638 q 1232 581 1260 593 q 760 416 1000 501 q 289 251 521 331 l 290 253 q 267 233 274 244 q 261 208 261 221 q 274 172 261 189 q 310 153 288 154 l 1325 153 l 1325 0 l 307 0 z "},"M":{"ha":1690,"x_min":135,"x_max":1585,"o":"m 1433 1 l 1433 767 q 1415 799 1433 788 q 1383 811 1397 811 l 1371 811 q 1340 800 1357 811 q 1317 771 1324 789 l 1278 689 q 1240 609 1263 657 q 1185 492 1218 561 q 1106 328 1151 422 q 1001 108 1061 233 q 979 69 992 89 q 951 35 967 50 q 915 10 935 19 q 875 0 896 0 l 853 0 q 772 28 800 3 q 718 107 744 54 l 401 771 q 388 794 393 788 q 372 808 383 801 q 353 811 364 811 l 338 811 q 304 797 321 811 q 288 767 288 782 l 288 1 l 135 1 l 135 772 q 151 842 135 808 q 194 901 167 875 q 256 944 221 928 q 331 963 292 960 l 353 964 q 425 951 393 964 q 459 934 442 946 q 492 907 476 922 q 519 876 507 892 q 535 847 531 860 l 543 829 q 700 499 622 664 q 857 168 778 333 l 860 163 l 1179 832 q 1217 892 1193 861 q 1275 942 1242 924 q 1319 958 1294 951 q 1367 964 1343 964 l 1388 963 q 1458 945 1424 963 q 1521 901 1493 928 q 1566 840 1549 874 q 1585 775 1583 807 l 1585 1 l 1433 1 z "},"Y":{"ha":1413,"x_min":125,"x_max":1297,"o":"m 639 0 l 639 289 l 525 289 q 369 320 442 289 q 243 406 297 351 q 156 533 188 461 q 125 689 125 606 l 125 963 l 278 963 l 278 689 q 297 594 278 639 q 350 515 317 549 q 428 461 383 481 q 524 442 472 442 l 897 442 q 992 461 947 442 q 1072 514 1038 481 q 1125 592 1106 547 q 1144 686 1144 636 l 1144 963 l 1297 963 l 1297 689 q 1266 533 1297 606 q 1179 406 1235 461 q 1053 320 1125 351 q 897 289 981 289 l 792 289 l 792 0 l 639 0 z "},"X":{"ha":1413,"x_min":125,"x_max":1297,"o":"m 1179 444 q 1266 317 1235 389 q 1297 161 1297 244 l 1297 0 l 1144 0 l 1144 161 q 1125 256 1144 211 q 1072 335 1106 301 q 994 389 1039 369 q 899 408 950 408 l 524 408 q 429 389 474 408 q 351 336 385 369 q 297 258 317 303 q 278 164 278 214 l 278 0 l 125 0 l 125 161 q 156 317 125 244 q 243 444 188 389 q 266 466 254 456 q 289 485 278 476 q 242 525 261 506 l 243 525 q 156 653 188 581 q 125 808 125 725 l 125 963 l 278 963 l 278 808 q 297 713 278 758 q 350 634 317 668 q 428 581 383 600 q 524 561 472 561 l 908 561 q 1000 581 957 561 q 1075 635 1043 601 q 1126 713 1107 668 q 1144 806 1144 757 l 1144 963 l 1297 963 l 1297 808 q 1266 653 1297 725 q 1179 525 1235 581 q 1156 503 1167 514 q 1132 483 1144 493 q 1158 465 1147 474 q 1179 446 1168 456 l 1179 444 z "},"B":{"ha":1475,"x_min":136,"x_max":1382,"o":"m 1288 496 q 1357 402 1332 456 q 1382 288 1382 349 q 1358 175 1382 228 q 1292 83 1333 122 q 1195 22 1250 44 q 1081 0 1140 0 l 136 0 l 136 963 l 1076 963 q 1162 952 1119 963 q 1241 922 1204 942 q 1308 872 1278 901 q 1356 803 1338 842 q 1382 693 1382 750 q 1358 585 1382 638 q 1288 496 1333 532 m 288 575 l 1082 575 q 1135 583 1108 575 q 1183 607 1161 592 q 1217 644 1204 622 q 1231 693 1231 665 q 1217 742 1231 721 q 1181 779 1203 764 q 1132 803 1160 794 q 1076 811 1104 811 l 288 811 l 288 575 m 1219 236 q 1231 286 1231 258 q 1219 338 1231 313 q 1186 381 1207 363 q 1139 411 1165 400 q 1083 422 1113 422 l 288 422 l 288 153 l 1083 153 q 1165 176 1126 153 q 1219 236 1203 199 z "},"g":{"ha":1475,"x_min":138,"x_max":1307,"o":"m 253 114 q 168 240 199 168 q 138 390 138 311 l 138 569 q 169 722 138 650 q 253 846 200 793 q 377 930 306 899 q 529 961 449 961 l 1307 961 l 1307 811 l 529 811 q 435 792 479 811 q 358 741 390 774 q 306 665 325 708 q 286 571 286 621 l 286 390 q 305 298 286 342 q 356 221 324 254 q 433 168 389 188 q 526 149 476 149 l 1157 149 l 1157 400 l 582 400 l 582 549 l 1307 549 l 1307 0 l 529 0 q 377 31 449 0 q 253 114 306 61 z "},"K":{"ha":1497,"x_min":139,"x_max":1335,"o":"m 1335 814 q 1289 629 1335 714 q 1168 490 1243 544 q 1289 349 1243 435 q 1335 165 1335 264 l 1335 0 l 1182 0 l 1182 165 q 1162 262 1182 217 q 1108 340 1142 307 q 1030 393 1075 374 q 933 413 985 413 l 292 413 l 292 0 l 139 0 l 139 974 l 292 974 l 292 567 l 933 567 q 1030 586 985 567 q 1109 639 1075 606 q 1163 717 1143 672 q 1182 814 1182 763 l 1182 974 l 1335 974 l 1335 814 l 1335 814 z "},"V":{"ha":1628,"x_min":24,"x_max":1536,"o":"m 736 0 l 24 961 l 210 961 l 775 193 q 1062 577 918 379 q 1347 961 1206 775 l 1536 961 l 815 0 l 736 0 z "},"W":{"ha":2303,"x_min":136,"x_max":2144,"o":"m 2144 963 l 2144 396 q 2113 241 2144 314 q 2026 114 2081 168 q 1899 28 1972 60 q 1743 -4 1826 -4 l 1464 -4 q 1309 27 1381 -4 q 1182 113 1238 58 q 1161 135 1171 125 q 1140 160 1151 146 q 1121 137 1132 149 q 1099 113 1110 125 q 972 27 1044 58 q 817 -4 900 -4 l 536 -4 q 380 28 453 -4 q 253 114 307 60 q 167 241 199 168 q 136 396 136 314 l 136 963 l 289 963 l 289 393 q 309 299 289 343 q 363 221 329 254 q 441 168 396 188 q 536 149 486 149 l 817 149 q 914 168 869 149 q 992 221 958 188 q 1044 299 1025 254 q 1064 396 1064 344 l 1064 963 l 1217 963 l 1217 396 q 1236 299 1217 344 q 1289 221 1256 254 q 1367 168 1322 188 q 1464 149 1413 149 l 1746 149 q 1842 168 1797 149 q 1919 221 1886 188 q 1972 299 1953 254 q 1992 396 1992 344 l 1992 963 l 2144 963 z "},"А":{"ha":1488,"x_min":139,"x_max":1382,"o":"m 1264 846 q 1350 718 1318 790 q 1382 564 1382 646 l 1382 0 l 1229 0 l 1229 418 l 290 418 l 290 0 l 139 0 l 139 564 q 171 719 139 647 q 257 846 203 792 q 383 931 311 900 q 538 963 456 963 l 982 963 q 1136 931 1064 963 q 1264 846 1208 900 m 535 811 q 442 792 486 811 q 365 740 399 772 q 312 663 332 707 q 290 571 292 619 l 1229 571 q 1208 663 1228 619 q 1154 740 1188 707 q 1076 792 1121 772 q 982 811 1032 811 l 535 811 z "},"В":{"ha":1475,"x_min":136,"x_max":1382,"o":"m 1288 496 q 1357 402 1332 456 q 1382 288 1382 349 q 1358 175 1382 228 q 1292 83 1333 122 q 1195 22 1250 44 q 1081 0 1140 0 l 136 0 l 136 963 l 1076 963 q 1162 952 1119 963 q 1241 922 1204 942 q 1308 872 1278 901 q 1356 803 1338 842 q 1382 693 1382 750 q 1358 585 1382 638 q 1288 496 1333 532 m 288 575 l 1082 575 q 1135 583 1108 575 q 1183 607 1161 592 q 1217 644 1204 622 q 1231 693 1231 665 q 1217 742 1231 721 q 1181 779 1203 764 q 1132 803 1160 794 q 1076 811 1104 811 l 288 811 l 288 575 m 1219 236 q 1231 286 1231 258 q 1219 338 1231 313 q 1186 381 1207 363 q 1139 411 1165 400 q 1083 422 1113 422 l 288 422 l 288 153 l 1083 153 q 1165 176 1126 153 q 1219 236 1203 199 z "},"Е":{"ha":1475,"x_min":140,"x_max":1335,"o":"m 365 739 q 313 660 332 704 q 293 564 293 615 l 293 557 l 1335 557 l 1335 404 l 293 404 l 293 397 q 313 303 293 347 q 366 225 332 258 q 445 172 400 192 q 540 153 490 153 l 1335 153 l 1335 0 l 540 0 q 384 32 457 0 q 257 118 311 64 q 172 245 203 172 q 140 400 140 318 l 140 564 q 172 719 140 647 q 258 846 204 792 q 385 931 313 900 q 540 963 458 963 l 1335 963 l 1335 811 l 540 811 q 443 792 488 811 q 365 739 399 772 z "},"е":{"ha":1511,"x_min":139,"x_max":1360,"o":"m 139 671 q 165 784 139 731 q 233 876 190 838 q 332 938 275 915 q 451 961 389 961 l 1053 961 q 1169 938 1114 961 q 1267 873 1225 914 q 1335 778 1310 832 q 1360 663 1360 724 q 1335 546 1360 600 q 1267 451 1310 492 q 1167 387 1224 410 q 1047 364 1110 364 l 288 364 l 288 251 q 348 176 300 204 q 451 149 396 149 l 1333 149 l 1333 0 l 444 0 q 337 17 390 0 q 240 65 283 33 q 168 143 196 97 q 139 247 140 189 l 139 671 m 451 811 q 398 800 426 811 q 344 770 369 789 q 303 724 319 751 q 288 667 288 697 l 288 514 l 1053 514 q 1113 526 1083 514 q 1163 557 1142 538 q 1198 603 1185 576 q 1211 663 1211 631 q 1198 722 1211 694 q 1162 769 1185 749 q 1109 800 1139 789 q 1047 811 1079 811 l 451 811 z "},"о":{"ha":1733,"x_min":143,"x_max":1618,"o":"m 543 0 q 387 31 460 0 q 260 117 314 63 q 174 244 206 171 q 143 400 143 317 l 143 564 q 174 719 143 646 q 260 846 206 792 q 387 931 314 900 q 543 963 460 963 l 1218 963 q 1374 931 1301 963 q 1501 846 1447 900 q 1587 719 1556 792 q 1618 564 1618 646 l 1618 400 q 1587 244 1618 317 q 1501 117 1556 171 q 1374 31 1447 63 q 1218 0 1301 0 l 543 0 m 296 400 q 315 303 296 349 q 368 225 335 258 q 447 172 401 192 q 543 153 492 153 l 1218 153 q 1315 172 1269 153 q 1394 225 1360 192 q 1447 303 1428 258 q 1467 400 1467 349 l 1467 564 q 1447 659 1467 614 q 1394 738 1428 704 q 1315 792 1360 772 q 1218 811 1269 811 l 543 811 q 447 792 492 811 q 368 738 401 772 q 315 659 335 704 q 296 564 296 614 l 296 400 z "},"р":{"ha":1543,"x_min":143,"x_max":1411,"o":"m 294 0 l 143 0 l 143 961 l 1106 961 q 1222 938 1167 961 q 1319 873 1278 914 q 1386 778 1361 832 q 1411 663 1411 724 q 1385 546 1411 600 q 1317 451 1360 492 q 1217 387 1274 410 q 1099 364 1160 364 l 294 364 l 294 0 m 1101 513 q 1162 524 1133 513 q 1212 556 1190 536 q 1247 603 1233 576 q 1263 663 1261 631 q 1247 720 1261 693 q 1211 767 1233 747 q 1160 799 1189 788 q 1099 811 1131 811 l 294 811 l 294 513 l 1101 513 z "},"Р":{"ha":1543,"x_min":143,"x_max":1411,"o":"m 294 0 l 143 0 l 143 961 l 1106 961 q 1222 938 1167 961 q 1319 873 1278 914 q 1386 778 1361 832 q 1411 663 1411 724 q 1385 546 1411 600 q 1317 451 1360 492 q 1217 387 1274 410 q 1099 364 1160 364 l 294 364 l 294 0 m 1101 513 q 1162 524 1133 513 q 1212 556 1190 536 q 1247 603 1233 576 q 1263 663 1261 631 q 1247 720 1261 693 q 1211 767 1233 747 q 1160 799 1189 788 q 1099 811 1131 811 l 294 811 l 294 513 l 1101 513 z "},"С":{"ha":1436,"x_min":96,"x_max":1290,"o":"m 214 117 q 127 244 158 172 q 96 400 96 317 l 96 564 q 128 719 96 646 q 214 846 160 792 q 341 931 268 900 q 497 963 414 963 l 1290 963 l 1290 811 l 497 811 q 401 792 446 811 q 322 738 356 772 q 269 659 289 704 q 249 564 249 614 l 249 400 q 268 305 249 350 q 321 226 288 260 q 399 172 354 192 q 494 153 443 153 l 1290 153 l 1290 0 l 497 0 q 341 31 414 0 q 214 117 268 63 z "},"Т":{"ha":1432,"x_min":125,"x_max":1315,"o":"m 1315 811 l 796 811 l 796 0 l 644 0 l 644 811 l 125 811 l 125 963 l 1315 963 l 1315 811 z "},"т":{"ha":2094,"x_min":149,"x_max":1926,"o":"m 1536 961 q 1688 930 1617 961 q 1811 846 1758 899 q 1895 721 1864 793 q 1926 568 1926 649 l 1926 0 l 1778 0 l 1778 568 q 1759 662 1778 618 q 1708 739 1740 706 q 1631 792 1675 772 q 1539 811 1588 811 l 1071 811 l 1071 0 l 921 0 l 921 811 l 297 811 l 297 0 l 149 0 l 149 961 l 1536 961 l 1536 961 z "},"О":{"ha":1733,"x_min":143,"x_max":1618,"o":"m 543 0 q 387 31 460 0 q 260 117 314 63 q 174 244 206 171 q 143 400 143 317 l 143 564 q 174 719 143 646 q 260 846 206 792 q 387 931 314 900 q 543 963 460 963 l 1218 963 q 1374 931 1301 963 q 1501 846 1447 900 q 1587 719 1556 792 q 1618 564 1618 646 l 1618 400 q 1587 244 1618 317 q 1501 117 1556 171 q 1374 31 1447 63 q 1218 0 1301 0 l 543 0 m 296 400 q 315 303 296 349 q 368 225 335 258 q 447 172 401 192 q 543 153 492 153 l 1218 153 q 1315 172 1269 153 q 1394 225 1360 192 q 1447 303 1428 258 q 1467 400 1467 349 l 1467 564 q 1447 659 1467 614 q 1394 738 1428 704 q 1315 792 1360 772 q 1218 811 1269 811 l 543 811 q 447 792 492 811 q 368 738 401 772 q 315 659 335 704 q 296 564 296 614 l 296 400 z "},"Н":{"ha":1410,"x_min":139,"x_max":1308,"o":"m 1308 963 l 1308 0 l 1154 0 l 1154 440 l 292 440 l 292 0 l 139 0 l 139 963 l 292 963 l 292 593 l 1154 593 l 1154 963 l 1308 963 z "},"М":{"ha":1690,"x_min":135,"x_max":1585,"o":"m 1433 1 l 1433 767 q 1415 799 1433 788 q 1383 811 1397 811 l 1371 811 q 1340 800 1357 811 q 1317 771 1324 789 l 1278 689 q 1240 609 1263 657 q 1185 492 1218 561 q 1106 328 1151 422 q 1001 108 1061 233 q 979 69 992 89 q 951 35 967 50 q 915 10 935 19 q 875 0 896 0 l 853 0 q 772 28 800 3 q 718 107 744 54 l 401 771 q 388 794 393 788 q 372 808 383 801 q 353 811 364 811 l 338 811 q 304 797 321 811 q 288 767 288 782 l 288 1 l 135 1 l 135 772 q 151 842 135 808 q 194 901 167 875 q 256 944 221 928 q 331 963 292 960 l 353 964 q 425 951 393 964 q 459 934 442 946 q 492 907 476 922 q 519 876 507 892 q 535 847 531 860 l 543 829 q 700 499 622 664 q 857 168 778 333 l 860 163 l 1179 832 q 1217 892 1193 861 q 1275 942 1242 924 q 1319 958 1294 951 q 1367 964 1343 964 l 1388 963 q 1458 945 1424 963 q 1521 901 1493 928 q 1566 840 1549 874 q 1585 775 1583 807 l 1585 1 l 1433 1 z "},"а":{"ha":1504,"x_min":136,"x_max":1332,"o":"m 447 0 q 358 14 401 0 q 278 51 315 28 q 211 108 240 75 q 164 181 182 142 q 144 238 151 208 q 136 297 136 267 q 161 414 136 360 q 228 509 186 468 q 326 573 271 550 q 443 596 382 596 l 1183 596 l 1183 631 q 1169 694 1183 664 q 1133 746 1156 724 q 1081 781 1111 768 q 1018 793 1051 793 l 346 793 l 346 943 l 1018 943 q 1140 919 1083 943 q 1240 852 1197 894 q 1308 753 1283 810 q 1332 631 1332 696 l 1332 -1 l 447 0 m 357 419 q 305 367 324 399 q 286 297 286 336 q 299 238 286 265 q 333 192 313 211 q 383 160 354 172 q 443 149 411 149 l 1183 149 l 1183 446 l 447 446 q 357 419 396 446 z "},"с":{"ha":1436,"x_min":139,"x_max":1333,"o":"m 257 117 q 170 244 201 172 q 139 400 139 317 l 139 564 q 171 719 139 646 q 257 846 203 792 q 384 931 311 900 q 540 963 457 963 l 1333 963 l 1333 811 l 540 811 q 444 792 489 811 q 365 738 399 772 q 312 659 332 704 q 292 564 292 614 l 292 400 q 311 305 292 350 q 364 226 331 260 q 442 172 397 192 q 538 153 486 153 l 1333 153 l 1333 0 l 540 0 q 384 31 457 0 q 257 117 311 63 z "},"х":{"ha":1413,"x_min":139,"x_max":1311,"o":"m 1193 444 q 1280 317 1249 389 q 1311 161 1311 244 l 1311 0 l 1158 0 l 1158 161 q 1139 256 1158 211 q 1086 335 1119 301 q 1008 389 1053 369 q 913 408 964 408 l 538 408 q 443 389 488 408 q 365 336 399 369 q 311 258 331 303 q 292 164 292 214 l 292 0 l 139 0 l 139 161 q 170 317 139 244 q 257 444 201 389 q 280 466 268 456 q 303 485 292 476 q 256 525 275 506 l 257 525 q 170 653 201 581 q 139 808 139 725 l 139 963 l 292 963 l 292 808 q 311 713 292 758 q 364 634 331 668 q 442 581 397 600 q 538 561 486 561 l 922 561 q 1014 581 971 561 q 1089 635 1057 601 q 1140 713 1121 668 q 1158 806 1158 757 l 1158 963 l 1311 963 l 1311 808 q 1280 653 1311 725 q 1193 525 1249 581 q 1169 503 1181 514 q 1146 483 1158 493 q 1172 465 1161 474 q 1193 446 1182 456 l 1193 444 z "},"Х":{"ha":1413,"x_min":125,"x_max":1297,"o":"m 1179 444 q 1266 317 1235 389 q 1297 161 1297 244 l 1297 0 l 1144 0 l 1144 161 q 1125 256 1144 211 q 1072 335 1106 301 q 994 389 1039 369 q 899 408 950 408 l 524 408 q 429 389 474 408 q 351 336 385 369 q 297 258 317 303 q 278 164 278 214 l 278 0 l 125 0 l 125 161 q 156 317 125 244 q 243 444 188 389 q 266 466 254 456 q 289 485 278 476 q 242 525 261 506 l 243 525 q 156 653 188 581 q 125 808 125 725 l 125 963 l 278 963 l 278 808 q 297 713 278 758 q 350 634 317 668 q 428 581 383 600 q 524 561 472 561 l 908 561 q 1000 581 957 561 q 1075 635 1043 601 q 1126 713 1107 668 q 1144 806 1144 757 l 1144 963 l 1297 963 l 1297 808 q 1266 653 1297 725 q 1179 525 1235 581 q 1156 503 1167 514 q 1132 483 1144 493 q 1158 465 1147 474 q 1179 446 1168 456 l 1179 444 z "},"Я":{"ha":1561,"x_min":119,"x_max":1451,"o":"m 232 460 q 163 553 188 500 q 139 668 139 607 q 177 809 139 744 q 278 914 215 874 q 358 950 314 938 q 449 963 401 963 l 1451 963 l 1451 0 l 1346 0 l 1346 374 l 531 374 l 251 0 l 119 0 l 401 378 q 232 460 301 393 m 1346 857 l 449 857 q 372 842 408 857 q 306 803 335 828 q 261 743 278 778 q 244 668 244 708 q 261 594 244 628 q 305 534 278 560 q 368 494 332 508 q 443 479 404 479 l 1346 479 l 1346 857 z "},"К":{"ha":1497,"x_min":139,"x_max":1335,"o":"m 1335 814 q 1289 629 1335 714 q 1168 490 1243 544 q 1289 349 1243 435 q 1335 165 1335 264 l 1335 0 l 1182 0 l 1182 165 q 1162 262 1182 217 q 1108 340 1142 307 q 1030 393 1075 374 q 933 413 985 413 l 292 413 l 292 0 l 139 0 l 139 974 l 292 974 l 292 567 l 933 567 q 1030 586 985 567 q 1109 639 1075 606 q 1163 717 1143 672 q 1182 814 1182 763 l 1182 974 l 1335 974 l 1335 814 l 1335 814 z "},"к":{"ha":1157,"x_min":0,"x_max":0,"o":""},"п":{"ha":1413,"x_min":135,"x_max":1281,"o":"m 890 961 q 1042 930 971 961 q 1166 846 1113 899 q 1250 721 1219 793 q 1281 568 1281 649 l 1281 0 l 1132 0 l 1132 568 q 1113 662 1132 618 q 1062 739 1094 706 q 985 792 1029 772 q 893 811 942 811 l 283 811 l 283 0 l 135 0 l 135 961 l 890 961 z "},"П":{"ha":1157,"x_min":0,"x_max":0,"o":""},"у":{"ha":1413,"x_min":138,"x_max":1283,"o":"m 1283 961 l 1283 390 q 1253 239 1283 310 q 1169 115 1222 168 q 1045 31 1117 61 q 893 0 974 0 l 207 0 l 207 149 l 893 149 q 985 167 942 149 q 1062 218 1029 186 q 1114 294 1094 250 q 1135 386 1133 338 l 528 386 q 376 417 447 386 q 252 501 306 449 q 168 626 199 554 q 138 778 138 697 l 138 961 l 286 961 l 286 778 q 305 685 286 729 q 356 607 324 640 q 433 554 389 574 q 525 535 476 535 l 1135 535 l 1135 961 l 1283 961 z "},"Ё":{"ha":1475,"x_min":574,"x_max":1108,"o":"m 574 1007 l 574 1175 l 735 1175 l 735 1007 l 574 1007 m 946 1007 l 946 1175 l 1108 1175 l 1108 1007 l 946 1007 z "},"Ї":{"ha":1157,"x_min":0,"x_max":0,"o":""},"ё":{"ha":1478,"x_min":474,"x_max":1008,"o":"m 474 1015 l 474 1183 l 635 1183 l 635 1015 l 474 1015 m 846 1015 l 846 1183 l 1008 1183 l 1008 1015 l 846 1015 z "},"Ѕ":{"ha":1414,"x_min":74,"x_max":1297,"o":"m 124 0 l 124 153 l 1019 153 q 1069 163 1046 153 q 1108 190 1092 172 q 1135 230 1125 207 q 1144 279 1144 253 q 1108 369 1144 332 q 1019 406 1072 406 l 353 406 q 245 427 296 406 q 156 487 194 449 q 96 576 118 525 q 74 685 74 626 q 95 794 74 743 q 155 883 117 844 q 244 943 193 921 q 353 965 294 965 l 1247 965 l 1247 814 l 353 814 q 265 777 299 814 q 226 689 231 740 q 266 596 231 633 q 353 558 301 558 l 1019 558 q 1127 536 1076 558 q 1215 476 1178 514 q 1275 388 1253 439 q 1297 281 1297 338 q 1276 171 1297 222 q 1217 82 1254 119 q 1128 22 1179 44 q 1019 0 1078 0 l 124 0 z "},"ѕ":{"ha":1414,"x_min":108,"x_max":1306,"o":"m 157 0 l 157 149 l 1032 149 q 1119 185 1083 149 q 1156 272 1156 221 q 1120 361 1156 325 q 1032 397 1085 397 l 381 397 q 276 419 325 397 q 189 477 226 440 q 130 563 151 514 q 108 669 108 613 q 130 778 108 728 q 188 865 151 828 q 274 924 225 903 q 381 946 324 946 l 1257 946 l 1257 796 l 381 796 q 294 760 328 796 q 257 674 261 724 q 296 583 261 619 q 381 547 331 547 l 1032 547 q 1139 526 1089 547 q 1226 467 1189 504 q 1284 381 1263 431 q 1306 274 1306 331 q 1284 167 1306 217 q 1226 80 1263 117 q 1139 22 1189 43 q 1032 0 1089 0 l 157 0 z "},"ј":{"ha":1472,"x_min":131,"x_max":1276,"o":"m 289 943 l 1276 943 l 1276 390 q 1246 240 1276 311 q 1161 114 1215 168 q 1038 31 1108 61 q 886 0 967 0 l 522 0 q 369 31 440 0 q 246 114 299 61 q 161 240 192 168 q 131 390 131 311 l 131 493 l 279 493 l 279 390 q 298 298 279 342 q 349 221 317 254 q 426 168 382 188 q 519 149 469 149 l 886 149 q 978 167 935 149 q 1056 219 1022 186 q 1108 295 1089 251 q 1128 389 1128 339 l 1128 793 l 289 793 l 289 943 z "},"ї":{"ha":646,"x_min":60,"x_max":594,"o":"m 60 1015 l 60 1183 l 221 1183 l 221 1015 l 60 1015 m 432 1015 l 432 1183 l 594 1183 l 594 1015 l 432 1015 z "},"Ќ":{"ha":1444,"x_min":514,"x_max":900,"o":"m 900 1194 l 619 915 l 514 1021 l 794 1299 l 900 1194 z "},"н":{"ha":1410,"x_min":139,"x_max":1308,"o":"m 1308 963 l 1308 0 l 1154 0 l 1154 440 l 292 440 l 292 0 l 139 0 l 139 963 l 292 963 l 292 593 l 1154 593 l 1154 963 l 1308 963 z "},"Æ":{"ha":2963,"x_min":139,"x_max":2833,"o":"m 1282 847 q 1366 722 1335 793 q 1397 568 1397 650 l 1397 0 l 1292 0 l 1292 442 l 244 442 l 244 0 l 139 0 l 139 568 q 170 722 139 650 q 256 847 201 793 q 381 931 310 900 q 533 963 453 963 l 1003 963 q 1156 931 1085 963 q 1282 847 1228 900 m 1292 547 l 1292 571 q 1269 681 1292 629 q 1206 772 1246 733 q 1114 834 1167 811 q 1003 857 1061 857 l 531 857 q 420 834 472 857 q 329 772 368 811 q 267 680 290 732 q 244 568 244 628 l 244 547 l 1292 547 m 1817 772 q 1754 680 1776 732 q 1732 568 1732 628 l 1732 533 l 2833 533 l 2833 428 l 1732 428 l 1732 392 q 1755 281 1732 333 q 1817 190 1778 229 q 1910 128 1857 151 q 2021 106 1963 106 l 2833 106 l 2833 0 l 2021 0 q 1867 31 1939 0 q 1742 117 1796 63 q 1658 242 1689 171 q 1626 394 1626 314 l 1626 568 q 1658 722 1626 650 q 1743 847 1689 793 q 1869 931 1797 900 q 2021 963 1940 963 l 2833 963 l 2833 857 l 2021 857 q 1909 835 1961 857 q 1817 772 1857 813 z "},"ﬂ":{"ha":2781,"x_min":139,"x_max":2779,"o":"m 329 771 q 267 680 289 732 q 244 567 244 628 l 244 529 l 1282 529 l 1282 424 l 244 424 l 244 0 l 139 0 l 139 567 q 170 722 139 650 q 254 846 201 793 q 380 931 308 900 q 533 963 451 963 l 1344 963 l 1344 857 l 533 857 q 422 834 474 857 q 329 771 369 811 m 1679 963 l 1679 396 q 1701 283 1679 335 q 1764 192 1724 231 q 1856 128 1804 151 q 1968 106 1908 106 l 2779 106 l 2779 0 l 1968 0 q 1815 31 1886 0 q 1689 117 1743 63 q 1605 241 1636 169 q 1574 396 1574 313 l 1574 963 l 1679 963 z "},"Ĺ":{"ha":1435,"x_min":139,"x_max":1332,"o":"m 292 963 l 292 401 q 311 304 292 349 q 364 226 331 260 q 442 173 397 193 q 539 153 486 153 l 1332 153 l 1332 0 l 539 0 q 383 31 456 0 q 256 118 311 63 q 170 245 201 172 q 139 401 139 318 l 139 963 l 292 963 m 894 1204 l 614 925 l 508 1031 l 789 1308 l 894 1204 z "},"Ļ":{"ha":1435,"x_min":139,"x_max":1332,"o":"m 292 963 l 292 401 q 311 304 292 349 q 364 226 331 260 q 442 173 397 193 q 539 153 486 153 l 1332 153 l 1332 0 l 539 0 q 383 31 456 0 q 256 118 311 63 q 170 245 201 172 q 139 401 139 318 l 139 963 l 292 963 m 608 -210 l 729 49 l 825 4 l 704 -254 l 608 -210 z "},"ĺ":{"ha":1346,"x_min":139,"x_max":1307,"o":"m 288 961 l 288 392 q 306 297 288 342 q 358 220 325 253 q 435 168 390 188 q 529 149 479 149 l 1307 149 l 1307 0 l 529 0 q 378 31 449 0 q 253 115 307 61 q 169 240 200 168 q 139 392 139 311 l 139 961 l 288 961 m 850 1203 l 569 924 l 464 1029 l 744 1307 l 850 1203 z "},"ļ":{"ha":1346,"x_min":139,"x_max":1307,"o":"m 288 961 l 288 392 q 306 297 288 342 q 358 220 325 253 q 435 168 390 188 q 529 149 479 149 l 1307 149 l 1307 0 l 529 0 q 378 31 449 0 q 253 115 307 61 q 169 240 200 168 q 139 392 139 311 l 139 961 l 288 961 m 564 -210 l 685 49 l 781 4 l 660 -254 l 564 -210 z "},"Ť":{"ha":1432,"x_min":125,"x_max":1315,"o":"m 1315 811 l 796 811 l 796 0 l 644 0 l 644 811 l 125 811 l 125 963 l 1315 963 l 1315 811 m 1110 1340 l 1156 1244 l 715 1036 l 275 1244 l 321 1340 l 715 1153 l 1110 1340 z "},"ť":{"ha":1792,"x_min":139,"x_max":1651,"o":"m 1449 663 l 1533 972 l 1651 972 l 1567 663 l 1449 663 m 1139 663 l 288 663 l 288 392 q 306 297 288 342 q 358 220 325 253 q 434 168 390 188 q 529 149 478 149 l 1307 149 l 1307 0 l 529 0 q 378 31 449 0 q 253 115 307 61 q 169 240 200 168 q 139 392 139 311 l 139 961 l 288 961 l 288 813 l 1139 813 l 1139 663 z "},"«":{"ha":0,"x_min":0,"x_max":0,"o":""},"‹":{"ha":0,"x_min":0,"x_max":0,"o":""},"›":{"ha":0,"x_min":0,"x_max":0,"o":""},"»":{"ha":0,"x_min":0,"x_max":0,"o":""},"®":{"ha":0,"x_min":0,"x_max":0,"o":""},"™":{"ha":2990,"x_min":0,"x_max":0,"o":""},"И":{"ha":1542,"x_min":139,"x_max":1403,"o":"m 415 8 q 335 -10 378 -10 q 266 3 299 -10 q 206 38 233 15 q 161 93 179 61 q 139 164 143 125 l 139 965 l 246 965 l 246 174 q 275 117 249 138 q 333 97 301 97 q 369 104 351 97 q 399 126 386 111 l 1061 907 q 1127 959 1089 943 q 1206 975 1165 975 q 1274 964 1240 975 q 1335 931 1308 953 q 1381 877 1363 908 q 1401 807 1399 846 l 1403 803 l 1403 0 l 1297 0 l 1297 793 q 1268 849 1296 829 q 1208 868 1240 868 q 1172 862 1189 868 q 1143 840 1156 856 l 481 60 q 448 26 461 36 q 415 8 435 17 z "},"З":{"ha":1586,"x_min":139,"x_max":1489,"o":"m 1443 481 q 1481 436 1474 461 q 1489 382 1489 411 l 1489 176 q 1475 123 1486 150 q 1440 68 1464 96 q 1362 15 1406 31 q 1261 0 1318 0 l 371 0 q 338 2 357 0 q 297 9 318 4 q 256 22 276 14 q 218 42 235 29 q 139 208 139 100 l 139 261 l 244 261 l 244 208 q 251 162 246 179 q 276 129 257 144 q 314 111 293 115 q 354 106 335 107 l 1261 106 q 1308 110 1289 106 q 1339 121 1326 114 q 1369 144 1356 131 q 1383 182 1383 158 l 1383 381 q 1363 418 1383 408 q 1319 428 1342 428 l 326 428 l 326 535 l 1321 535 q 1361 547 1339 535 q 1383 582 1383 558 l 1383 776 q 1342 835 1375 814 q 1271 857 1308 857 l 356 857 q 316 851 338 857 q 279 835 294 846 q 251 799 258 819 q 244 754 244 779 l 244 701 l 139 701 l 139 760 q 158 850 139 808 q 213 919 176 892 q 288 953 244 943 q 371 963 331 963 l 1263 963 q 1345 947 1306 961 q 1415 910 1385 933 q 1465 855 1446 886 q 1489 788 1485 824 l 1489 569 q 1484 538 1488 550 q 1475 517 1481 526 q 1461 500 1469 508 q 1443 481 1453 492 z "},"я":{"ha":1556,"x_min":119,"x_max":1451,"o":"m 232 460 q 163 553 188 500 q 139 668 139 607 q 177 809 139 744 q 278 914 215 874 q 358 950 314 938 q 449 963 401 963 l 1451 963 l 1451 0 l 1346 0 l 1346 374 l 531 374 l 251 0 l 119 0 l 401 378 q 232 460 301 393 m 1346 857 l 449 857 q 372 842 408 857 q 306 803 335 828 q 261 743 278 778 q 244 668 244 708 q 261 594 244 628 q 305 534 278 560 q 368 494 332 508 q 443 479 404 479 l 1346 479 l 1346 857 z "},"ь":{"ha":1564,"x_min":139,"x_max":1453,"o":"m 246 589 l 1143 589 q 1260 566 1204 589 q 1359 503 1317 543 q 1427 410 1401 464 q 1453 294 1453 356 q 1428 181 1453 235 q 1361 88 1403 128 q 1265 24 1319 47 q 1150 0 1210 0 l 139 0 l 139 963 l 246 963 l 246 589 m 246 483 l 246 106 l 1143 106 q 1220 120 1183 106 q 1285 160 1257 135 q 1329 220 1313 186 q 1347 294 1346 254 q 1329 368 1346 333 q 1285 428 1313 403 q 1222 469 1258 454 q 1146 483 1186 483 l 246 483 z "},"Ь":{"ha":1543,"x_min":139,"x_max":1453,"o":"m 246 589 l 1143 589 q 1260 566 1204 589 q 1359 503 1317 543 q 1427 410 1401 464 q 1453 294 1453 356 q 1428 181 1453 235 q 1361 88 1403 128 q 1265 24 1319 47 q 1150 0 1210 0 l 139 0 l 139 963 l 246 963 l 246 589 m 246 483 l 246 106 l 1143 106 q 1220 120 1183 106 q 1285 160 1257 135 q 1329 220 1313 186 q 1347 294 1346 254 q 1329 368 1346 333 q 1285 428 1313 403 q 1222 469 1258 454 q 1146 483 1186 483 l 246 483 z "},"Ы":{"ha":1721,"x_min":139,"x_max":1650,"o":"m 246 589 l 1143 589 q 1260 566 1204 589 q 1359 503 1317 543 q 1427 410 1401 464 q 1453 294 1453 356 q 1428 181 1453 235 q 1361 88 1403 128 q 1265 24 1319 47 q 1150 0 1210 0 l 139 0 l 139 963 l 246 963 l 246 589 m 246 483 l 246 106 l 1143 106 q 1220 120 1183 106 q 1285 160 1257 135 q 1329 220 1313 186 q 1347 294 1346 254 q 1329 368 1346 333 q 1285 428 1313 403 q 1222 469 1258 454 q 1146 483 1186 483 l 246 483 m 1497 0 l 1497 963 l 1650 963 l 1650 0 l 1497 0 z "},"Г":{"ha":1193,"x_min":139,"x_max":1247,"o":"m 139 0 l 139 568 q 170 721 139 649 q 255 847 201 793 q 380 931 308 900 q 533 963 451 963 l 1247 963 l 1247 857 l 533 857 q 422 834 474 857 q 330 772 369 811 q 267 680 290 732 q 244 568 244 628 l 244 0 l 139 0 z "},"Й":{"ha":1542,"x_min":139,"x_max":1403,"o":"m 415 8 q 335 -10 378 -10 q 266 3 299 -10 q 206 38 233 15 q 161 93 179 61 q 139 164 143 125 l 139 965 l 246 965 l 246 174 q 275 117 249 138 q 333 97 301 97 q 369 104 351 97 q 399 126 386 111 l 1061 907 q 1127 959 1089 943 q 1206 975 1165 975 q 1274 964 1240 975 q 1335 931 1308 953 q 1381 877 1363 908 q 1401 807 1399 846 l 1403 803 l 1403 0 l 1297 0 l 1297 793 q 1268 849 1296 829 q 1208 868 1240 868 q 1172 862 1189 868 q 1143 840 1156 856 l 481 60 q 448 26 461 36 q 415 8 435 17 m 525 1179 q 542 1135 525 1153 q 586 1117 560 1117 l 803 1117 q 847 1135 828 1117 q 865 1179 865 1153 l 865 1221 l 993 1221 l 993 1179 q 978 1106 993 1140 q 938 1047 964 1072 q 876 1006 911 1021 q 803 990 842 990 l 586 990 q 453 1044 510 990 q 412 1106 426 1071 q 397 1179 397 1140 l 397 1221 l 525 1221 l 525 1179 z "},"\"":{"ha":579,"x_min":138,"x_max":513,"o":"m 138 675 l 138 963 l 289 963 l 289 675 l 138 675 m 361 675 l 361 963 l 513 963 l 513 675 l 361 675 z "},"!":{"ha":540,"x_min":190,"x_max":339,"o":"m 339 963 l 339 269 l 190 269 l 190 963 l 339 963 m 339 211 l 339 0 l 190 0 l 190 211 l 339 211 z "}}}
